<mxfile host="app.diagrams.net" agent="Mozilla/5.0 (Windows NT 10.0; Win64; x64; rv:141.0) Gecko/20100101 Firefox/141.0" version="28.0.5">
  <diagram name="Page-1" id="hPrMzgdEGsXwVQCOCi_O">
    <mxGraphModel dx="5210" dy="2985" grid="1" gridSize="10" guides="1" tooltips="1" connect="1" arrows="1" fold="1" page="1" pageScale="1" pageWidth="850" pageHeight="1100" math="0" shadow="0">
      <root>
        <mxCell id="0" />
        <mxCell id="1" parent="0" />
        <mxCell id="TqjajjSFYu0oRNBo3CQ0-452" value="" style="rounded=0;whiteSpace=wrap;html=1;" vertex="1" parent="1">
          <mxGeometry x="2550" y="40" width="480" height="1600" as="geometry" />
        </mxCell>
        <mxCell id="TqjajjSFYu0oRNBo3CQ0-393" value="" style="rounded=0;whiteSpace=wrap;html=1;" vertex="1" parent="1">
          <mxGeometry x="3300" y="40" width="600" height="4460" as="geometry" />
        </mxCell>
        <mxCell id="TqjajjSFYu0oRNBo3CQ0-394" value="Function ทอนเงิน" style="rounded=0;whiteSpace=wrap;html=1;" vertex="1" parent="1">
          <mxGeometry x="3300" width="600" height="40" as="geometry" />
        </mxCell>
        <mxCell id="TqjajjSFYu0oRNBo3CQ0-391" value="" style="rounded=0;whiteSpace=wrap;html=1;" vertex="1" parent="1">
          <mxGeometry x="1800" y="50" width="600" height="2160" as="geometry" />
        </mxCell>
        <mxCell id="TqjajjSFYu0oRNBo3CQ0-392" value="Function&amp;nbsp;เลือกสินค้า" style="rounded=0;whiteSpace=wrap;html=1;" vertex="1" parent="1">
          <mxGeometry x="1800" y="10" width="600" height="40" as="geometry" />
        </mxCell>
        <mxCell id="TqjajjSFYu0oRNBo3CQ0-390" value="" style="rounded=0;whiteSpace=wrap;html=1;" vertex="1" parent="1">
          <mxGeometry x="1040" y="50" width="600" height="720" as="geometry" />
        </mxCell>
        <mxCell id="TqjajjSFYu0oRNBo3CQ0-387" value="" style="rounded=0;whiteSpace=wrap;html=1;" vertex="1" parent="1">
          <mxGeometry x="40" y="40" width="800" height="3400" as="geometry" />
        </mxCell>
        <mxCell id="TqjajjSFYu0oRNBo3CQ0-1" style="edgeStyle=orthogonalEdgeStyle;rounded=0;orthogonalLoop=1;jettySize=auto;html=1;exitX=0.5;exitY=1;exitDx=0;exitDy=0;exitPerimeter=0;" edge="1" parent="1" source="TqjajjSFYu0oRNBo3CQ0-2" target="TqjajjSFYu0oRNBo3CQ0-4">
          <mxGeometry relative="1" as="geometry" />
        </mxCell>
        <mxCell id="TqjajjSFYu0oRNBo3CQ0-2" value="&lt;div&gt;Start&lt;/div&gt;" style="strokeWidth=2;html=1;shape=mxgraph.flowchart.start_1;whiteSpace=wrap;" vertex="1" parent="1">
          <mxGeometry x="375" y="50" width="100" height="60" as="geometry" />
        </mxCell>
        <mxCell id="TqjajjSFYu0oRNBo3CQ0-3" style="edgeStyle=orthogonalEdgeStyle;rounded=0;orthogonalLoop=1;jettySize=auto;html=1;exitX=0.5;exitY=1;exitDx=0;exitDy=0;entryX=0.5;entryY=0;entryDx=0;entryDy=0;" edge="1" parent="1" source="TqjajjSFYu0oRNBo3CQ0-4" target="TqjajjSFYu0oRNBo3CQ0-16">
          <mxGeometry relative="1" as="geometry" />
        </mxCell>
        <mxCell id="TqjajjSFYu0oRNBo3CQ0-4" value="จำนวนแบงค์พัน = 1" style="rounded=1;whiteSpace=wrap;html=1;absoluteArcSize=1;arcSize=0;strokeWidth=2;" vertex="1" parent="1">
          <mxGeometry x="340" y="140" width="170" height="50" as="geometry" />
        </mxCell>
        <mxCell id="TqjajjSFYu0oRNBo3CQ0-5" style="edgeStyle=orthogonalEdgeStyle;rounded=0;orthogonalLoop=1;jettySize=auto;html=1;exitX=0.5;exitY=1;exitDx=0;exitDy=0;" edge="1" parent="1" source="TqjajjSFYu0oRNBo3CQ0-6" target="TqjajjSFYu0oRNBo3CQ0-8">
          <mxGeometry relative="1" as="geometry" />
        </mxCell>
        <mxCell id="TqjajjSFYu0oRNBo3CQ0-6" value="&lt;div&gt;จำนวนแบงค์ร้อย = 3&lt;/div&gt;" style="whiteSpace=wrap;html=1;rounded=1;absoluteArcSize=1;arcSize=0;strokeWidth=2;" vertex="1" parent="1">
          <mxGeometry x="340" y="270" width="170" height="45" as="geometry" />
        </mxCell>
        <mxCell id="TqjajjSFYu0oRNBo3CQ0-7" style="edgeStyle=orthogonalEdgeStyle;rounded=0;orthogonalLoop=1;jettySize=auto;html=1;exitX=0.5;exitY=1;exitDx=0;exitDy=0;" edge="1" parent="1" source="TqjajjSFYu0oRNBo3CQ0-8" target="TqjajjSFYu0oRNBo3CQ0-10">
          <mxGeometry relative="1" as="geometry" />
        </mxCell>
        <mxCell id="TqjajjSFYu0oRNBo3CQ0-8" value="&lt;div&gt;จำนวนแบงค์ห้าสิบ = 8&lt;/div&gt;" style="whiteSpace=wrap;html=1;rounded=1;absoluteArcSize=1;arcSize=0;strokeWidth=2;" vertex="1" parent="1">
          <mxGeometry x="340" y="330" width="170" height="45" as="geometry" />
        </mxCell>
        <mxCell id="TqjajjSFYu0oRNBo3CQ0-9" style="edgeStyle=orthogonalEdgeStyle;rounded=0;orthogonalLoop=1;jettySize=auto;html=1;exitX=0.5;exitY=1;exitDx=0;exitDy=0;" edge="1" parent="1" source="TqjajjSFYu0oRNBo3CQ0-10" target="TqjajjSFYu0oRNBo3CQ0-12">
          <mxGeometry relative="1" as="geometry" />
        </mxCell>
        <mxCell id="TqjajjSFYu0oRNBo3CQ0-10" value="&lt;div&gt;จำนวนแบงค์ยี่สิบ = 15&lt;/div&gt;" style="whiteSpace=wrap;html=1;rounded=1;absoluteArcSize=1;arcSize=0;strokeWidth=2;" vertex="1" parent="1">
          <mxGeometry x="340" y="390" width="170" height="45" as="geometry" />
        </mxCell>
        <mxCell id="TqjajjSFYu0oRNBo3CQ0-11" style="edgeStyle=orthogonalEdgeStyle;rounded=0;orthogonalLoop=1;jettySize=auto;html=1;exitX=0.5;exitY=1;exitDx=0;exitDy=0;entryX=0.5;entryY=0;entryDx=0;entryDy=0;" edge="1" parent="1" source="TqjajjSFYu0oRNBo3CQ0-12" target="TqjajjSFYu0oRNBo3CQ0-14">
          <mxGeometry relative="1" as="geometry" />
        </mxCell>
        <mxCell id="TqjajjSFYu0oRNBo3CQ0-12" value="&lt;div&gt;จำนวนเหรียญสิบ =&amp;nbsp; 200&lt;/div&gt;" style="whiteSpace=wrap;html=1;rounded=1;absoluteArcSize=1;arcSize=0;strokeWidth=2;" vertex="1" parent="1">
          <mxGeometry x="340" y="450" width="170" height="45" as="geometry" />
        </mxCell>
        <mxCell id="TqjajjSFYu0oRNBo3CQ0-13" style="edgeStyle=orthogonalEdgeStyle;rounded=0;orthogonalLoop=1;jettySize=auto;html=1;exitX=0.5;exitY=1;exitDx=0;exitDy=0;entryX=0.5;entryY=0;entryDx=0;entryDy=0;" edge="1" parent="1" source="TqjajjSFYu0oRNBo3CQ0-14">
          <mxGeometry relative="1" as="geometry">
            <mxPoint x="425" y="570" as="targetPoint" />
          </mxGeometry>
        </mxCell>
        <mxCell id="TqjajjSFYu0oRNBo3CQ0-14" value="&lt;div&gt;จำนวนเหรียญห้า = 500&lt;/div&gt;" style="whiteSpace=wrap;html=1;rounded=1;absoluteArcSize=1;arcSize=0;strokeWidth=2;" vertex="1" parent="1">
          <mxGeometry x="340" y="510" width="170" height="45" as="geometry" />
        </mxCell>
        <mxCell id="TqjajjSFYu0oRNBo3CQ0-15" style="edgeStyle=orthogonalEdgeStyle;rounded=0;orthogonalLoop=1;jettySize=auto;html=1;exitX=0.5;exitY=1;exitDx=0;exitDy=0;entryX=0.5;entryY=0;entryDx=0;entryDy=0;" edge="1" parent="1" source="TqjajjSFYu0oRNBo3CQ0-16" target="TqjajjSFYu0oRNBo3CQ0-6">
          <mxGeometry relative="1" as="geometry" />
        </mxCell>
        <mxCell id="TqjajjSFYu0oRNBo3CQ0-16" value="จำนวนแบงค์ห้าร้อย = 1" style="whiteSpace=wrap;html=1;rounded=1;absoluteArcSize=1;arcSize=0;strokeWidth=2;" vertex="1" parent="1">
          <mxGeometry x="340" y="210" width="170" height="45" as="geometry" />
        </mxCell>
        <mxCell id="TqjajjSFYu0oRNBo3CQ0-17" style="edgeStyle=orthogonalEdgeStyle;rounded=0;orthogonalLoop=1;jettySize=auto;html=1;exitX=0.5;exitY=1;exitDx=0;exitDy=0;entryX=0.5;entryY=0;entryDx=0;entryDy=0;" edge="1" parent="1" source="TqjajjSFYu0oRNBo3CQ0-18">
          <mxGeometry relative="1" as="geometry">
            <mxPoint x="425" y="630" as="targetPoint" />
          </mxGeometry>
        </mxCell>
        <mxCell id="TqjajjSFYu0oRNBo3CQ0-18" value="&lt;div&gt;จำนวนเหรียญบาท = 1000&lt;/div&gt;" style="whiteSpace=wrap;html=1;rounded=1;absoluteArcSize=1;arcSize=0;strokeWidth=2;" vertex="1" parent="1">
          <mxGeometry x="340" y="570" width="170" height="45" as="geometry" />
        </mxCell>
        <mxCell id="TqjajjSFYu0oRNBo3CQ0-21" style="edgeStyle=orthogonalEdgeStyle;rounded=0;orthogonalLoop=1;jettySize=auto;html=1;exitX=0.5;exitY=1;exitDx=0;exitDy=0;entryX=0.5;entryY=0;entryDx=0;entryDy=0;" edge="1" parent="1" source="TqjajjSFYu0oRNBo3CQ0-19" target="TqjajjSFYu0oRNBo3CQ0-20">
          <mxGeometry relative="1" as="geometry" />
        </mxCell>
        <mxCell id="TqjajjSFYu0oRNBo3CQ0-19" value="&amp;nbsp;ยอดเงินคงเหลือในตู้ =&amp;nbsp;&lt;span id=&quot;cwos&quot; class=&quot;qv3Wpe&quot;&gt;8000&lt;/span&gt;" style="whiteSpace=wrap;html=1;rounded=1;absoluteArcSize=1;arcSize=0;strokeWidth=2;" vertex="1" parent="1">
          <mxGeometry x="340" y="630" width="170" height="45" as="geometry" />
        </mxCell>
        <mxCell id="TqjajjSFYu0oRNBo3CQ0-171" style="edgeStyle=orthogonalEdgeStyle;rounded=0;orthogonalLoop=1;jettySize=auto;html=1;exitX=0.5;exitY=1;exitDx=0;exitDy=0;entryX=0.5;entryY=0;entryDx=0;entryDy=0;" edge="1" parent="1" source="TqjajjSFYu0oRNBo3CQ0-20" target="TqjajjSFYu0oRNBo3CQ0-169">
          <mxGeometry relative="1" as="geometry" />
        </mxCell>
        <mxCell id="TqjajjSFYu0oRNBo3CQ0-20" value="" style="ellipse;whiteSpace=wrap;html=1;aspect=fixed;" vertex="1" parent="1">
          <mxGeometry x="410" y="700" width="30" height="30" as="geometry" />
        </mxCell>
        <mxCell id="TqjajjSFYu0oRNBo3CQ0-22" style="edgeStyle=orthogonalEdgeStyle;rounded=0;orthogonalLoop=1;jettySize=auto;html=1;exitX=0.5;exitY=1;exitDx=0;exitDy=0;entryX=0.5;entryY=0;entryDx=0;entryDy=0;" edge="1" parent="1" source="TqjajjSFYu0oRNBo3CQ0-23" target="TqjajjSFYu0oRNBo3CQ0-24">
          <mxGeometry relative="1" as="geometry" />
        </mxCell>
        <mxCell id="TqjajjSFYu0oRNBo3CQ0-23" value="แสดง ประเภทของสินค้า &quot;ประเภทน้ำ&quot;,&quot;ประเภทขนม&quot;" style="shape=parallelogram;html=1;strokeWidth=2;perimeter=parallelogramPerimeter;whiteSpace=wrap;rounded=1;arcSize=0;size=0.08823529411764705;" vertex="1" parent="1">
          <mxGeometry x="1080" y="170" width="285" height="40" as="geometry" />
        </mxCell>
        <mxCell id="TqjajjSFYu0oRNBo3CQ0-24" value="รับ ประเภทของสินค้า" style="shape=parallelogram;html=1;strokeWidth=2;perimeter=parallelogramPerimeter;whiteSpace=wrap;rounded=1;arcSize=0;size=0.08823529411764705;" vertex="1" parent="1">
          <mxGeometry x="1137.5" y="230" width="170" height="50" as="geometry" />
        </mxCell>
        <mxCell id="TqjajjSFYu0oRNBo3CQ0-115" style="edgeStyle=orthogonalEdgeStyle;rounded=0;orthogonalLoop=1;jettySize=auto;html=1;exitX=0.5;exitY=1;exitDx=0;exitDy=0;exitPerimeter=0;entryX=0.5;entryY=0;entryDx=0;entryDy=0;" edge="1" parent="1" source="TqjajjSFYu0oRNBo3CQ0-26" target="TqjajjSFYu0oRNBo3CQ0-102">
          <mxGeometry relative="1" as="geometry" />
        </mxCell>
        <mxCell id="TqjajjSFYu0oRNBo3CQ0-495" value="False" style="edgeLabel;html=1;align=center;verticalAlign=middle;resizable=0;points=[];" vertex="1" connectable="0" parent="TqjajjSFYu0oRNBo3CQ0-115">
          <mxGeometry x="-0.2868" y="-1" relative="1" as="geometry">
            <mxPoint as="offset" />
          </mxGeometry>
        </mxCell>
        <mxCell id="TqjajjSFYu0oRNBo3CQ0-116" style="edgeStyle=orthogonalEdgeStyle;rounded=0;orthogonalLoop=1;jettySize=auto;html=1;exitX=1;exitY=0.5;exitDx=0;exitDy=0;exitPerimeter=0;entryX=0.5;entryY=0;entryDx=0;entryDy=0;" edge="1" parent="1" source="TqjajjSFYu0oRNBo3CQ0-26" target="TqjajjSFYu0oRNBo3CQ0-30">
          <mxGeometry relative="1" as="geometry" />
        </mxCell>
        <mxCell id="TqjajjSFYu0oRNBo3CQ0-494" value="True" style="edgeLabel;html=1;align=center;verticalAlign=middle;resizable=0;points=[];" vertex="1" connectable="0" parent="TqjajjSFYu0oRNBo3CQ0-116">
          <mxGeometry x="-0.3566" y="-2" relative="1" as="geometry">
            <mxPoint as="offset" />
          </mxGeometry>
        </mxCell>
        <mxCell id="TqjajjSFYu0oRNBo3CQ0-26" value="ประเภทของสินค้า == &quot;ประเภทน้ำ&quot; ?" style="strokeWidth=2;html=1;shape=mxgraph.flowchart.decision;whiteSpace=wrap;" vertex="1" parent="1">
          <mxGeometry x="1097.5" y="300" width="240" height="90" as="geometry" />
        </mxCell>
        <mxCell id="TqjajjSFYu0oRNBo3CQ0-28" style="edgeStyle=orthogonalEdgeStyle;rounded=0;orthogonalLoop=1;jettySize=auto;html=1;exitX=0.5;exitY=1;exitDx=0;exitDy=0;entryX=0.5;entryY=0;entryDx=0;entryDy=0;entryPerimeter=0;" edge="1" parent="1" source="TqjajjSFYu0oRNBo3CQ0-24" target="TqjajjSFYu0oRNBo3CQ0-26">
          <mxGeometry relative="1" as="geometry" />
        </mxCell>
        <mxCell id="TqjajjSFYu0oRNBo3CQ0-29" style="edgeStyle=orthogonalEdgeStyle;rounded=0;orthogonalLoop=1;jettySize=auto;html=1;exitX=0.5;exitY=1;exitDx=0;exitDy=0;entryX=0.5;entryY=0;entryDx=0;entryDy=0;" edge="1" parent="1" source="TqjajjSFYu0oRNBo3CQ0-30" target="TqjajjSFYu0oRNBo3CQ0-32">
          <mxGeometry relative="1" as="geometry" />
        </mxCell>
        <mxCell id="TqjajjSFYu0oRNBo3CQ0-30" value="แสดง &quot;&lt;font data-font-src=&quot;https://fonts.googleapis.com/css?family=Sarabun&quot; face=&quot;Sarabun&quot;&gt;โค้ก กระป๋องละ 10 บาท&lt;/font&gt;&quot;" style="shape=parallelogram;html=1;strokeWidth=2;perimeter=parallelogramPerimeter;whiteSpace=wrap;rounded=1;arcSize=0;size=0.09375;" vertex="1" parent="1">
          <mxGeometry x="1412.5" y="382.5" width="180" height="40" as="geometry" />
        </mxCell>
        <mxCell id="TqjajjSFYu0oRNBo3CQ0-31" style="edgeStyle=orthogonalEdgeStyle;rounded=0;orthogonalLoop=1;jettySize=auto;html=1;exitX=0.5;exitY=1;exitDx=0;exitDy=0;entryX=0.5;entryY=0;entryDx=0;entryDy=0;" edge="1" parent="1" source="TqjajjSFYu0oRNBo3CQ0-32" target="TqjajjSFYu0oRNBo3CQ0-34">
          <mxGeometry relative="1" as="geometry" />
        </mxCell>
        <mxCell id="TqjajjSFYu0oRNBo3CQ0-32" value="แสดง &quot;&lt;font data-font-src=&quot;https://fonts.googleapis.com/css?family=Sarabun&quot; face=&quot;Sarabun&quot;&gt;น้ำเขียว กระป๋องละ 12 บาท&lt;/font&gt;&quot;" style="shape=parallelogram;html=1;strokeWidth=2;perimeter=parallelogramPerimeter;whiteSpace=wrap;rounded=1;arcSize=0;size=0.09375;" vertex="1" parent="1">
          <mxGeometry x="1392.5" y="452.5" width="220" height="40" as="geometry" />
        </mxCell>
        <mxCell id="TqjajjSFYu0oRNBo3CQ0-33" style="edgeStyle=orthogonalEdgeStyle;rounded=0;orthogonalLoop=1;jettySize=auto;html=1;exitX=0.5;exitY=1;exitDx=0;exitDy=0;entryX=0.5;entryY=0;entryDx=0;entryDy=0;" edge="1" parent="1" source="TqjajjSFYu0oRNBo3CQ0-34" target="TqjajjSFYu0oRNBo3CQ0-35">
          <mxGeometry relative="1" as="geometry" />
        </mxCell>
        <mxCell id="TqjajjSFYu0oRNBo3CQ0-34" value="แสดง &quot;&lt;font data-font-src=&quot;https://fonts.googleapis.com/css?family=Sarabun&quot; face=&quot;Sarabun&quot;&gt;อเมริกาโน่ 30 บาท&lt;/font&gt;&quot;" style="shape=parallelogram;html=1;strokeWidth=2;perimeter=parallelogramPerimeter;whiteSpace=wrap;rounded=1;arcSize=0;size=0.09375;" vertex="1" parent="1">
          <mxGeometry x="1397.5" y="522.5" width="210" height="40" as="geometry" />
        </mxCell>
        <mxCell id="TqjajjSFYu0oRNBo3CQ0-35" value="แสดง &quot;&lt;font data-font-src=&quot;https://fonts.googleapis.com/css?family=Sarabun&quot; face=&quot;Sarabun&quot;&gt;ลาเต้ หวานเจี๊ยบ 35 บาท&lt;/font&gt;&quot;" style="shape=parallelogram;html=1;strokeWidth=2;perimeter=parallelogramPerimeter;whiteSpace=wrap;rounded=1;arcSize=0;size=0.09375;" vertex="1" parent="1">
          <mxGeometry x="1407.5" y="592.5" width="190" height="40" as="geometry" />
        </mxCell>
        <mxCell id="TqjajjSFYu0oRNBo3CQ0-38" style="edgeStyle=orthogonalEdgeStyle;rounded=0;orthogonalLoop=1;jettySize=auto;html=1;exitX=0.5;exitY=1;exitDx=0;exitDy=0;exitPerimeter=0;" edge="1" parent="1" source="TqjajjSFYu0oRNBo3CQ0-39">
          <mxGeometry relative="1" as="geometry">
            <mxPoint x="1217.4999999999998" y="700" as="targetPoint" />
          </mxGeometry>
        </mxCell>
        <mxCell id="TqjajjSFYu0oRNBo3CQ0-39" value="" style="strokeWidth=2;html=1;shape=mxgraph.flowchart.start_2;whiteSpace=wrap;" vertex="1" parent="1">
          <mxGeometry x="1207.5" y="652.5" width="20" height="20" as="geometry" />
        </mxCell>
        <mxCell id="TqjajjSFYu0oRNBo3CQ0-44" style="edgeStyle=orthogonalEdgeStyle;rounded=0;orthogonalLoop=1;jettySize=auto;html=1;exitX=1;exitY=0.5;exitDx=0;exitDy=0;exitPerimeter=0;entryX=0.5;entryY=0;entryDx=0;entryDy=0;" edge="1" parent="1" source="TqjajjSFYu0oRNBo3CQ0-47">
          <mxGeometry relative="1" as="geometry">
            <mxPoint x="2110" y="337.5" as="targetPoint" />
          </mxGeometry>
        </mxCell>
        <mxCell id="TqjajjSFYu0oRNBo3CQ0-45" value="True" style="edgeLabel;html=1;align=center;verticalAlign=middle;resizable=0;points=[];" vertex="1" connectable="0" parent="TqjajjSFYu0oRNBo3CQ0-44">
          <mxGeometry x="-0.4829" relative="1" as="geometry">
            <mxPoint as="offset" />
          </mxGeometry>
        </mxCell>
        <mxCell id="TqjajjSFYu0oRNBo3CQ0-46" style="edgeStyle=orthogonalEdgeStyle;rounded=0;orthogonalLoop=1;jettySize=auto;html=1;exitX=0.5;exitY=1;exitDx=0;exitDy=0;exitPerimeter=0;" edge="1" parent="1" source="TqjajjSFYu0oRNBo3CQ0-47" target="TqjajjSFYu0oRNBo3CQ0-53">
          <mxGeometry relative="1" as="geometry" />
        </mxCell>
        <mxCell id="TqjajjSFYu0oRNBo3CQ0-47" value="สินค้า ==&amp;nbsp;&lt;font data-font-src=&quot;https://fonts.googleapis.com/css?family=Sarabun&quot; face=&quot;Sarabun&quot; style=&quot;font-size: 14px;&quot;&gt;&quot;&lt;/font&gt;&lt;font style=&quot;font-size: 13px;&quot; data-font-src=&quot;https://fonts.googleapis.com/css?family=Sarabun&quot; face=&quot;Sarabun&quot;&gt;โค้ก&lt;/font&gt;&lt;font data-font-src=&quot;https://fonts.googleapis.com/css?family=Sarabun&quot; face=&quot;Sarabun&quot; style=&quot;font-size: 14px;&quot;&gt;&quot;&lt;/font&gt;&amp;nbsp;?" style="strokeWidth=2;html=1;shape=mxgraph.flowchart.decision;whiteSpace=wrap;" vertex="1" parent="1">
          <mxGeometry x="1855" y="260" width="200" height="70" as="geometry" />
        </mxCell>
        <mxCell id="TqjajjSFYu0oRNBo3CQ0-110" style="edgeStyle=orthogonalEdgeStyle;rounded=0;orthogonalLoop=1;jettySize=auto;html=1;exitX=0.5;exitY=1;exitDx=0;exitDy=0;exitPerimeter=0;entryX=0.5;entryY=0;entryDx=0;entryDy=0;" edge="1" parent="1" target="TqjajjSFYu0oRNBo3CQ0-50">
          <mxGeometry relative="1" as="geometry">
            <mxPoint x="2110" y="410" as="sourcePoint" />
          </mxGeometry>
        </mxCell>
        <mxCell id="TqjajjSFYu0oRNBo3CQ0-143" style="edgeStyle=orthogonalEdgeStyle;rounded=0;orthogonalLoop=1;jettySize=auto;html=1;exitX=1;exitY=0.5;exitDx=0;exitDy=0;exitPerimeter=0;entryX=0.5;entryY=0;entryDx=0;entryDy=0;" edge="1" parent="1" source="TqjajjSFYu0oRNBo3CQ0-49" target="TqjajjSFYu0oRNBo3CQ0-131">
          <mxGeometry relative="1" as="geometry" />
        </mxCell>
        <mxCell id="TqjajjSFYu0oRNBo3CQ0-49" value="มี &quot;โค้ก&quot; เหลืออยู่ไหม ?" style="strokeWidth=2;html=1;shape=mxgraph.flowchart.decision;whiteSpace=wrap;" vertex="1" parent="1">
          <mxGeometry x="2015" y="340" width="200" height="70" as="geometry" />
        </mxCell>
        <mxCell id="TqjajjSFYu0oRNBo3CQ0-142" style="edgeStyle=orthogonalEdgeStyle;rounded=0;orthogonalLoop=1;jettySize=auto;html=1;exitX=1;exitY=0.5;exitDx=0;exitDy=0;" edge="1" parent="1" source="TqjajjSFYu0oRNBo3CQ0-50" target="TqjajjSFYu0oRNBo3CQ0-131">
          <mxGeometry relative="1" as="geometry" />
        </mxCell>
        <mxCell id="TqjajjSFYu0oRNBo3CQ0-50" value="ราคาสินค้า = 10" style="rounded=1;whiteSpace=wrap;html=1;absoluteArcSize=1;arcSize=0;strokeWidth=2;" vertex="1" parent="1">
          <mxGeometry x="2060" y="440" width="100" height="50" as="geometry" />
        </mxCell>
        <mxCell id="TqjajjSFYu0oRNBo3CQ0-51" style="edgeStyle=orthogonalEdgeStyle;rounded=0;orthogonalLoop=1;jettySize=auto;html=1;exitX=1;exitY=0.5;exitDx=0;exitDy=0;exitPerimeter=0;entryX=0.5;entryY=0;entryDx=0;entryDy=0;entryPerimeter=0;" edge="1" parent="1" source="TqjajjSFYu0oRNBo3CQ0-53" target="TqjajjSFYu0oRNBo3CQ0-55">
          <mxGeometry relative="1" as="geometry">
            <mxPoint x="2110" y="567.5" as="targetPoint" />
          </mxGeometry>
        </mxCell>
        <mxCell id="TqjajjSFYu0oRNBo3CQ0-52" value="True" style="edgeLabel;html=1;align=center;verticalAlign=middle;resizable=0;points=[];" vertex="1" connectable="0" parent="TqjajjSFYu0oRNBo3CQ0-51">
          <mxGeometry x="-0.4829" relative="1" as="geometry">
            <mxPoint as="offset" />
          </mxGeometry>
        </mxCell>
        <mxCell id="TqjajjSFYu0oRNBo3CQ0-53" value="สินค้า ==&amp;nbsp;&lt;font data-font-src=&quot;https://fonts.googleapis.com/css?family=Sarabun&quot; face=&quot;Sarabun&quot; style=&quot;font-size: 14px;&quot;&gt;&quot;&lt;/font&gt;&lt;font data-font-src=&quot;https://fonts.googleapis.com/css?family=Sarabun&quot; face=&quot;Sarabun&quot;&gt;น้ำเขียว&lt;/font&gt;&lt;font data-font-src=&quot;https://fonts.googleapis.com/css?family=Sarabun&quot; face=&quot;Sarabun&quot; style=&quot;font-size: 14px;&quot;&gt;&quot;&lt;/font&gt;&amp;nbsp;?" style="strokeWidth=2;html=1;shape=mxgraph.flowchart.decision;whiteSpace=wrap;" vertex="1" parent="1">
          <mxGeometry x="1855" y="490" width="200" height="70" as="geometry" />
        </mxCell>
        <mxCell id="TqjajjSFYu0oRNBo3CQ0-109" style="edgeStyle=orthogonalEdgeStyle;rounded=0;orthogonalLoop=1;jettySize=auto;html=1;exitX=0.5;exitY=1;exitDx=0;exitDy=0;exitPerimeter=0;" edge="1" parent="1" source="TqjajjSFYu0oRNBo3CQ0-55" target="TqjajjSFYu0oRNBo3CQ0-56">
          <mxGeometry relative="1" as="geometry">
            <mxPoint x="2110" y="640" as="sourcePoint" />
          </mxGeometry>
        </mxCell>
        <mxCell id="TqjajjSFYu0oRNBo3CQ0-141" style="edgeStyle=orthogonalEdgeStyle;rounded=0;orthogonalLoop=1;jettySize=auto;html=1;exitX=1;exitY=0.5;exitDx=0;exitDy=0;exitPerimeter=0;entryX=0.5;entryY=0;entryDx=0;entryDy=0;" edge="1" parent="1" source="TqjajjSFYu0oRNBo3CQ0-55" target="TqjajjSFYu0oRNBo3CQ0-131">
          <mxGeometry relative="1" as="geometry" />
        </mxCell>
        <mxCell id="TqjajjSFYu0oRNBo3CQ0-55" value="มี &quot;&lt;font data-font-src=&quot;https://fonts.googleapis.com/css?family=Sarabun&quot; face=&quot;Sarabun&quot;&gt;น้ำเขียว&lt;/font&gt;&lt;font data-font-src=&quot;https://fonts.googleapis.com/css?family=Sarabun&quot; face=&quot;Sarabun&quot; style=&quot;font-size: 14px;&quot;&gt;&lt;/font&gt;&quot; เหลืออยู่ไหม ?" style="strokeWidth=2;html=1;shape=mxgraph.flowchart.decision;whiteSpace=wrap;" vertex="1" parent="1">
          <mxGeometry x="2015" y="570" width="200" height="70" as="geometry" />
        </mxCell>
        <mxCell id="TqjajjSFYu0oRNBo3CQ0-140" style="edgeStyle=orthogonalEdgeStyle;rounded=0;orthogonalLoop=1;jettySize=auto;html=1;exitX=1;exitY=0.5;exitDx=0;exitDy=0;entryX=0.5;entryY=0;entryDx=0;entryDy=0;" edge="1" parent="1" source="TqjajjSFYu0oRNBo3CQ0-56" target="TqjajjSFYu0oRNBo3CQ0-131">
          <mxGeometry relative="1" as="geometry" />
        </mxCell>
        <mxCell id="TqjajjSFYu0oRNBo3CQ0-56" value="ราคาสินค้า = 12" style="rounded=1;whiteSpace=wrap;html=1;absoluteArcSize=1;arcSize=0;strokeWidth=2;" vertex="1" parent="1">
          <mxGeometry x="2065" y="670" width="100" height="50" as="geometry" />
        </mxCell>
        <mxCell id="TqjajjSFYu0oRNBo3CQ0-57" style="edgeStyle=orthogonalEdgeStyle;rounded=0;orthogonalLoop=1;jettySize=auto;html=1;exitX=1;exitY=0.5;exitDx=0;exitDy=0;exitPerimeter=0;entryX=0.5;entryY=0;entryDx=0;entryDy=0;entryPerimeter=0;" edge="1" parent="1" source="TqjajjSFYu0oRNBo3CQ0-60" target="TqjajjSFYu0oRNBo3CQ0-62">
          <mxGeometry relative="1" as="geometry">
            <mxPoint x="2110" y="797.5" as="targetPoint" />
          </mxGeometry>
        </mxCell>
        <mxCell id="TqjajjSFYu0oRNBo3CQ0-58" value="True" style="edgeLabel;html=1;align=center;verticalAlign=middle;resizable=0;points=[];" vertex="1" connectable="0" parent="TqjajjSFYu0oRNBo3CQ0-57">
          <mxGeometry x="-0.4829" relative="1" as="geometry">
            <mxPoint as="offset" />
          </mxGeometry>
        </mxCell>
        <mxCell id="TqjajjSFYu0oRNBo3CQ0-59" style="edgeStyle=orthogonalEdgeStyle;rounded=0;orthogonalLoop=1;jettySize=auto;html=1;exitX=0.5;exitY=1;exitDx=0;exitDy=0;exitPerimeter=0;" edge="1" parent="1" source="TqjajjSFYu0oRNBo3CQ0-60" target="TqjajjSFYu0oRNBo3CQ0-66">
          <mxGeometry relative="1" as="geometry" />
        </mxCell>
        <mxCell id="TqjajjSFYu0oRNBo3CQ0-60" value="สินค้า ==&amp;nbsp;&lt;font data-font-src=&quot;https://fonts.googleapis.com/css?family=Sarabun&quot; face=&quot;Sarabun&quot; style=&quot;font-size: 14px;&quot;&gt;&quot;&lt;/font&gt;&lt;font data-font-src=&quot;https://fonts.googleapis.com/css?family=Sarabun&quot; face=&quot;Sarabun&quot;&gt;อเมริกาโน่&lt;/font&gt;&lt;font data-font-src=&quot;https://fonts.googleapis.com/css?family=Sarabun&quot; face=&quot;Sarabun&quot; style=&quot;font-size: 14px;&quot;&gt;&quot;&lt;/font&gt;&amp;nbsp;?" style="strokeWidth=2;html=1;shape=mxgraph.flowchart.decision;whiteSpace=wrap;" vertex="1" parent="1">
          <mxGeometry x="1855" y="720" width="200" height="70" as="geometry" />
        </mxCell>
        <mxCell id="TqjajjSFYu0oRNBo3CQ0-108" style="edgeStyle=orthogonalEdgeStyle;rounded=0;orthogonalLoop=1;jettySize=auto;html=1;exitX=0.5;exitY=1;exitDx=0;exitDy=0;exitPerimeter=0;entryX=0.5;entryY=0;entryDx=0;entryDy=0;" edge="1" parent="1" source="TqjajjSFYu0oRNBo3CQ0-62" target="TqjajjSFYu0oRNBo3CQ0-63">
          <mxGeometry relative="1" as="geometry">
            <mxPoint x="2110" y="870" as="sourcePoint" />
            <Array as="points">
              <mxPoint x="2115" y="880" />
              <mxPoint x="2115" y="880" />
            </Array>
          </mxGeometry>
        </mxCell>
        <mxCell id="TqjajjSFYu0oRNBo3CQ0-139" style="edgeStyle=orthogonalEdgeStyle;rounded=0;orthogonalLoop=1;jettySize=auto;html=1;exitX=1;exitY=0.5;exitDx=0;exitDy=0;exitPerimeter=0;entryX=0.5;entryY=0;entryDx=0;entryDy=0;" edge="1" parent="1" source="TqjajjSFYu0oRNBo3CQ0-62" target="TqjajjSFYu0oRNBo3CQ0-131">
          <mxGeometry relative="1" as="geometry" />
        </mxCell>
        <mxCell id="TqjajjSFYu0oRNBo3CQ0-62" value="มี &quot;&lt;font data-font-src=&quot;https://fonts.googleapis.com/css?family=Sarabun&quot; face=&quot;Sarabun&quot; style=&quot;font-size: 14px;&quot;&gt;&lt;/font&gt;&lt;font data-font-src=&quot;https://fonts.googleapis.com/css?family=Sarabun&quot; face=&quot;Sarabun&quot;&gt;อเมริกาโน่&lt;/font&gt;&quot; เหลืออยู่ไหม ?" style="strokeWidth=2;html=1;shape=mxgraph.flowchart.decision;whiteSpace=wrap;" vertex="1" parent="1">
          <mxGeometry x="2015" y="800" width="200" height="70" as="geometry" />
        </mxCell>
        <mxCell id="TqjajjSFYu0oRNBo3CQ0-138" style="edgeStyle=orthogonalEdgeStyle;rounded=0;orthogonalLoop=1;jettySize=auto;html=1;exitX=1;exitY=0.5;exitDx=0;exitDy=0;entryX=0.5;entryY=0;entryDx=0;entryDy=0;" edge="1" parent="1" source="TqjajjSFYu0oRNBo3CQ0-63" target="TqjajjSFYu0oRNBo3CQ0-131">
          <mxGeometry relative="1" as="geometry" />
        </mxCell>
        <mxCell id="TqjajjSFYu0oRNBo3CQ0-63" value="ราคาสินค้า = 35" style="rounded=1;whiteSpace=wrap;html=1;absoluteArcSize=1;arcSize=0;strokeWidth=2;" vertex="1" parent="1">
          <mxGeometry x="2065" y="900" width="100" height="50" as="geometry" />
        </mxCell>
        <mxCell id="TqjajjSFYu0oRNBo3CQ0-64" style="edgeStyle=orthogonalEdgeStyle;rounded=0;orthogonalLoop=1;jettySize=auto;html=1;exitX=1;exitY=0.5;exitDx=0;exitDy=0;exitPerimeter=0;entryX=0.5;entryY=0;entryDx=0;entryDy=0;entryPerimeter=0;" edge="1" parent="1" source="TqjajjSFYu0oRNBo3CQ0-66" target="TqjajjSFYu0oRNBo3CQ0-68">
          <mxGeometry relative="1" as="geometry">
            <mxPoint x="2110" y="1027.5" as="targetPoint" />
          </mxGeometry>
        </mxCell>
        <mxCell id="TqjajjSFYu0oRNBo3CQ0-65" value="True" style="edgeLabel;html=1;align=center;verticalAlign=middle;resizable=0;points=[];" vertex="1" connectable="0" parent="TqjajjSFYu0oRNBo3CQ0-64">
          <mxGeometry x="-0.4829" relative="1" as="geometry">
            <mxPoint as="offset" />
          </mxGeometry>
        </mxCell>
        <mxCell id="TqjajjSFYu0oRNBo3CQ0-66" value="สินค้า ==&amp;nbsp;&lt;font data-font-src=&quot;https://fonts.googleapis.com/css?family=Sarabun&quot; face=&quot;Sarabun&quot; style=&quot;font-size: 14px;&quot;&gt;&quot;&lt;/font&gt;&lt;font&gt;ลาเต้ หวานเจี๊ยบ&lt;/font&gt;&lt;font data-font-src=&quot;https://fonts.googleapis.com/css?family=Sarabun&quot; face=&quot;Sarabun&quot; style=&quot;font-size: 14px;&quot;&gt;&quot;&lt;/font&gt;&amp;nbsp;?" style="strokeWidth=2;html=1;shape=mxgraph.flowchart.decision;whiteSpace=wrap;" vertex="1" parent="1">
          <mxGeometry x="1855" y="950" width="200" height="70" as="geometry" />
        </mxCell>
        <mxCell id="TqjajjSFYu0oRNBo3CQ0-67" style="edgeStyle=orthogonalEdgeStyle;rounded=0;orthogonalLoop=1;jettySize=auto;html=1;exitX=0.5;exitY=1;exitDx=0;exitDy=0;exitPerimeter=0;entryX=0.5;entryY=0;entryDx=0;entryDy=0;" edge="1" parent="1" source="TqjajjSFYu0oRNBo3CQ0-68" target="TqjajjSFYu0oRNBo3CQ0-69">
          <mxGeometry relative="1" as="geometry">
            <mxPoint x="2110.222222222222" y="1150" as="targetPoint" />
            <mxPoint x="2110" y="1100" as="sourcePoint" />
          </mxGeometry>
        </mxCell>
        <mxCell id="TqjajjSFYu0oRNBo3CQ0-145" style="edgeStyle=orthogonalEdgeStyle;rounded=0;orthogonalLoop=1;jettySize=auto;html=1;exitX=1;exitY=0.5;exitDx=0;exitDy=0;exitPerimeter=0;entryX=0.5;entryY=0;entryDx=0;entryDy=0;" edge="1" parent="1" source="TqjajjSFYu0oRNBo3CQ0-68" target="TqjajjSFYu0oRNBo3CQ0-131">
          <mxGeometry relative="1" as="geometry" />
        </mxCell>
        <mxCell id="TqjajjSFYu0oRNBo3CQ0-68" value="มี &quot;&lt;font data-font-src=&quot;https://fonts.googleapis.com/css?family=Sarabun&quot; face=&quot;Sarabun&quot; style=&quot;font-size: 14px;&quot;&gt;&lt;/font&gt;&lt;font&gt;ลาเต้ หวานเจี๊ยบ&lt;/font&gt;&lt;font data-font-src=&quot;https://fonts.googleapis.com/css?family=Sarabun&quot; face=&quot;Sarabun&quot; style=&quot;font-size: 14px;&quot;&gt;&quot;&lt;/font&gt;&amp;nbsp;เหลืออยู่ไหม ?" style="strokeWidth=2;html=1;shape=mxgraph.flowchart.decision;whiteSpace=wrap;" vertex="1" parent="1">
          <mxGeometry x="2010" y="1030" width="210" height="70" as="geometry" />
        </mxCell>
        <mxCell id="TqjajjSFYu0oRNBo3CQ0-136" style="edgeStyle=orthogonalEdgeStyle;rounded=0;orthogonalLoop=1;jettySize=auto;html=1;exitX=1;exitY=0.5;exitDx=0;exitDy=0;entryX=0.5;entryY=0;entryDx=0;entryDy=0;" edge="1" parent="1" source="TqjajjSFYu0oRNBo3CQ0-69" target="TqjajjSFYu0oRNBo3CQ0-131">
          <mxGeometry relative="1" as="geometry" />
        </mxCell>
        <mxCell id="TqjajjSFYu0oRNBo3CQ0-69" value="ราคาสินค้า = 35" style="rounded=1;whiteSpace=wrap;html=1;absoluteArcSize=1;arcSize=0;strokeWidth=2;" vertex="1" parent="1">
          <mxGeometry x="2065" y="1150" width="100" height="50" as="geometry" />
        </mxCell>
        <mxCell id="TqjajjSFYu0oRNBo3CQ0-70" style="edgeStyle=orthogonalEdgeStyle;rounded=0;orthogonalLoop=1;jettySize=auto;html=1;exitX=1;exitY=0.5;exitDx=0;exitDy=0;exitPerimeter=0;entryX=0.5;entryY=0;entryDx=0;entryDy=0;entryPerimeter=0;" edge="1" parent="1" source="TqjajjSFYu0oRNBo3CQ0-72" target="TqjajjSFYu0oRNBo3CQ0-74">
          <mxGeometry relative="1" as="geometry">
            <mxPoint x="2110" y="1277.5" as="targetPoint" />
          </mxGeometry>
        </mxCell>
        <mxCell id="TqjajjSFYu0oRNBo3CQ0-71" value="True" style="edgeLabel;html=1;align=center;verticalAlign=middle;resizable=0;points=[];" vertex="1" connectable="0" parent="TqjajjSFYu0oRNBo3CQ0-70">
          <mxGeometry x="-0.4829" relative="1" as="geometry">
            <mxPoint as="offset" />
          </mxGeometry>
        </mxCell>
        <mxCell id="TqjajjSFYu0oRNBo3CQ0-72" value="สินค้า ==&amp;nbsp;&lt;font data-font-src=&quot;https://fonts.googleapis.com/css?family=Sarabun&quot; face=&quot;Sarabun&quot; style=&quot;font-size: 14px;&quot;&gt;&quot;&lt;/font&gt;&lt;font data-font-src=&quot;https://fonts.googleapis.com/css?family=Sarabun&quot; face=&quot;Sarabun&quot;&gt;เมล็ดทานตะวัน&lt;/font&gt;&lt;font data-font-src=&quot;https://fonts.googleapis.com/css?family=Sarabun&quot; face=&quot;Sarabun&quot; style=&quot;font-size: 14px;&quot;&gt;&quot;&lt;/font&gt;&amp;nbsp;?" style="strokeWidth=2;html=1;shape=mxgraph.flowchart.decision;whiteSpace=wrap;" vertex="1" parent="1">
          <mxGeometry x="1855" y="1200" width="200" height="70" as="geometry" />
        </mxCell>
        <mxCell id="TqjajjSFYu0oRNBo3CQ0-73" style="edgeStyle=orthogonalEdgeStyle;rounded=0;orthogonalLoop=1;jettySize=auto;html=1;exitX=0.5;exitY=1;exitDx=0;exitDy=0;exitPerimeter=0;entryX=0.5;entryY=0;entryDx=0;entryDy=0;" edge="1" parent="1" source="TqjajjSFYu0oRNBo3CQ0-74" target="TqjajjSFYu0oRNBo3CQ0-75">
          <mxGeometry relative="1" as="geometry">
            <mxPoint x="2110.222222222222" y="1400" as="targetPoint" />
            <mxPoint x="2110" y="1350" as="sourcePoint" />
          </mxGeometry>
        </mxCell>
        <mxCell id="TqjajjSFYu0oRNBo3CQ0-135" style="edgeStyle=orthogonalEdgeStyle;rounded=0;orthogonalLoop=1;jettySize=auto;html=1;exitX=1;exitY=0.5;exitDx=0;exitDy=0;exitPerimeter=0;entryX=0.5;entryY=0;entryDx=0;entryDy=0;" edge="1" parent="1" source="TqjajjSFYu0oRNBo3CQ0-74" target="TqjajjSFYu0oRNBo3CQ0-131">
          <mxGeometry relative="1" as="geometry">
            <mxPoint x="2320" y="1660" as="targetPoint" />
          </mxGeometry>
        </mxCell>
        <mxCell id="TqjajjSFYu0oRNBo3CQ0-74" value="มี &quot;&lt;font data-font-src=&quot;https://fonts.googleapis.com/css?family=Sarabun&quot; face=&quot;Sarabun&quot;&gt;เมล็ดทานตะวัน&lt;/font&gt;&quot; เหลืออยู่ไหม ?" style="strokeWidth=2;html=1;shape=mxgraph.flowchart.decision;whiteSpace=wrap;" vertex="1" parent="1">
          <mxGeometry x="2015" y="1280" width="200" height="70" as="geometry" />
        </mxCell>
        <mxCell id="TqjajjSFYu0oRNBo3CQ0-134" style="edgeStyle=orthogonalEdgeStyle;rounded=0;orthogonalLoop=1;jettySize=auto;html=1;exitX=1;exitY=0.5;exitDx=0;exitDy=0;entryX=0.5;entryY=0;entryDx=0;entryDy=0;" edge="1" parent="1" source="TqjajjSFYu0oRNBo3CQ0-75" target="TqjajjSFYu0oRNBo3CQ0-131">
          <mxGeometry relative="1" as="geometry" />
        </mxCell>
        <mxCell id="TqjajjSFYu0oRNBo3CQ0-75" value="ราคาสินค้า = 13" style="rounded=1;whiteSpace=wrap;html=1;absoluteArcSize=1;arcSize=0;strokeWidth=2;" vertex="1" parent="1">
          <mxGeometry x="2065" y="1400" width="100" height="50" as="geometry" />
        </mxCell>
        <mxCell id="TqjajjSFYu0oRNBo3CQ0-76" style="edgeStyle=orthogonalEdgeStyle;rounded=0;orthogonalLoop=1;jettySize=auto;html=1;exitX=1;exitY=0.5;exitDx=0;exitDy=0;exitPerimeter=0;entryX=0.5;entryY=0;entryDx=0;entryDy=0;entryPerimeter=0;" edge="1" parent="1" source="TqjajjSFYu0oRNBo3CQ0-78" target="TqjajjSFYu0oRNBo3CQ0-80">
          <mxGeometry relative="1" as="geometry">
            <mxPoint x="2110" y="1527.5" as="targetPoint" />
          </mxGeometry>
        </mxCell>
        <mxCell id="TqjajjSFYu0oRNBo3CQ0-77" value="True" style="edgeLabel;html=1;align=center;verticalAlign=middle;resizable=0;points=[];" vertex="1" connectable="0" parent="TqjajjSFYu0oRNBo3CQ0-76">
          <mxGeometry x="-0.4829" relative="1" as="geometry">
            <mxPoint as="offset" />
          </mxGeometry>
        </mxCell>
        <mxCell id="TqjajjSFYu0oRNBo3CQ0-157" style="edgeStyle=orthogonalEdgeStyle;rounded=0;orthogonalLoop=1;jettySize=auto;html=1;exitX=0.5;exitY=1;exitDx=0;exitDy=0;exitPerimeter=0;" edge="1" parent="1" source="TqjajjSFYu0oRNBo3CQ0-78" target="TqjajjSFYu0oRNBo3CQ0-155">
          <mxGeometry relative="1" as="geometry" />
        </mxCell>
        <mxCell id="TqjajjSFYu0oRNBo3CQ0-78" value="สินค้า ==&amp;nbsp;&lt;font data-font-src=&quot;https://fonts.googleapis.com/css?family=Sarabun&quot; face=&quot;Sarabun&quot; style=&quot;font-size: 14px;&quot;&gt;&quot;&lt;/font&gt;&lt;font data-font-src=&quot;https://fonts.googleapis.com/css?family=Sarabun&quot; face=&quot;Sarabun&quot;&gt;ถั่วแปบ&lt;/font&gt;&lt;font data-font-src=&quot;https://fonts.googleapis.com/css?family=Sarabun&quot; face=&quot;Sarabun&quot; style=&quot;font-size: 14px;&quot;&gt;&quot;&lt;/font&gt;&amp;nbsp;?" style="strokeWidth=2;html=1;shape=mxgraph.flowchart.decision;whiteSpace=wrap;" vertex="1" parent="1">
          <mxGeometry x="1855" y="1450" width="200" height="70" as="geometry" />
        </mxCell>
        <mxCell id="TqjajjSFYu0oRNBo3CQ0-79" style="edgeStyle=orthogonalEdgeStyle;rounded=0;orthogonalLoop=1;jettySize=auto;html=1;exitX=0.5;exitY=1;exitDx=0;exitDy=0;exitPerimeter=0;entryX=0.5;entryY=0;entryDx=0;entryDy=0;" edge="1" parent="1" source="TqjajjSFYu0oRNBo3CQ0-80" target="TqjajjSFYu0oRNBo3CQ0-81">
          <mxGeometry relative="1" as="geometry">
            <mxPoint x="2110.222222222222" y="1650" as="targetPoint" />
            <mxPoint x="2110" y="1600" as="sourcePoint" />
          </mxGeometry>
        </mxCell>
        <mxCell id="TqjajjSFYu0oRNBo3CQ0-133" style="edgeStyle=orthogonalEdgeStyle;rounded=0;orthogonalLoop=1;jettySize=auto;html=1;exitX=1;exitY=0.5;exitDx=0;exitDy=0;exitPerimeter=0;entryX=0.5;entryY=0;entryDx=0;entryDy=0;" edge="1" parent="1" source="TqjajjSFYu0oRNBo3CQ0-80" target="TqjajjSFYu0oRNBo3CQ0-131">
          <mxGeometry relative="1" as="geometry" />
        </mxCell>
        <mxCell id="TqjajjSFYu0oRNBo3CQ0-80" value="มี &quot;&lt;font data-font-src=&quot;https://fonts.googleapis.com/css?family=Sarabun&quot; face=&quot;Sarabun&quot;&gt;ถั่วแปบ&lt;/font&gt;&quot; เหลืออยู่ไหม ?" style="strokeWidth=2;html=1;shape=mxgraph.flowchart.decision;whiteSpace=wrap;" vertex="1" parent="1">
          <mxGeometry x="2015" y="1530" width="200" height="70" as="geometry" />
        </mxCell>
        <mxCell id="TqjajjSFYu0oRNBo3CQ0-132" style="edgeStyle=orthogonalEdgeStyle;rounded=0;orthogonalLoop=1;jettySize=auto;html=1;exitX=1;exitY=0.5;exitDx=0;exitDy=0;entryX=0.5;entryY=0;entryDx=0;entryDy=0;" edge="1" parent="1" source="TqjajjSFYu0oRNBo3CQ0-81" target="TqjajjSFYu0oRNBo3CQ0-131">
          <mxGeometry relative="1" as="geometry">
            <Array as="points">
              <mxPoint x="2325" y="1675" />
            </Array>
          </mxGeometry>
        </mxCell>
        <mxCell id="TqjajjSFYu0oRNBo3CQ0-81" value="ราคาสินค้า = 20" style="rounded=1;whiteSpace=wrap;html=1;absoluteArcSize=1;arcSize=0;strokeWidth=2;" vertex="1" parent="1">
          <mxGeometry x="2065" y="1650" width="100" height="50" as="geometry" />
        </mxCell>
        <mxCell id="TqjajjSFYu0oRNBo3CQ0-83" style="edgeStyle=orthogonalEdgeStyle;rounded=0;orthogonalLoop=1;jettySize=auto;html=1;exitX=0.5;exitY=1;exitDx=0;exitDy=0;exitPerimeter=0;entryX=0.5;entryY=0;entryDx=0;entryDy=0;" edge="1" parent="1" source="TqjajjSFYu0oRNBo3CQ0-84" target="TqjajjSFYu0oRNBo3CQ0-85">
          <mxGeometry relative="1" as="geometry">
            <mxPoint x="1955" y="1920" as="sourcePoint" />
            <mxPoint x="1955" y="1990" as="targetPoint" />
          </mxGeometry>
        </mxCell>
        <mxCell id="TqjajjSFYu0oRNBo3CQ0-159" style="edgeStyle=orthogonalEdgeStyle;rounded=0;orthogonalLoop=1;jettySize=auto;html=1;exitX=1;exitY=0.5;exitDx=0;exitDy=0;exitPerimeter=0;entryX=0.5;entryY=0;entryDx=0;entryDy=0;" edge="1" parent="1" source="TqjajjSFYu0oRNBo3CQ0-84" target="TqjajjSFYu0oRNBo3CQ0-131">
          <mxGeometry relative="1" as="geometry" />
        </mxCell>
        <mxCell id="TqjajjSFYu0oRNBo3CQ0-478" value="False" style="edgeLabel;html=1;align=center;verticalAlign=middle;resizable=0;points=[];" vertex="1" connectable="0" parent="TqjajjSFYu0oRNBo3CQ0-159">
          <mxGeometry x="-0.7027" y="-2" relative="1" as="geometry">
            <mxPoint as="offset" />
          </mxGeometry>
        </mxCell>
        <mxCell id="TqjajjSFYu0oRNBo3CQ0-84" value="มี &quot;&lt;font data-font-src=&quot;https://fonts.googleapis.com/css?family=Sarabun&quot; face=&quot;Sarabun&quot; style=&quot;font-size: 14px;&quot;&gt;&lt;/font&gt;&lt;font data-font-src=&quot;https://fonts.googleapis.com/css?family=Sarabun&quot; face=&quot;Sarabun&quot; style=&quot;font-size: 14px;&quot;&gt;&lt;/font&gt;&lt;font&gt;จิ้นส้มหม&lt;font face=&quot;Sarabun&quot;&gt;ก&lt;/font&gt;&lt;/font&gt;&lt;font data-font-src=&quot;https://fonts.googleapis.com/css?family=Sarabun&quot; face=&quot;Sarabun&quot; style=&quot;font-size: 14px;&quot;&gt;&quot;&lt;/font&gt;&amp;nbsp;เหลืออยู่ไหม ?" style="strokeWidth=2;html=1;shape=mxgraph.flowchart.decision;whiteSpace=wrap;" vertex="1" parent="1">
          <mxGeometry x="1850" y="1850" width="210" height="70" as="geometry" />
        </mxCell>
        <mxCell id="TqjajjSFYu0oRNBo3CQ0-125" style="edgeStyle=orthogonalEdgeStyle;rounded=0;orthogonalLoop=1;jettySize=auto;html=1;exitX=0.5;exitY=1;exitDx=0;exitDy=0;entryX=0.5;entryY=0;entryDx=0;entryDy=0;" edge="1" parent="1" source="TqjajjSFYu0oRNBo3CQ0-85" target="TqjajjSFYu0oRNBo3CQ0-124">
          <mxGeometry relative="1" as="geometry" />
        </mxCell>
        <mxCell id="TqjajjSFYu0oRNBo3CQ0-147" style="edgeStyle=orthogonalEdgeStyle;rounded=0;orthogonalLoop=1;jettySize=auto;html=1;exitX=1;exitY=0.5;exitDx=0;exitDy=0;entryX=0;entryY=0.5;entryDx=0;entryDy=0;" edge="1" parent="1" source="TqjajjSFYu0oRNBo3CQ0-85" target="TqjajjSFYu0oRNBo3CQ0-131">
          <mxGeometry relative="1" as="geometry" />
        </mxCell>
        <mxCell id="TqjajjSFYu0oRNBo3CQ0-85" value="ราคาสินค้า = 15" style="rounded=1;whiteSpace=wrap;html=1;absoluteArcSize=1;arcSize=0;strokeWidth=2;" vertex="1" parent="1">
          <mxGeometry x="1905" y="1990" width="100" height="50" as="geometry" />
        </mxCell>
        <mxCell id="TqjajjSFYu0oRNBo3CQ0-87" style="edgeStyle=orthogonalEdgeStyle;rounded=0;orthogonalLoop=1;jettySize=auto;html=1;exitX=0.5;exitY=1;exitDx=0;exitDy=0;exitPerimeter=0;entryX=0.5;entryY=0;entryDx=0;entryDy=0;entryPerimeter=0;" edge="1" parent="1" source="TqjajjSFYu0oRNBo3CQ0-72" target="TqjajjSFYu0oRNBo3CQ0-78">
          <mxGeometry relative="1" as="geometry">
            <mxPoint x="1977.5" y="1450" as="targetPoint" />
          </mxGeometry>
        </mxCell>
        <mxCell id="TqjajjSFYu0oRNBo3CQ0-88" style="edgeStyle=orthogonalEdgeStyle;rounded=0;orthogonalLoop=1;jettySize=auto;html=1;exitX=0.5;exitY=1;exitDx=0;exitDy=0;exitPerimeter=0;entryX=0.5;entryY=0;entryDx=0;entryDy=0;entryPerimeter=0;" edge="1" parent="1" source="TqjajjSFYu0oRNBo3CQ0-66" target="TqjajjSFYu0oRNBo3CQ0-72">
          <mxGeometry relative="1" as="geometry" />
        </mxCell>
        <mxCell id="TqjajjSFYu0oRNBo3CQ0-89" style="edgeStyle=orthogonalEdgeStyle;rounded=0;orthogonalLoop=1;jettySize=auto;html=1;exitX=0.5;exitY=1;exitDx=0;exitDy=0;exitPerimeter=0;entryX=0.5;entryY=0;entryDx=0;entryDy=0;entryPerimeter=0;" edge="1" parent="1" source="TqjajjSFYu0oRNBo3CQ0-53" target="TqjajjSFYu0oRNBo3CQ0-60">
          <mxGeometry relative="1" as="geometry" />
        </mxCell>
        <mxCell id="TqjajjSFYu0oRNBo3CQ0-93" value="False" style="edgeLabel;html=1;align=center;verticalAlign=middle;resizable=0;points=[];" vertex="1" connectable="0" parent="1">
          <mxGeometry x="1955" y="410" as="geometry" />
        </mxCell>
        <mxCell id="TqjajjSFYu0oRNBo3CQ0-94" value="False" style="edgeLabel;html=1;align=center;verticalAlign=middle;resizable=0;points=[];" vertex="1" connectable="0" parent="1">
          <mxGeometry x="1955" y="1110" as="geometry" />
        </mxCell>
        <mxCell id="TqjajjSFYu0oRNBo3CQ0-95" value="False" style="edgeLabel;html=1;align=center;verticalAlign=middle;resizable=0;points=[];" vertex="1" connectable="0" parent="1">
          <mxGeometry x="1955" y="860" as="geometry" />
        </mxCell>
        <mxCell id="TqjajjSFYu0oRNBo3CQ0-96" value="False" style="edgeLabel;html=1;align=center;verticalAlign=middle;resizable=0;points=[];" vertex="1" connectable="0" parent="1">
          <mxGeometry x="1955" y="1360" as="geometry" />
        </mxCell>
        <mxCell id="TqjajjSFYu0oRNBo3CQ0-97" value="False" style="edgeLabel;html=1;align=center;verticalAlign=middle;resizable=0;points=[];" vertex="1" connectable="0" parent="1">
          <mxGeometry x="1955" y="1620" as="geometry" />
        </mxCell>
        <mxCell id="TqjajjSFYu0oRNBo3CQ0-100" value="True" style="edgeLabel;html=1;align=center;verticalAlign=middle;resizable=0;points=[];" vertex="1" connectable="0" parent="1">
          <mxGeometry x="1960" y="1950" as="geometry" />
        </mxCell>
        <mxCell id="TqjajjSFYu0oRNBo3CQ0-122" style="edgeStyle=orthogonalEdgeStyle;rounded=0;orthogonalLoop=1;jettySize=auto;html=1;exitX=0.5;exitY=1;exitDx=0;exitDy=0;entryX=0.5;entryY=0;entryDx=0;entryDy=0;" edge="1" parent="1" source="TqjajjSFYu0oRNBo3CQ0-102" target="TqjajjSFYu0oRNBo3CQ0-104">
          <mxGeometry relative="1" as="geometry" />
        </mxCell>
        <mxCell id="TqjajjSFYu0oRNBo3CQ0-102" value="แสดง &quot;&lt;font style=&quot;font-size: 11px;&quot; data-font-src=&quot;https://fonts.googleapis.com/css?family=Sarabun&quot; face=&quot;Sarabun&quot;&gt;เมล็ดทานตะวัน 13 บาท&lt;/font&gt;&lt;font data-font-src=&quot;https://fonts.googleapis.com/css?family=Sarabun&quot; face=&quot;Sarabun&quot; style=&quot;font-size: 14px;&quot;&gt;&quot;&lt;/font&gt;" style="shape=parallelogram;html=1;strokeWidth=2;perimeter=parallelogramPerimeter;whiteSpace=wrap;rounded=1;arcSize=0;size=0.09375;" vertex="1" parent="1">
          <mxGeometry x="1127.5" y="420" width="180" height="40" as="geometry" />
        </mxCell>
        <mxCell id="TqjajjSFYu0oRNBo3CQ0-103" value="แสดง &quot;&lt;font data-font-src=&quot;https://fonts.googleapis.com/css?family=Sarabun&quot; face=&quot;Sarabun&quot;&gt;จิ้นส้มหมก 15 บาท&lt;/font&gt;&lt;font data-font-src=&quot;https://fonts.googleapis.com/css?family=Sarabun&quot; face=&quot;Sarabun&quot; style=&quot;font-size: 14px;&quot;&gt;&quot;&lt;/font&gt;" style="shape=parallelogram;html=1;strokeWidth=2;perimeter=parallelogramPerimeter;whiteSpace=wrap;rounded=1;arcSize=0;size=0.09375;" vertex="1" parent="1">
          <mxGeometry x="1127.5" y="560" width="180" height="40" as="geometry" />
        </mxCell>
        <mxCell id="TqjajjSFYu0oRNBo3CQ0-121" style="edgeStyle=orthogonalEdgeStyle;rounded=0;orthogonalLoop=1;jettySize=auto;html=1;exitX=0.5;exitY=1;exitDx=0;exitDy=0;entryX=0.5;entryY=0;entryDx=0;entryDy=0;" edge="1" parent="1" source="TqjajjSFYu0oRNBo3CQ0-104" target="TqjajjSFYu0oRNBo3CQ0-103">
          <mxGeometry relative="1" as="geometry" />
        </mxCell>
        <mxCell id="TqjajjSFYu0oRNBo3CQ0-104" value="แสดง &quot;&lt;font data-font-src=&quot;https://fonts.googleapis.com/css?family=Sarabun&quot; face=&quot;Sarabun&quot;&gt;ถั่วแปบ 20 บาท&lt;/font&gt;&lt;font data-font-src=&quot;https://fonts.googleapis.com/css?family=Sarabun&quot; face=&quot;Sarabun&quot;&gt;&quot;&lt;/font&gt;" style="shape=parallelogram;html=1;strokeWidth=2;perimeter=parallelogramPerimeter;whiteSpace=wrap;rounded=1;arcSize=0;size=0.09375;" vertex="1" parent="1">
          <mxGeometry x="1127.5" y="492.5" width="180" height="40" as="geometry" />
        </mxCell>
        <mxCell id="TqjajjSFYu0oRNBo3CQ0-112" style="edgeStyle=orthogonalEdgeStyle;rounded=0;orthogonalLoop=1;jettySize=auto;html=1;exitX=0.5;exitY=1;exitDx=0;exitDy=0;exitPerimeter=0;entryX=0.5;entryY=0;entryDx=0;entryDy=0;" edge="1" parent="1" source="TqjajjSFYu0oRNBo3CQ0-111" target="TqjajjSFYu0oRNBo3CQ0-23">
          <mxGeometry relative="1" as="geometry" />
        </mxCell>
        <mxCell id="TqjajjSFYu0oRNBo3CQ0-111" value="แสดงสินค้า" style="strokeWidth=2;html=1;shape=mxgraph.flowchart.start_1;whiteSpace=wrap;" vertex="1" parent="1">
          <mxGeometry x="1172.5" y="60" width="100" height="60" as="geometry" />
        </mxCell>
        <mxCell id="TqjajjSFYu0oRNBo3CQ0-117" style="edgeStyle=orthogonalEdgeStyle;rounded=0;orthogonalLoop=1;jettySize=auto;html=1;exitX=0.5;exitY=1;exitDx=0;exitDy=0;entryX=0.5;entryY=0;entryDx=0;entryDy=0;entryPerimeter=0;" edge="1" parent="1" source="TqjajjSFYu0oRNBo3CQ0-103" target="TqjajjSFYu0oRNBo3CQ0-39">
          <mxGeometry relative="1" as="geometry" />
        </mxCell>
        <mxCell id="TqjajjSFYu0oRNBo3CQ0-118" style="edgeStyle=orthogonalEdgeStyle;rounded=0;orthogonalLoop=1;jettySize=auto;html=1;exitX=0.5;exitY=1;exitDx=0;exitDy=0;entryX=1;entryY=0.5;entryDx=0;entryDy=0;entryPerimeter=0;" edge="1" parent="1" source="TqjajjSFYu0oRNBo3CQ0-35" target="TqjajjSFYu0oRNBo3CQ0-39">
          <mxGeometry relative="1" as="geometry" />
        </mxCell>
        <mxCell id="TqjajjSFYu0oRNBo3CQ0-119" value="False" style="edgeLabel;html=1;align=center;verticalAlign=middle;resizable=0;points=[];" vertex="1" connectable="0" parent="1">
          <mxGeometry x="1955" y="640" as="geometry" />
        </mxCell>
        <mxCell id="TqjajjSFYu0oRNBo3CQ0-123" value="End" style="strokeWidth=2;html=1;shape=mxgraph.flowchart.start_1;whiteSpace=wrap;" vertex="1" parent="1">
          <mxGeometry x="1905" y="2140" width="100" height="60" as="geometry" />
        </mxCell>
        <mxCell id="TqjajjSFYu0oRNBo3CQ0-126" style="edgeStyle=orthogonalEdgeStyle;rounded=0;orthogonalLoop=1;jettySize=auto;html=1;exitX=0.5;exitY=1;exitDx=0;exitDy=0;" edge="1" parent="1" source="TqjajjSFYu0oRNBo3CQ0-124" target="TqjajjSFYu0oRNBo3CQ0-123">
          <mxGeometry relative="1" as="geometry" />
        </mxCell>
        <mxCell id="TqjajjSFYu0oRNBo3CQ0-124" value="" style="ellipse;whiteSpace=wrap;html=1;aspect=fixed;" vertex="1" parent="1">
          <mxGeometry x="1945" y="2080" width="20" height="20" as="geometry" />
        </mxCell>
        <mxCell id="TqjajjSFYu0oRNBo3CQ0-144" style="edgeStyle=orthogonalEdgeStyle;rounded=0;orthogonalLoop=1;jettySize=auto;html=1;exitX=0.5;exitY=1;exitDx=0;exitDy=0;entryX=1;entryY=0.5;entryDx=0;entryDy=0;" edge="1" parent="1" source="TqjajjSFYu0oRNBo3CQ0-131" target="TqjajjSFYu0oRNBo3CQ0-124">
          <mxGeometry relative="1" as="geometry" />
        </mxCell>
        <mxCell id="TqjajjSFYu0oRNBo3CQ0-131" value="" style="ellipse;whiteSpace=wrap;html=1;aspect=fixed;" vertex="1" parent="1">
          <mxGeometry x="2310" y="2000" width="30" height="30" as="geometry" />
        </mxCell>
        <mxCell id="TqjajjSFYu0oRNBo3CQ0-150" style="edgeStyle=orthogonalEdgeStyle;rounded=0;orthogonalLoop=1;jettySize=auto;html=1;exitX=0.5;exitY=1;exitDx=0;exitDy=0;entryX=0.5;entryY=0;entryDx=0;entryDy=0;" edge="1" parent="1" source="TqjajjSFYu0oRNBo3CQ0-148" target="TqjajjSFYu0oRNBo3CQ0-149">
          <mxGeometry relative="1" as="geometry" />
        </mxCell>
        <mxCell id="TqjajjSFYu0oRNBo3CQ0-148" value="สินค้า = &quot;&quot;" style="whiteSpace=wrap;html=1;rounded=1;absoluteArcSize=1;arcSize=0;strokeWidth=2;" vertex="1" parent="1">
          <mxGeometry x="340" y="820" width="170" height="45" as="geometry" />
        </mxCell>
        <mxCell id="TqjajjSFYu0oRNBo3CQ0-153" style="edgeStyle=orthogonalEdgeStyle;rounded=0;orthogonalLoop=1;jettySize=auto;html=1;exitX=0.5;exitY=1;exitDx=0;exitDy=0;" edge="1" parent="1" source="TqjajjSFYu0oRNBo3CQ0-149" target="TqjajjSFYu0oRNBo3CQ0-152">
          <mxGeometry relative="1" as="geometry" />
        </mxCell>
        <mxCell id="TqjajjSFYu0oRNBo3CQ0-149" value="ราคาสินค้า = 0" style="whiteSpace=wrap;html=1;rounded=1;absoluteArcSize=1;arcSize=0;strokeWidth=2;" vertex="1" parent="1">
          <mxGeometry x="340" y="897.5" width="170" height="45" as="geometry" />
        </mxCell>
        <mxCell id="TqjajjSFYu0oRNBo3CQ0-161" style="edgeStyle=orthogonalEdgeStyle;rounded=0;orthogonalLoop=1;jettySize=auto;html=1;exitX=0.5;exitY=1;exitDx=0;exitDy=0;entryX=0.5;entryY=0;entryDx=0;entryDy=0;" edge="1" parent="1" source="TqjajjSFYu0oRNBo3CQ0-152" target="TqjajjSFYu0oRNBo3CQ0-154">
          <mxGeometry relative="1" as="geometry" />
        </mxCell>
        <mxCell id="TqjajjSFYu0oRNBo3CQ0-152" value="เลือกสินค้า" style="shape=process;whiteSpace=wrap;html=1;backgroundOutline=1;" vertex="1" parent="1">
          <mxGeometry x="365" y="980" width="120" height="40" as="geometry" />
        </mxCell>
        <mxCell id="TqjajjSFYu0oRNBo3CQ0-464" style="edgeStyle=orthogonalEdgeStyle;rounded=0;orthogonalLoop=1;jettySize=auto;html=1;exitX=1;exitY=0.5;exitDx=0;exitDy=0;entryX=0.5;entryY=0;entryDx=0;entryDy=0;" edge="1" parent="1" source="TqjajjSFYu0oRNBo3CQ0-154" target="TqjajjSFYu0oRNBo3CQ0-461">
          <mxGeometry relative="1" as="geometry" />
        </mxCell>
        <mxCell id="TqjajjSFYu0oRNBo3CQ0-466" value="True" style="edgeLabel;html=1;align=center;verticalAlign=middle;resizable=0;points=[];" vertex="1" connectable="0" parent="TqjajjSFYu0oRNBo3CQ0-464">
          <mxGeometry x="-0.8558" y="-2" relative="1" as="geometry">
            <mxPoint x="28" y="-2" as="offset" />
          </mxGeometry>
        </mxCell>
        <mxCell id="TqjajjSFYu0oRNBo3CQ0-154" value="ราคาสินค้า == 0 ?" style="rhombus;whiteSpace=wrap;html=1;" vertex="1" parent="1">
          <mxGeometry x="348" y="1050" width="155" height="80" as="geometry" />
        </mxCell>
        <mxCell id="TqjajjSFYu0oRNBo3CQ0-160" style="edgeStyle=orthogonalEdgeStyle;rounded=0;orthogonalLoop=1;jettySize=auto;html=1;exitX=1;exitY=0.5;exitDx=0;exitDy=0;exitPerimeter=0;entryX=0.5;entryY=0;entryDx=0;entryDy=0;" edge="1" parent="1" source="TqjajjSFYu0oRNBo3CQ0-155" target="TqjajjSFYu0oRNBo3CQ0-131">
          <mxGeometry relative="1" as="geometry">
            <mxPoint x="2340" y="1950" as="targetPoint" />
          </mxGeometry>
        </mxCell>
        <mxCell id="TqjajjSFYu0oRNBo3CQ0-155" value="สินค้า ==&amp;nbsp;&lt;font data-font-src=&quot;https://fonts.googleapis.com/css?family=Sarabun&quot; face=&quot;Sarabun&quot; style=&quot;font-size: 14px;&quot;&gt;&quot;&lt;/font&gt;&lt;font&gt;จิ้นส้มหม&lt;font face=&quot;Sarabun&quot;&gt;ก&lt;/font&gt;&lt;/font&gt;&lt;font data-font-src=&quot;https://fonts.googleapis.com/css?family=Sarabun&quot; face=&quot;Sarabun&quot; style=&quot;font-size: 14px;&quot;&gt;&quot;&lt;/font&gt;&amp;nbsp;?" style="strokeWidth=2;html=1;shape=mxgraph.flowchart.decision;whiteSpace=wrap;" vertex="1" parent="1">
          <mxGeometry x="1855" y="1700" width="200" height="70" as="geometry" />
        </mxCell>
        <mxCell id="TqjajjSFYu0oRNBo3CQ0-158" style="edgeStyle=orthogonalEdgeStyle;rounded=0;orthogonalLoop=1;jettySize=auto;html=1;exitX=0.5;exitY=1;exitDx=0;exitDy=0;exitPerimeter=0;entryX=0.5;entryY=0;entryDx=0;entryDy=0;entryPerimeter=0;" edge="1" parent="1" source="TqjajjSFYu0oRNBo3CQ0-155" target="TqjajjSFYu0oRNBo3CQ0-84">
          <mxGeometry relative="1" as="geometry" />
        </mxCell>
        <mxCell id="TqjajjSFYu0oRNBo3CQ0-477" value="True" style="edgeLabel;html=1;align=center;verticalAlign=middle;resizable=0;points=[];" vertex="1" connectable="0" parent="TqjajjSFYu0oRNBo3CQ0-158">
          <mxGeometry x="-0.1342" y="-1" relative="1" as="geometry">
            <mxPoint as="offset" />
          </mxGeometry>
        </mxCell>
        <mxCell id="TqjajjSFYu0oRNBo3CQ0-162" style="edgeStyle=orthogonalEdgeStyle;rounded=0;orthogonalLoop=1;jettySize=auto;html=1;exitX=0.5;exitY=1;exitDx=0;exitDy=0;" edge="1" parent="1" source="TqjajjSFYu0oRNBo3CQ0-163" target="TqjajjSFYu0oRNBo3CQ0-165">
          <mxGeometry relative="1" as="geometry" />
        </mxCell>
        <mxCell id="TqjajjSFYu0oRNBo3CQ0-163" value="แสดง &quot;คุณเลือก &quot; + สินค้า + &quot; ใช่หรือไม่ ?&quot;" style="shape=parallelogram;perimeter=parallelogramPerimeter;whiteSpace=wrap;html=1;fixedSize=1;" vertex="1" parent="1">
          <mxGeometry x="303" y="1160" width="245" height="60" as="geometry" />
        </mxCell>
        <mxCell id="TqjajjSFYu0oRNBo3CQ0-164" style="edgeStyle=orthogonalEdgeStyle;rounded=0;orthogonalLoop=1;jettySize=auto;html=1;exitX=0.5;exitY=1;exitDx=0;exitDy=0;entryX=0.5;entryY=0;entryDx=0;entryDy=0;" edge="1" parent="1" source="TqjajjSFYu0oRNBo3CQ0-165" target="TqjajjSFYu0oRNBo3CQ0-166">
          <mxGeometry relative="1" as="geometry" />
        </mxCell>
        <mxCell id="TqjajjSFYu0oRNBo3CQ0-165" value="รับ การยอมรับ" style="shape=parallelogram;perimeter=parallelogramPerimeter;whiteSpace=wrap;html=1;fixedSize=1;" vertex="1" parent="1">
          <mxGeometry x="335.5" y="1250" width="180" height="60" as="geometry" />
        </mxCell>
        <mxCell id="TqjajjSFYu0oRNBo3CQ0-180" style="edgeStyle=orthogonalEdgeStyle;rounded=0;orthogonalLoop=1;jettySize=auto;html=1;exitX=0.5;exitY=1;exitDx=0;exitDy=0;entryX=0.5;entryY=0;entryDx=0;entryDy=0;" edge="1" parent="1" source="TqjajjSFYu0oRNBo3CQ0-166" target="TqjajjSFYu0oRNBo3CQ0-179">
          <mxGeometry relative="1" as="geometry" />
        </mxCell>
        <mxCell id="TqjajjSFYu0oRNBo3CQ0-471" value="False" style="edgeLabel;html=1;align=center;verticalAlign=middle;resizable=0;points=[];" vertex="1" connectable="0" parent="TqjajjSFYu0oRNBo3CQ0-180">
          <mxGeometry x="-0.303" relative="1" as="geometry">
            <mxPoint as="offset" />
          </mxGeometry>
        </mxCell>
        <mxCell id="TqjajjSFYu0oRNBo3CQ0-465" style="edgeStyle=orthogonalEdgeStyle;rounded=0;orthogonalLoop=1;jettySize=auto;html=1;exitX=1;exitY=0.5;exitDx=0;exitDy=0;entryX=0.5;entryY=0;entryDx=0;entryDy=0;" edge="1" parent="1" source="TqjajjSFYu0oRNBo3CQ0-166" target="TqjajjSFYu0oRNBo3CQ0-461">
          <mxGeometry relative="1" as="geometry" />
        </mxCell>
        <mxCell id="TqjajjSFYu0oRNBo3CQ0-470" value="True" style="edgeLabel;html=1;align=center;verticalAlign=middle;resizable=0;points=[];" vertex="1" connectable="0" parent="TqjajjSFYu0oRNBo3CQ0-465">
          <mxGeometry x="-0.8054" y="-4" relative="1" as="geometry">
            <mxPoint x="-6" y="-4" as="offset" />
          </mxGeometry>
        </mxCell>
        <mxCell id="TqjajjSFYu0oRNBo3CQ0-166" value="การยอมรับ == false ?" style="rhombus;whiteSpace=wrap;html=1;" vertex="1" parent="1">
          <mxGeometry x="320.5" y="1350" width="210" height="80" as="geometry" />
        </mxCell>
        <mxCell id="TqjajjSFYu0oRNBo3CQ0-167" style="edgeStyle=orthogonalEdgeStyle;rounded=0;orthogonalLoop=1;jettySize=auto;html=1;exitX=0.5;exitY=1;exitDx=0;exitDy=0;exitPerimeter=0;entryX=0.5;entryY=0;entryDx=0;entryDy=0;" edge="1" parent="1" target="TqjajjSFYu0oRNBo3CQ0-163">
          <mxGeometry relative="1" as="geometry">
            <mxPoint x="425.5" y="1130" as="sourcePoint" />
          </mxGeometry>
        </mxCell>
        <mxCell id="TqjajjSFYu0oRNBo3CQ0-467" value="False" style="edgeLabel;html=1;align=center;verticalAlign=middle;resizable=0;points=[];" vertex="1" connectable="0" parent="TqjajjSFYu0oRNBo3CQ0-167">
          <mxGeometry x="-0.1212" y="1" relative="1" as="geometry">
            <mxPoint as="offset" />
          </mxGeometry>
        </mxCell>
        <mxCell id="TqjajjSFYu0oRNBo3CQ0-168" value="End" style="strokeWidth=2;html=1;shape=mxgraph.flowchart.start_1;whiteSpace=wrap;" vertex="1" parent="1">
          <mxGeometry x="1167.5" y="700" width="100" height="60" as="geometry" />
        </mxCell>
        <mxCell id="TqjajjSFYu0oRNBo3CQ0-170" style="edgeStyle=orthogonalEdgeStyle;rounded=0;orthogonalLoop=1;jettySize=auto;html=1;exitX=0.5;exitY=1;exitDx=0;exitDy=0;" edge="1" parent="1" source="TqjajjSFYu0oRNBo3CQ0-169" target="TqjajjSFYu0oRNBo3CQ0-148">
          <mxGeometry relative="1" as="geometry" />
        </mxCell>
        <mxCell id="TqjajjSFYu0oRNBo3CQ0-169" value="แสดงสินค้า" style="shape=process;whiteSpace=wrap;html=1;backgroundOutline=1;" vertex="1" parent="1">
          <mxGeometry x="365" y="750" width="120" height="40" as="geometry" />
        </mxCell>
        <mxCell id="TqjajjSFYu0oRNBo3CQ0-177" style="edgeStyle=orthogonalEdgeStyle;rounded=0;orthogonalLoop=1;jettySize=auto;html=1;exitX=0.5;exitY=1;exitDx=0;exitDy=0;exitPerimeter=0;" edge="1" parent="1" source="TqjajjSFYu0oRNBo3CQ0-172" target="TqjajjSFYu0oRNBo3CQ0-176">
          <mxGeometry relative="1" as="geometry" />
        </mxCell>
        <mxCell id="TqjajjSFYu0oRNBo3CQ0-172" value="เลือกสินค้า" style="strokeWidth=2;html=1;shape=mxgraph.flowchart.start_1;whiteSpace=wrap;" vertex="1" parent="1">
          <mxGeometry x="1905" y="60" width="100" height="60" as="geometry" />
        </mxCell>
        <mxCell id="TqjajjSFYu0oRNBo3CQ0-176" value="รับ สินค้า" style="shape=parallelogram;html=1;strokeWidth=2;perimeter=parallelogramPerimeter;whiteSpace=wrap;rounded=1;arcSize=0;size=0.09375;" vertex="1" parent="1">
          <mxGeometry x="1865" y="170" width="180" height="40" as="geometry" />
        </mxCell>
        <mxCell id="TqjajjSFYu0oRNBo3CQ0-178" style="edgeStyle=orthogonalEdgeStyle;rounded=0;orthogonalLoop=1;jettySize=auto;html=1;exitX=0.5;exitY=1;exitDx=0;exitDy=0;entryX=0.5;entryY=0;entryDx=0;entryDy=0;entryPerimeter=0;" edge="1" parent="1" source="TqjajjSFYu0oRNBo3CQ0-176" target="TqjajjSFYu0oRNBo3CQ0-47">
          <mxGeometry relative="1" as="geometry" />
        </mxCell>
        <mxCell id="TqjajjSFYu0oRNBo3CQ0-179" value="เงินรวม = 0" style="rounded=1;whiteSpace=wrap;html=1;absoluteArcSize=1;arcSize=0;strokeWidth=2;" vertex="1" parent="1">
          <mxGeometry x="375.5" y="1460" width="100" height="40" as="geometry" />
        </mxCell>
        <mxCell id="TqjajjSFYu0oRNBo3CQ0-181" style="edgeStyle=orthogonalEdgeStyle;rounded=0;orthogonalLoop=1;jettySize=auto;html=1;exitX=0.5;exitY=1;exitDx=0;exitDy=0;entryX=0.5;entryY=0;entryDx=0;entryDy=0;" edge="1" parent="1" source="TqjajjSFYu0oRNBo3CQ0-182" target="TqjajjSFYu0oRNBo3CQ0-184">
          <mxGeometry relative="1" as="geometry" />
        </mxCell>
        <mxCell id="TqjajjSFYu0oRNBo3CQ0-182" value="แสดง &quot;ราคาสินค้า: &quot; + ราคาสินค้า" style="shape=parallelogram;perimeter=parallelogramPerimeter;whiteSpace=wrap;html=1;fixedSize=1;" vertex="1" parent="1">
          <mxGeometry x="295" y="1590" width="260" height="60" as="geometry" />
        </mxCell>
        <mxCell id="TqjajjSFYu0oRNBo3CQ0-183" style="edgeStyle=orthogonalEdgeStyle;rounded=0;orthogonalLoop=1;jettySize=auto;html=1;exitX=0.5;exitY=1;exitDx=0;exitDy=0;" edge="1" parent="1" source="TqjajjSFYu0oRNBo3CQ0-184" target="TqjajjSFYu0oRNBo3CQ0-186">
          <mxGeometry relative="1" as="geometry" />
        </mxCell>
        <mxCell id="TqjajjSFYu0oRNBo3CQ0-184" value="แสดง &quot;เงินที่ได้รับ: &quot; + เงินรวม" style="shape=parallelogram;perimeter=parallelogramPerimeter;whiteSpace=wrap;html=1;fixedSize=1;" vertex="1" parent="1">
          <mxGeometry x="295" y="1680" width="260" height="60" as="geometry" />
        </mxCell>
        <mxCell id="TqjajjSFYu0oRNBo3CQ0-185" style="edgeStyle=orthogonalEdgeStyle;rounded=0;orthogonalLoop=1;jettySize=auto;html=1;exitX=0.5;exitY=1;exitDx=0;exitDy=0;entryX=0.5;entryY=0;entryDx=0;entryDy=0;" edge="1" parent="1" source="TqjajjSFYu0oRNBo3CQ0-186" target="TqjajjSFYu0oRNBo3CQ0-190">
          <mxGeometry relative="1" as="geometry" />
        </mxCell>
        <mxCell id="TqjajjSFYu0oRNBo3CQ0-186" value="แสดง &quot;ต้องจ่ายอีก: &quot; + (ราคาสินค้า - เงินที่ได้รับ)" style="shape=parallelogram;perimeter=parallelogramPerimeter;whiteSpace=wrap;html=1;fixedSize=1;" vertex="1" parent="1">
          <mxGeometry x="295" y="1770" width="260" height="60" as="geometry" />
        </mxCell>
        <mxCell id="TqjajjSFYu0oRNBo3CQ0-187" style="edgeStyle=orthogonalEdgeStyle;rounded=0;orthogonalLoop=1;jettySize=auto;html=1;exitX=0.5;exitY=1;exitDx=0;exitDy=0;exitPerimeter=0;entryX=0.5;entryY=0;entryDx=0;entryDy=0;" edge="1" parent="1" source="TqjajjSFYu0oRNBo3CQ0-188" target="TqjajjSFYu0oRNBo3CQ0-182">
          <mxGeometry relative="1" as="geometry" />
        </mxCell>
        <mxCell id="TqjajjSFYu0oRNBo3CQ0-188" value="" style="strokeWidth=2;html=1;shape=mxgraph.flowchart.start_2;whiteSpace=wrap;" vertex="1" parent="1">
          <mxGeometry x="415" y="1530" width="20" height="20" as="geometry" />
        </mxCell>
        <mxCell id="TqjajjSFYu0oRNBo3CQ0-189" style="edgeStyle=orthogonalEdgeStyle;rounded=0;orthogonalLoop=1;jettySize=auto;html=1;exitX=0.5;exitY=1;exitDx=0;exitDy=0;entryX=0.5;entryY=0;entryDx=0;entryDy=0;" edge="1" parent="1" source="TqjajjSFYu0oRNBo3CQ0-190" target="TqjajjSFYu0oRNBo3CQ0-194">
          <mxGeometry relative="1" as="geometry" />
        </mxCell>
        <mxCell id="TqjajjSFYu0oRNBo3CQ0-190" value="รับ เงินที่ได้รับ" style="shape=parallelogram;perimeter=parallelogramPerimeter;whiteSpace=wrap;html=1;fixedSize=1;" vertex="1" parent="1">
          <mxGeometry x="295" y="1860" width="260" height="60" as="geometry" />
        </mxCell>
        <mxCell id="TqjajjSFYu0oRNBo3CQ0-191" style="edgeStyle=orthogonalEdgeStyle;rounded=0;orthogonalLoop=1;jettySize=auto;html=1;exitX=0.5;exitY=1;exitDx=0;exitDy=0;entryX=0.5;entryY=0;entryDx=0;entryDy=0;" edge="1" parent="1" source="TqjajjSFYu0oRNBo3CQ0-192" target="TqjajjSFYu0oRNBo3CQ0-195">
          <mxGeometry relative="1" as="geometry" />
        </mxCell>
        <mxCell id="TqjajjSFYu0oRNBo3CQ0-192" value="อัพเดตเงินในระบบ" style="verticalLabelPosition=middle;verticalAlign=middle;html=1;shape=process;whiteSpace=wrap;rounded=1;size=0.06666666666666667;arcSize=0;labelPosition=center;align=center;" vertex="1" parent="1">
          <mxGeometry x="350" y="2030" width="150" height="60" as="geometry" />
        </mxCell>
        <mxCell id="TqjajjSFYu0oRNBo3CQ0-193" style="edgeStyle=orthogonalEdgeStyle;rounded=0;orthogonalLoop=1;jettySize=auto;html=1;exitX=0.5;exitY=1;exitDx=0;exitDy=0;" edge="1" parent="1" source="TqjajjSFYu0oRNBo3CQ0-194" target="TqjajjSFYu0oRNBo3CQ0-192">
          <mxGeometry relative="1" as="geometry" />
        </mxCell>
        <mxCell id="TqjajjSFYu0oRNBo3CQ0-194" value="เงินที่อัพเดต = เงินที่ได้รับ" style="rounded=1;whiteSpace=wrap;html=1;absoluteArcSize=1;arcSize=0;strokeWidth=2;" vertex="1" parent="1">
          <mxGeometry x="354.25" y="1970" width="142.5" height="40" as="geometry" />
        </mxCell>
        <mxCell id="TqjajjSFYu0oRNBo3CQ0-195" value="เงินทอน =&amp;nbsp; เงินที่ได้รับ -&amp;nbsp;ราคาสินค้า" style="rounded=1;whiteSpace=wrap;html=1;absoluteArcSize=1;arcSize=0;strokeWidth=2;" vertex="1" parent="1">
          <mxGeometry x="320.5" y="2120" width="210" height="40" as="geometry" />
        </mxCell>
        <mxCell id="TqjajjSFYu0oRNBo3CQ0-196" value="เงินทอน &amp;lt; 0 ?" style="strokeWidth=2;html=1;shape=mxgraph.flowchart.decision;whiteSpace=wrap;" vertex="1" parent="1">
          <mxGeometry x="360.5" y="2190" width="130" height="70" as="geometry" />
        </mxCell>
        <mxCell id="TqjajjSFYu0oRNBo3CQ0-197" style="edgeStyle=orthogonalEdgeStyle;rounded=0;orthogonalLoop=1;jettySize=auto;html=1;exitX=0.5;exitY=1;exitDx=0;exitDy=0;entryX=0.5;entryY=0;entryDx=0;entryDy=0;entryPerimeter=0;" edge="1" parent="1" source="TqjajjSFYu0oRNBo3CQ0-195" target="TqjajjSFYu0oRNBo3CQ0-196">
          <mxGeometry relative="1" as="geometry" />
        </mxCell>
        <mxCell id="TqjajjSFYu0oRNBo3CQ0-198" style="edgeStyle=orthogonalEdgeStyle;rounded=0;orthogonalLoop=1;jettySize=auto;html=1;exitX=0.5;exitY=1;exitDx=0;exitDy=0;exitPerimeter=0;entryX=0.5;entryY=0;entryDx=0;entryDy=0;" edge="1" parent="1" source="TqjajjSFYu0oRNBo3CQ0-199" target="TqjajjSFYu0oRNBo3CQ0-202">
          <mxGeometry relative="1" as="geometry" />
        </mxCell>
        <mxCell id="TqjajjSFYu0oRNBo3CQ0-462" style="edgeStyle=orthogonalEdgeStyle;rounded=0;orthogonalLoop=1;jettySize=auto;html=1;exitX=1;exitY=0.5;exitDx=0;exitDy=0;exitPerimeter=0;entryX=0;entryY=0.5;entryDx=0;entryDy=0;" edge="1" parent="1" source="TqjajjSFYu0oRNBo3CQ0-199" target="TqjajjSFYu0oRNBo3CQ0-461">
          <mxGeometry relative="1" as="geometry" />
        </mxCell>
        <mxCell id="TqjajjSFYu0oRNBo3CQ0-199" value="เงินทอน == 0 ?" style="strokeWidth=2;html=1;shape=mxgraph.flowchart.decision;whiteSpace=wrap;" vertex="1" parent="1">
          <mxGeometry x="360.5" y="2290" width="130" height="70" as="geometry" />
        </mxCell>
        <mxCell id="TqjajjSFYu0oRNBo3CQ0-200" style="edgeStyle=orthogonalEdgeStyle;rounded=0;orthogonalLoop=1;jettySize=auto;html=1;exitX=1;exitY=0.5;exitDx=0;exitDy=0;exitPerimeter=0;entryX=1;entryY=0.5;entryDx=0;entryDy=0;entryPerimeter=0;" edge="1" parent="1" source="TqjajjSFYu0oRNBo3CQ0-196" target="TqjajjSFYu0oRNBo3CQ0-188">
          <mxGeometry relative="1" as="geometry">
            <Array as="points">
              <mxPoint x="640" y="2225" />
              <mxPoint x="640" y="1540" />
            </Array>
            <mxPoint x="500" y="2225" as="sourcePoint" />
            <mxPoint x="440" y="1540" as="targetPoint" />
          </mxGeometry>
        </mxCell>
        <mxCell id="TqjajjSFYu0oRNBo3CQ0-201" style="edgeStyle=orthogonalEdgeStyle;rounded=0;orthogonalLoop=1;jettySize=auto;html=1;exitX=0.5;exitY=1;exitDx=0;exitDy=0;exitPerimeter=0;entryX=0.5;entryY=0;entryDx=0;entryDy=0;entryPerimeter=0;" edge="1" parent="1" source="TqjajjSFYu0oRNBo3CQ0-196" target="TqjajjSFYu0oRNBo3CQ0-199">
          <mxGeometry relative="1" as="geometry" />
        </mxCell>
        <mxCell id="TqjajjSFYu0oRNBo3CQ0-358" style="edgeStyle=orthogonalEdgeStyle;rounded=0;orthogonalLoop=1;jettySize=auto;html=1;exitX=0.5;exitY=1;exitDx=0;exitDy=0;" edge="1" parent="1" source="TqjajjSFYu0oRNBo3CQ0-202" target="TqjajjSFYu0oRNBo3CQ0-357">
          <mxGeometry relative="1" as="geometry" />
        </mxCell>
        <mxCell id="TqjajjSFYu0oRNBo3CQ0-202" value="แสดง &quot;เงินทอน: &quot; + เงินทอน" style="shape=parallelogram;perimeter=parallelogramPerimeter;whiteSpace=wrap;html=1;fixedSize=1;" vertex="1" parent="1">
          <mxGeometry x="295" y="2390" width="260" height="60" as="geometry" />
        </mxCell>
        <mxCell id="TqjajjSFYu0oRNBo3CQ0-203" value="False" style="edgeLabel;html=1;align=center;verticalAlign=middle;resizable=0;points=[];" vertex="1" connectable="0" parent="1">
          <mxGeometry x="425" y="2270" as="geometry" />
        </mxCell>
        <mxCell id="TqjajjSFYu0oRNBo3CQ0-205" value="True" style="edgeLabel;html=1;align=center;verticalAlign=middle;resizable=0;points=[];" vertex="1" connectable="0" parent="1">
          <mxGeometry x="570" y="2225" as="geometry" />
        </mxCell>
        <mxCell id="TqjajjSFYu0oRNBo3CQ0-206" value="False" style="edgeLabel;html=1;align=center;verticalAlign=middle;resizable=0;points=[];" vertex="1" connectable="0" parent="1">
          <mxGeometry x="425" y="2370" as="geometry" />
        </mxCell>
        <mxCell id="TqjajjSFYu0oRNBo3CQ0-207" style="edgeStyle=orthogonalEdgeStyle;rounded=0;orthogonalLoop=1;jettySize=auto;html=1;exitX=0.5;exitY=1;exitDx=0;exitDy=0;entryX=0.5;entryY=0;entryDx=0;entryDy=0;entryPerimeter=0;" edge="1" parent="1" source="TqjajjSFYu0oRNBo3CQ0-179" target="TqjajjSFYu0oRNBo3CQ0-188">
          <mxGeometry relative="1" as="geometry" />
        </mxCell>
        <mxCell id="TqjajjSFYu0oRNBo3CQ0-208" style="edgeStyle=orthogonalEdgeStyle;rounded=0;orthogonalLoop=1;jettySize=auto;html=1;exitX=1;exitY=0.5;exitDx=0;exitDy=0;exitPerimeter=0;entryX=0.5;entryY=0;entryDx=0;entryDy=0;" edge="1" parent="1" source="TqjajjSFYu0oRNBo3CQ0-210" target="TqjajjSFYu0oRNBo3CQ0-214">
          <mxGeometry relative="1" as="geometry" />
        </mxCell>
        <mxCell id="TqjajjSFYu0oRNBo3CQ0-209" style="edgeStyle=orthogonalEdgeStyle;rounded=0;orthogonalLoop=1;jettySize=auto;html=1;exitX=0.5;exitY=1;exitDx=0;exitDy=0;exitPerimeter=0;entryX=0.5;entryY=0;entryDx=0;entryDy=0;" edge="1" parent="1" source="TqjajjSFYu0oRNBo3CQ0-210" target="TqjajjSFYu0oRNBo3CQ0-217">
          <mxGeometry relative="1" as="geometry" />
        </mxCell>
        <mxCell id="TqjajjSFYu0oRNBo3CQ0-210" value="เงินทอน -&amp;nbsp;(เงินทอน % 500) &amp;gt; 0 ?" style="strokeWidth=2;html=1;shape=mxgraph.flowchart.decision;whiteSpace=wrap;" vertex="1" parent="1">
          <mxGeometry x="3315" y="160" width="250" height="70" as="geometry" />
        </mxCell>
        <mxCell id="TqjajjSFYu0oRNBo3CQ0-211" style="edgeStyle=orthogonalEdgeStyle;rounded=0;orthogonalLoop=1;jettySize=auto;html=1;exitX=0.5;exitY=1;exitDx=0;exitDy=0;exitPerimeter=0;entryX=0.5;entryY=0;entryDx=0;entryDy=0;" edge="1" parent="1" source="TqjajjSFYu0oRNBo3CQ0-213" target="TqjajjSFYu0oRNBo3CQ0-215">
          <mxGeometry relative="1" as="geometry" />
        </mxCell>
        <mxCell id="TqjajjSFYu0oRNBo3CQ0-212" style="edgeStyle=orthogonalEdgeStyle;rounded=0;orthogonalLoop=1;jettySize=auto;html=1;exitX=0;exitY=0.5;exitDx=0;exitDy=0;exitPerimeter=0;entryX=0.5;entryY=0;entryDx=0;entryDy=0;" edge="1" parent="1" source="TqjajjSFYu0oRNBo3CQ0-213" target="TqjajjSFYu0oRNBo3CQ0-217">
          <mxGeometry relative="1" as="geometry" />
        </mxCell>
        <mxCell id="TqjajjSFYu0oRNBo3CQ0-213" value="จำนวนแบงค์ห้าร้อย &amp;gt;= จำนวนเงินทอน ?" style="strokeWidth=2;html=1;shape=mxgraph.flowchart.decision;whiteSpace=wrap;" vertex="1" parent="1">
          <mxGeometry x="3560" y="320" width="250" height="70" as="geometry" />
        </mxCell>
        <mxCell id="TqjajjSFYu0oRNBo3CQ0-214" value="จำนวนเงินทอน = (เงินทอน -&amp;nbsp;(เงินทอน % 500)) / 500" style="rounded=1;whiteSpace=wrap;html=1;absoluteArcSize=1;arcSize=0;strokeWidth=2;" vertex="1" parent="1">
          <mxGeometry x="3530" y="250" width="305" height="50" as="geometry" />
        </mxCell>
        <mxCell id="TqjajjSFYu0oRNBo3CQ0-215" value="ทอนแบงค์ห้าร้อยจำนวน =&amp;nbsp;จำนวนเงินทอน" style="shape=parallelogram;html=1;strokeWidth=2;perimeter=parallelogramPerimeter;whiteSpace=wrap;rounded=1;arcSize=0;size=0.1205357142857143;" vertex="1" parent="1">
          <mxGeometry x="3555" y="410" width="255" height="60" as="geometry" />
        </mxCell>
        <mxCell id="TqjajjSFYu0oRNBo3CQ0-216" style="edgeStyle=orthogonalEdgeStyle;rounded=0;orthogonalLoop=1;jettySize=auto;html=1;exitX=0.5;exitY=1;exitDx=0;exitDy=0;" edge="1" parent="1" source="TqjajjSFYu0oRNBo3CQ0-217" target="TqjajjSFYu0oRNBo3CQ0-223">
          <mxGeometry relative="1" as="geometry" />
        </mxCell>
        <mxCell id="TqjajjSFYu0oRNBo3CQ0-217" value="" style="ellipse;whiteSpace=wrap;html=1;aspect=fixed;" vertex="1" parent="1">
          <mxGeometry x="3426.25" y="721.25" width="28.75" height="28.75" as="geometry" />
        </mxCell>
        <mxCell id="TqjajjSFYu0oRNBo3CQ0-218" style="edgeStyle=orthogonalEdgeStyle;rounded=0;orthogonalLoop=1;jettySize=auto;html=1;exitX=0.5;exitY=1;exitDx=0;exitDy=0;entryX=0.5;entryY=0;entryDx=0;entryDy=0;entryPerimeter=0;" edge="1" parent="1" source="TqjajjSFYu0oRNBo3CQ0-214" target="TqjajjSFYu0oRNBo3CQ0-213">
          <mxGeometry relative="1" as="geometry" />
        </mxCell>
        <mxCell id="TqjajjSFYu0oRNBo3CQ0-219" style="edgeStyle=orthogonalEdgeStyle;rounded=0;orthogonalLoop=1;jettySize=auto;html=1;exitX=0.5;exitY=1;exitDx=0;exitDy=0;entryX=1;entryY=0.5;entryDx=0;entryDy=0;" edge="1" parent="1" source="TqjajjSFYu0oRNBo3CQ0-220" target="TqjajjSFYu0oRNBo3CQ0-217">
          <mxGeometry relative="1" as="geometry" />
        </mxCell>
        <mxCell id="TqjajjSFYu0oRNBo3CQ0-220" value="เงินทอน -=&amp;nbsp;จำนวนเงินทอน * 500" style="rounded=1;whiteSpace=wrap;html=1;absoluteArcSize=1;arcSize=0;strokeWidth=2;" vertex="1" parent="1">
          <mxGeometry x="3583.75" y="660" width="200" height="50" as="geometry" />
        </mxCell>
        <mxCell id="TqjajjSFYu0oRNBo3CQ0-221" style="edgeStyle=orthogonalEdgeStyle;rounded=0;orthogonalLoop=1;jettySize=auto;html=1;exitX=1;exitY=0.5;exitDx=0;exitDy=0;exitPerimeter=0;entryX=0.5;entryY=0;entryDx=0;entryDy=0;" edge="1" parent="1" source="TqjajjSFYu0oRNBo3CQ0-223" target="TqjajjSFYu0oRNBo3CQ0-227">
          <mxGeometry relative="1" as="geometry" />
        </mxCell>
        <mxCell id="TqjajjSFYu0oRNBo3CQ0-222" style="edgeStyle=orthogonalEdgeStyle;rounded=0;orthogonalLoop=1;jettySize=auto;html=1;exitX=0.5;exitY=1;exitDx=0;exitDy=0;exitPerimeter=0;entryX=0.5;entryY=0;entryDx=0;entryDy=0;" edge="1" parent="1" source="TqjajjSFYu0oRNBo3CQ0-223" target="TqjajjSFYu0oRNBo3CQ0-230">
          <mxGeometry relative="1" as="geometry" />
        </mxCell>
        <mxCell id="TqjajjSFYu0oRNBo3CQ0-223" value="เงินทอน -&amp;nbsp;(เงินทอน % 100) &amp;gt; 0 ?" style="strokeWidth=2;html=1;shape=mxgraph.flowchart.decision;whiteSpace=wrap;" vertex="1" parent="1">
          <mxGeometry x="3313.75" y="780" width="250" height="70" as="geometry" />
        </mxCell>
        <mxCell id="TqjajjSFYu0oRNBo3CQ0-224" style="edgeStyle=orthogonalEdgeStyle;rounded=0;orthogonalLoop=1;jettySize=auto;html=1;exitX=0.5;exitY=1;exitDx=0;exitDy=0;exitPerimeter=0;entryX=0.5;entryY=0;entryDx=0;entryDy=0;" edge="1" parent="1" source="TqjajjSFYu0oRNBo3CQ0-226" target="TqjajjSFYu0oRNBo3CQ0-229">
          <mxGeometry relative="1" as="geometry" />
        </mxCell>
        <mxCell id="TqjajjSFYu0oRNBo3CQ0-487" value="True" style="edgeLabel;html=1;align=center;verticalAlign=middle;resizable=0;points=[];" vertex="1" connectable="0" parent="TqjajjSFYu0oRNBo3CQ0-224">
          <mxGeometry x="0.0734" y="2" relative="1" as="geometry">
            <mxPoint x="15" y="1" as="offset" />
          </mxGeometry>
        </mxCell>
        <mxCell id="TqjajjSFYu0oRNBo3CQ0-225" style="edgeStyle=orthogonalEdgeStyle;rounded=0;orthogonalLoop=1;jettySize=auto;html=1;exitX=0;exitY=0.5;exitDx=0;exitDy=0;exitPerimeter=0;" edge="1" parent="1" source="TqjajjSFYu0oRNBo3CQ0-226" target="TqjajjSFYu0oRNBo3CQ0-230">
          <mxGeometry relative="1" as="geometry" />
        </mxCell>
        <mxCell id="TqjajjSFYu0oRNBo3CQ0-226" value="จำนวนแบงค์ร้อย &amp;gt;= จำนวนเงินทอน ?" style="strokeWidth=2;html=1;shape=mxgraph.flowchart.decision;whiteSpace=wrap;" vertex="1" parent="1">
          <mxGeometry x="3560" y="940" width="250" height="70" as="geometry" />
        </mxCell>
        <mxCell id="TqjajjSFYu0oRNBo3CQ0-227" value="จำนวนเงินทอน = (เงินทอน -&amp;nbsp;(เงินทอน % 100)) / 100" style="rounded=1;whiteSpace=wrap;html=1;absoluteArcSize=1;arcSize=0;strokeWidth=2;" vertex="1" parent="1">
          <mxGeometry x="3530" y="870" width="305" height="50" as="geometry" />
        </mxCell>
        <mxCell id="TqjajjSFYu0oRNBo3CQ0-228" style="edgeStyle=orthogonalEdgeStyle;rounded=0;orthogonalLoop=1;jettySize=auto;html=1;exitX=0.5;exitY=1;exitDx=0;exitDy=0;" edge="1" parent="1" source="TqjajjSFYu0oRNBo3CQ0-229" target="TqjajjSFYu0oRNBo3CQ0-318">
          <mxGeometry relative="1" as="geometry" />
        </mxCell>
        <mxCell id="TqjajjSFYu0oRNBo3CQ0-229" value="ทอนแบงค์ร้อยจำนวน =&amp;nbsp;จำนวนเงินทอน" style="shape=parallelogram;html=1;strokeWidth=2;perimeter=parallelogramPerimeter;whiteSpace=wrap;rounded=1;arcSize=0;size=0.1205357142857143;" vertex="1" parent="1">
          <mxGeometry x="3555" y="1030" width="255" height="60" as="geometry" />
        </mxCell>
        <mxCell id="TqjajjSFYu0oRNBo3CQ0-230" value="" style="ellipse;whiteSpace=wrap;html=1;aspect=fixed;" vertex="1" parent="1">
          <mxGeometry x="3424.38" y="1350" width="28.75" height="28.75" as="geometry" />
        </mxCell>
        <mxCell id="TqjajjSFYu0oRNBo3CQ0-231" style="edgeStyle=orthogonalEdgeStyle;rounded=0;orthogonalLoop=1;jettySize=auto;html=1;exitX=0.5;exitY=1;exitDx=0;exitDy=0;entryX=0.5;entryY=0;entryDx=0;entryDy=0;entryPerimeter=0;" edge="1" parent="1" source="TqjajjSFYu0oRNBo3CQ0-227" target="TqjajjSFYu0oRNBo3CQ0-226">
          <mxGeometry relative="1" as="geometry" />
        </mxCell>
        <mxCell id="TqjajjSFYu0oRNBo3CQ0-232" style="edgeStyle=orthogonalEdgeStyle;rounded=0;orthogonalLoop=1;jettySize=auto;html=1;exitX=0.5;exitY=1;exitDx=0;exitDy=0;entryX=1;entryY=0.5;entryDx=0;entryDy=0;" edge="1" parent="1" source="TqjajjSFYu0oRNBo3CQ0-233" target="TqjajjSFYu0oRNBo3CQ0-230">
          <mxGeometry relative="1" as="geometry" />
        </mxCell>
        <mxCell id="TqjajjSFYu0oRNBo3CQ0-233" value="เงินทอน -=&amp;nbsp;จำนวนเงินทอน * 100" style="rounded=1;whiteSpace=wrap;html=1;absoluteArcSize=1;arcSize=0;strokeWidth=2;" vertex="1" parent="1">
          <mxGeometry x="3582.5" y="1290" width="200" height="50" as="geometry" />
        </mxCell>
        <mxCell id="TqjajjSFYu0oRNBo3CQ0-234" style="edgeStyle=orthogonalEdgeStyle;rounded=0;orthogonalLoop=1;jettySize=auto;html=1;exitX=1;exitY=0.5;exitDx=0;exitDy=0;exitPerimeter=0;entryX=0.5;entryY=0;entryDx=0;entryDy=0;" edge="1" parent="1" source="TqjajjSFYu0oRNBo3CQ0-236" target="TqjajjSFYu0oRNBo3CQ0-240">
          <mxGeometry relative="1" as="geometry" />
        </mxCell>
        <mxCell id="TqjajjSFYu0oRNBo3CQ0-353" style="edgeStyle=orthogonalEdgeStyle;rounded=0;orthogonalLoop=1;jettySize=auto;html=1;exitX=0.5;exitY=1;exitDx=0;exitDy=0;exitPerimeter=0;entryX=0.5;entryY=0;entryDx=0;entryDy=0;" edge="1" parent="1" source="TqjajjSFYu0oRNBo3CQ0-236" target="TqjajjSFYu0oRNBo3CQ0-242">
          <mxGeometry relative="1" as="geometry" />
        </mxCell>
        <mxCell id="TqjajjSFYu0oRNBo3CQ0-236" value="เงินทอน -&amp;nbsp;(เงินทอน % 50) &amp;gt; 0 ?" style="strokeWidth=2;html=1;shape=mxgraph.flowchart.decision;whiteSpace=wrap;" vertex="1" parent="1">
          <mxGeometry x="3313.75" y="1410" width="250" height="70" as="geometry" />
        </mxCell>
        <mxCell id="TqjajjSFYu0oRNBo3CQ0-237" style="edgeStyle=orthogonalEdgeStyle;rounded=0;orthogonalLoop=1;jettySize=auto;html=1;exitX=0.5;exitY=1;exitDx=0;exitDy=0;exitPerimeter=0;entryX=0.5;entryY=0;entryDx=0;entryDy=0;" edge="1" parent="1" source="TqjajjSFYu0oRNBo3CQ0-239" target="TqjajjSFYu0oRNBo3CQ0-241">
          <mxGeometry relative="1" as="geometry" />
        </mxCell>
        <mxCell id="TqjajjSFYu0oRNBo3CQ0-354" style="edgeStyle=orthogonalEdgeStyle;rounded=0;orthogonalLoop=1;jettySize=auto;html=1;exitX=0;exitY=0.5;exitDx=0;exitDy=0;exitPerimeter=0;entryX=0.5;entryY=0;entryDx=0;entryDy=0;" edge="1" parent="1" source="TqjajjSFYu0oRNBo3CQ0-239" target="TqjajjSFYu0oRNBo3CQ0-242">
          <mxGeometry relative="1" as="geometry" />
        </mxCell>
        <mxCell id="TqjajjSFYu0oRNBo3CQ0-239" value="จำนวนแบงค์ห้าสิบ &amp;gt;= จำนวนเงินทอน ?" style="strokeWidth=2;html=1;shape=mxgraph.flowchart.decision;whiteSpace=wrap;" vertex="1" parent="1">
          <mxGeometry x="3560" y="1570" width="250" height="70" as="geometry" />
        </mxCell>
        <mxCell id="TqjajjSFYu0oRNBo3CQ0-240" value="จำนวนเงินทอน = (เงินทอน -&amp;nbsp;(เงินทอน % 50)) / 50" style="rounded=1;whiteSpace=wrap;html=1;absoluteArcSize=1;arcSize=0;strokeWidth=2;" vertex="1" parent="1">
          <mxGeometry x="3530" y="1500" width="305" height="50" as="geometry" />
        </mxCell>
        <mxCell id="TqjajjSFYu0oRNBo3CQ0-241" value="ทอนแบงค์ห้าสิบจำนวน =&amp;nbsp;จำนวนเงินทอน" style="shape=parallelogram;html=1;strokeWidth=2;perimeter=parallelogramPerimeter;whiteSpace=wrap;rounded=1;arcSize=0;size=0.1205357142857143;" vertex="1" parent="1">
          <mxGeometry x="3555" y="1660" width="255" height="60" as="geometry" />
        </mxCell>
        <mxCell id="TqjajjSFYu0oRNBo3CQ0-242" value="" style="ellipse;whiteSpace=wrap;html=1;aspect=fixed;" vertex="1" parent="1">
          <mxGeometry x="3424.38" y="1970" width="28.75" height="28.75" as="geometry" />
        </mxCell>
        <mxCell id="TqjajjSFYu0oRNBo3CQ0-243" style="edgeStyle=orthogonalEdgeStyle;rounded=0;orthogonalLoop=1;jettySize=auto;html=1;exitX=0.5;exitY=1;exitDx=0;exitDy=0;entryX=0.5;entryY=0;entryDx=0;entryDy=0;entryPerimeter=0;" edge="1" parent="1" source="TqjajjSFYu0oRNBo3CQ0-240" target="TqjajjSFYu0oRNBo3CQ0-239">
          <mxGeometry relative="1" as="geometry" />
        </mxCell>
        <mxCell id="TqjajjSFYu0oRNBo3CQ0-244" style="edgeStyle=orthogonalEdgeStyle;rounded=0;orthogonalLoop=1;jettySize=auto;html=1;exitX=0.5;exitY=1;exitDx=0;exitDy=0;entryX=1;entryY=0.5;entryDx=0;entryDy=0;" edge="1" parent="1" source="TqjajjSFYu0oRNBo3CQ0-245" target="TqjajjSFYu0oRNBo3CQ0-242">
          <mxGeometry relative="1" as="geometry" />
        </mxCell>
        <mxCell id="TqjajjSFYu0oRNBo3CQ0-245" value="เงินทอน -=&amp;nbsp;จำนวนเงินทอน * 50" style="rounded=1;whiteSpace=wrap;html=1;absoluteArcSize=1;arcSize=0;strokeWidth=2;" vertex="1" parent="1">
          <mxGeometry x="3582.5" y="1910" width="200" height="50" as="geometry" />
        </mxCell>
        <mxCell id="TqjajjSFYu0oRNBo3CQ0-246" style="edgeStyle=orthogonalEdgeStyle;rounded=0;orthogonalLoop=1;jettySize=auto;html=1;exitX=0.5;exitY=1;exitDx=0;exitDy=0;entryX=0.5;entryY=0;entryDx=0;entryDy=0;entryPerimeter=0;" edge="1" parent="1" source="TqjajjSFYu0oRNBo3CQ0-230" target="TqjajjSFYu0oRNBo3CQ0-236">
          <mxGeometry relative="1" as="geometry" />
        </mxCell>
        <mxCell id="TqjajjSFYu0oRNBo3CQ0-247" style="edgeStyle=orthogonalEdgeStyle;rounded=0;orthogonalLoop=1;jettySize=auto;html=1;exitX=1;exitY=0.5;exitDx=0;exitDy=0;exitPerimeter=0;entryX=0.5;entryY=0;entryDx=0;entryDy=0;" edge="1" parent="1" source="TqjajjSFYu0oRNBo3CQ0-249" target="TqjajjSFYu0oRNBo3CQ0-253">
          <mxGeometry relative="1" as="geometry" />
        </mxCell>
        <mxCell id="TqjajjSFYu0oRNBo3CQ0-248" style="edgeStyle=orthogonalEdgeStyle;rounded=0;orthogonalLoop=1;jettySize=auto;html=1;exitX=0.5;exitY=1;exitDx=0;exitDy=0;exitPerimeter=0;entryX=0.5;entryY=0;entryDx=0;entryDy=0;" edge="1" parent="1" source="TqjajjSFYu0oRNBo3CQ0-249" target="TqjajjSFYu0oRNBo3CQ0-258">
          <mxGeometry relative="1" as="geometry">
            <Array as="points">
              <mxPoint x="3440" y="2120" />
            </Array>
          </mxGeometry>
        </mxCell>
        <mxCell id="TqjajjSFYu0oRNBo3CQ0-249" value="เงินทอน -&amp;nbsp;(เงินทอน % 20) &amp;gt; 0 ?" style="strokeWidth=2;html=1;shape=mxgraph.flowchart.decision;whiteSpace=wrap;" vertex="1" parent="1">
          <mxGeometry x="3313.75" y="2050" width="250" height="70" as="geometry" />
        </mxCell>
        <mxCell id="TqjajjSFYu0oRNBo3CQ0-250" style="edgeStyle=orthogonalEdgeStyle;rounded=0;orthogonalLoop=1;jettySize=auto;html=1;exitX=0.5;exitY=1;exitDx=0;exitDy=0;exitPerimeter=0;entryX=0.5;entryY=0;entryDx=0;entryDy=0;" edge="1" parent="1" source="TqjajjSFYu0oRNBo3CQ0-252" target="TqjajjSFYu0oRNBo3CQ0-255">
          <mxGeometry relative="1" as="geometry" />
        </mxCell>
        <mxCell id="TqjajjSFYu0oRNBo3CQ0-251" style="edgeStyle=orthogonalEdgeStyle;rounded=0;orthogonalLoop=1;jettySize=auto;html=1;exitX=0;exitY=0.5;exitDx=0;exitDy=0;exitPerimeter=0;entryX=0.5;entryY=0;entryDx=0;entryDy=0;" edge="1" parent="1" source="TqjajjSFYu0oRNBo3CQ0-252" target="TqjajjSFYu0oRNBo3CQ0-258">
          <mxGeometry relative="1" as="geometry" />
        </mxCell>
        <mxCell id="TqjajjSFYu0oRNBo3CQ0-252" value="จำนวนแบงค์ยี่สิบ &amp;gt;= จำนวนเงินทอน ?" style="strokeWidth=2;html=1;shape=mxgraph.flowchart.decision;whiteSpace=wrap;" vertex="1" parent="1">
          <mxGeometry x="3560" y="2210" width="250" height="70" as="geometry" />
        </mxCell>
        <mxCell id="TqjajjSFYu0oRNBo3CQ0-253" value="จำนวนเงินทอน = (เงินทอน -&amp;nbsp;(เงินทอน % 20)) / 20" style="rounded=1;whiteSpace=wrap;html=1;absoluteArcSize=1;arcSize=0;strokeWidth=2;" vertex="1" parent="1">
          <mxGeometry x="3530" y="2140" width="305" height="50" as="geometry" />
        </mxCell>
        <mxCell id="TqjajjSFYu0oRNBo3CQ0-254" style="edgeStyle=orthogonalEdgeStyle;rounded=0;orthogonalLoop=1;jettySize=auto;html=1;exitX=0.5;exitY=1;exitDx=0;exitDy=0;entryX=0.5;entryY=0;entryDx=0;entryDy=0;" edge="1" parent="1" source="TqjajjSFYu0oRNBo3CQ0-255" target="TqjajjSFYu0oRNBo3CQ0-257">
          <mxGeometry relative="1" as="geometry" />
        </mxCell>
        <mxCell id="TqjajjSFYu0oRNBo3CQ0-255" value="ทอนแบงค์ยี่สิบจำนวน =&amp;nbsp;จำนวนเงินทอน" style="shape=parallelogram;html=1;strokeWidth=2;perimeter=parallelogramPerimeter;whiteSpace=wrap;rounded=1;arcSize=0;size=0.1205357142857143;" vertex="1" parent="1">
          <mxGeometry x="3555" y="2300" width="255" height="60" as="geometry" />
        </mxCell>
        <mxCell id="TqjajjSFYu0oRNBo3CQ0-256" style="edgeStyle=orthogonalEdgeStyle;rounded=0;orthogonalLoop=1;jettySize=auto;html=1;exitX=0.5;exitY=1;exitDx=0;exitDy=0;entryX=0.5;entryY=0;entryDx=0;entryDy=0;" edge="1" parent="1" source="TqjajjSFYu0oRNBo3CQ0-257" target="TqjajjSFYu0oRNBo3CQ0-263">
          <mxGeometry relative="1" as="geometry" />
        </mxCell>
        <mxCell id="TqjajjSFYu0oRNBo3CQ0-257" value="จำนวนแบงค์ยี่สิบ += -1 *&amp;nbsp;จำนวนเงินทอน" style="rounded=1;whiteSpace=wrap;html=1;absoluteArcSize=1;arcSize=0;strokeWidth=2;" vertex="1" parent="1">
          <mxGeometry x="3570" y="2380" width="227.5" height="50" as="geometry" />
        </mxCell>
        <mxCell id="TqjajjSFYu0oRNBo3CQ0-258" value="" style="ellipse;whiteSpace=wrap;html=1;aspect=fixed;" vertex="1" parent="1">
          <mxGeometry x="3425" y="2610" width="30" height="30" as="geometry" />
        </mxCell>
        <mxCell id="TqjajjSFYu0oRNBo3CQ0-259" style="edgeStyle=orthogonalEdgeStyle;rounded=0;orthogonalLoop=1;jettySize=auto;html=1;exitX=0.5;exitY=1;exitDx=0;exitDy=0;entryX=0.5;entryY=0;entryDx=0;entryDy=0;entryPerimeter=0;" edge="1" parent="1" source="TqjajjSFYu0oRNBo3CQ0-253" target="TqjajjSFYu0oRNBo3CQ0-252">
          <mxGeometry relative="1" as="geometry" />
        </mxCell>
        <mxCell id="TqjajjSFYu0oRNBo3CQ0-260" style="edgeStyle=orthogonalEdgeStyle;rounded=0;orthogonalLoop=1;jettySize=auto;html=1;exitX=0.5;exitY=1;exitDx=0;exitDy=0;entryX=1;entryY=0.5;entryDx=0;entryDy=0;" edge="1" parent="1" source="TqjajjSFYu0oRNBo3CQ0-261" target="TqjajjSFYu0oRNBo3CQ0-258">
          <mxGeometry relative="1" as="geometry" />
        </mxCell>
        <mxCell id="TqjajjSFYu0oRNBo3CQ0-261" value="เงินทอน -=&amp;nbsp;จำนวนเงินทอน * 20" style="rounded=1;whiteSpace=wrap;html=1;absoluteArcSize=1;arcSize=0;strokeWidth=2;" vertex="1" parent="1">
          <mxGeometry x="3583.75" y="2550" width="200" height="50" as="geometry" />
        </mxCell>
        <mxCell id="TqjajjSFYu0oRNBo3CQ0-262" style="edgeStyle=orthogonalEdgeStyle;rounded=0;orthogonalLoop=1;jettySize=auto;html=1;exitX=0.5;exitY=1;exitDx=0;exitDy=0;" edge="1" parent="1" source="TqjajjSFYu0oRNBo3CQ0-263" target="TqjajjSFYu0oRNBo3CQ0-261">
          <mxGeometry relative="1" as="geometry" />
        </mxCell>
        <mxCell id="TqjajjSFYu0oRNBo3CQ0-263" value="&amp;nbsp;ยอดเงินคงเหลือในตู้ -=&amp;nbsp;จำนวนเงินทอน * 20" style="rounded=1;whiteSpace=wrap;html=1;absoluteArcSize=1;arcSize=0;strokeWidth=2;" vertex="1" parent="1">
          <mxGeometry x="3560" y="2460" width="247.5" height="50" as="geometry" />
        </mxCell>
        <mxCell id="TqjajjSFYu0oRNBo3CQ0-264" style="edgeStyle=orthogonalEdgeStyle;rounded=0;orthogonalLoop=1;jettySize=auto;html=1;exitX=0.5;exitY=1;exitDx=0;exitDy=0;entryX=0.5;entryY=0;entryDx=0;entryDy=0;entryPerimeter=0;" edge="1" parent="1" source="TqjajjSFYu0oRNBo3CQ0-242" target="TqjajjSFYu0oRNBo3CQ0-249">
          <mxGeometry relative="1" as="geometry" />
        </mxCell>
        <mxCell id="TqjajjSFYu0oRNBo3CQ0-265" style="edgeStyle=orthogonalEdgeStyle;rounded=0;orthogonalLoop=1;jettySize=auto;html=1;exitX=1;exitY=0.5;exitDx=0;exitDy=0;exitPerimeter=0;entryX=0.5;entryY=0;entryDx=0;entryDy=0;" edge="1" parent="1" source="TqjajjSFYu0oRNBo3CQ0-267" target="TqjajjSFYu0oRNBo3CQ0-271">
          <mxGeometry relative="1" as="geometry" />
        </mxCell>
        <mxCell id="TqjajjSFYu0oRNBo3CQ0-266" style="edgeStyle=orthogonalEdgeStyle;rounded=0;orthogonalLoop=1;jettySize=auto;html=1;exitX=0.5;exitY=1;exitDx=0;exitDy=0;exitPerimeter=0;entryX=0.5;entryY=0;entryDx=0;entryDy=0;" edge="1" parent="1" source="TqjajjSFYu0oRNBo3CQ0-267" target="TqjajjSFYu0oRNBo3CQ0-276">
          <mxGeometry relative="1" as="geometry" />
        </mxCell>
        <mxCell id="TqjajjSFYu0oRNBo3CQ0-267" value="เงินทอน -&amp;nbsp;(เงินทอน % 10) &amp;gt; 0 ?" style="strokeWidth=2;html=1;shape=mxgraph.flowchart.decision;whiteSpace=wrap;" vertex="1" parent="1">
          <mxGeometry x="3315" y="2660" width="250" height="70" as="geometry" />
        </mxCell>
        <mxCell id="TqjajjSFYu0oRNBo3CQ0-269" style="edgeStyle=orthogonalEdgeStyle;rounded=0;orthogonalLoop=1;jettySize=auto;html=1;exitX=0;exitY=0.5;exitDx=0;exitDy=0;exitPerimeter=0;entryX=0.5;entryY=0;entryDx=0;entryDy=0;" edge="1" parent="1" source="TqjajjSFYu0oRNBo3CQ0-270" target="TqjajjSFYu0oRNBo3CQ0-276">
          <mxGeometry relative="1" as="geometry" />
        </mxCell>
        <mxCell id="TqjajjSFYu0oRNBo3CQ0-492" style="edgeStyle=orthogonalEdgeStyle;rounded=0;orthogonalLoop=1;jettySize=auto;html=1;exitX=0.5;exitY=1;exitDx=0;exitDy=0;exitPerimeter=0;entryX=0.5;entryY=0;entryDx=0;entryDy=0;" edge="1" parent="1" source="TqjajjSFYu0oRNBo3CQ0-270" target="TqjajjSFYu0oRNBo3CQ0-273">
          <mxGeometry relative="1" as="geometry" />
        </mxCell>
        <mxCell id="TqjajjSFYu0oRNBo3CQ0-270" value="จำนวนเหรียญสิบ &amp;gt;= จำนวนเงินทอน ?" style="strokeWidth=2;html=1;shape=mxgraph.flowchart.decision;whiteSpace=wrap;" vertex="1" parent="1">
          <mxGeometry x="3560" y="2820" width="250" height="70" as="geometry" />
        </mxCell>
        <mxCell id="TqjajjSFYu0oRNBo3CQ0-271" value="จำนวนเงินทอน = (เงินทอน -&amp;nbsp;(เงินทอน % 10)) / 10" style="rounded=1;whiteSpace=wrap;html=1;absoluteArcSize=1;arcSize=0;strokeWidth=2;" vertex="1" parent="1">
          <mxGeometry x="3530" y="2750" width="305" height="50" as="geometry" />
        </mxCell>
        <mxCell id="TqjajjSFYu0oRNBo3CQ0-272" style="edgeStyle=orthogonalEdgeStyle;rounded=0;orthogonalLoop=1;jettySize=auto;html=1;exitX=0.5;exitY=1;exitDx=0;exitDy=0;entryX=0.5;entryY=0;entryDx=0;entryDy=0;" edge="1" parent="1" source="TqjajjSFYu0oRNBo3CQ0-273" target="TqjajjSFYu0oRNBo3CQ0-275">
          <mxGeometry relative="1" as="geometry" />
        </mxCell>
        <mxCell id="TqjajjSFYu0oRNBo3CQ0-273" value="ทอนเหรียญสิบจำนวน =&amp;nbsp;จำนวนเงินทอน" style="shape=parallelogram;html=1;strokeWidth=2;perimeter=parallelogramPerimeter;whiteSpace=wrap;rounded=1;arcSize=0;size=0.1205357142857143;" vertex="1" parent="1">
          <mxGeometry x="3556.25" y="2910" width="255" height="60" as="geometry" />
        </mxCell>
        <mxCell id="TqjajjSFYu0oRNBo3CQ0-274" style="edgeStyle=orthogonalEdgeStyle;rounded=0;orthogonalLoop=1;jettySize=auto;html=1;exitX=0.5;exitY=1;exitDx=0;exitDy=0;entryX=0.5;entryY=0;entryDx=0;entryDy=0;" edge="1" parent="1" source="TqjajjSFYu0oRNBo3CQ0-275" target="TqjajjSFYu0oRNBo3CQ0-281">
          <mxGeometry relative="1" as="geometry" />
        </mxCell>
        <mxCell id="TqjajjSFYu0oRNBo3CQ0-275" value="จำนวนเหรียญสิบ&amp;nbsp;+= -1 *&amp;nbsp;จำนวนเงินทอน" style="rounded=1;whiteSpace=wrap;html=1;absoluteArcSize=1;arcSize=0;strokeWidth=2;" vertex="1" parent="1">
          <mxGeometry x="3570" y="2990" width="227.5" height="50" as="geometry" />
        </mxCell>
        <mxCell id="TqjajjSFYu0oRNBo3CQ0-276" value="" style="ellipse;whiteSpace=wrap;html=1;aspect=fixed;" vertex="1" parent="1">
          <mxGeometry x="3425" y="3220" width="30" height="30" as="geometry" />
        </mxCell>
        <mxCell id="TqjajjSFYu0oRNBo3CQ0-277" style="edgeStyle=orthogonalEdgeStyle;rounded=0;orthogonalLoop=1;jettySize=auto;html=1;exitX=0.5;exitY=1;exitDx=0;exitDy=0;entryX=0.5;entryY=0;entryDx=0;entryDy=0;entryPerimeter=0;" edge="1" parent="1" source="TqjajjSFYu0oRNBo3CQ0-271" target="TqjajjSFYu0oRNBo3CQ0-270">
          <mxGeometry relative="1" as="geometry" />
        </mxCell>
        <mxCell id="TqjajjSFYu0oRNBo3CQ0-278" style="edgeStyle=orthogonalEdgeStyle;rounded=0;orthogonalLoop=1;jettySize=auto;html=1;exitX=0.5;exitY=1;exitDx=0;exitDy=0;entryX=1;entryY=0.5;entryDx=0;entryDy=0;" edge="1" parent="1" source="TqjajjSFYu0oRNBo3CQ0-279" target="TqjajjSFYu0oRNBo3CQ0-276">
          <mxGeometry relative="1" as="geometry" />
        </mxCell>
        <mxCell id="TqjajjSFYu0oRNBo3CQ0-279" value="เงินทอน -=&amp;nbsp;จำนวนเงินทอน * 10" style="rounded=1;whiteSpace=wrap;html=1;absoluteArcSize=1;arcSize=0;strokeWidth=2;" vertex="1" parent="1">
          <mxGeometry x="3583.75" y="3160" width="200" height="50" as="geometry" />
        </mxCell>
        <mxCell id="TqjajjSFYu0oRNBo3CQ0-280" style="edgeStyle=orthogonalEdgeStyle;rounded=0;orthogonalLoop=1;jettySize=auto;html=1;exitX=0.5;exitY=1;exitDx=0;exitDy=0;" edge="1" parent="1" source="TqjajjSFYu0oRNBo3CQ0-281" target="TqjajjSFYu0oRNBo3CQ0-279">
          <mxGeometry relative="1" as="geometry" />
        </mxCell>
        <mxCell id="TqjajjSFYu0oRNBo3CQ0-281" value="&amp;nbsp;ยอดเงินคงเหลือในตู้ -=&amp;nbsp;จำนวนเงินทอน * 10" style="rounded=1;whiteSpace=wrap;html=1;absoluteArcSize=1;arcSize=0;strokeWidth=2;" vertex="1" parent="1">
          <mxGeometry x="3560" y="3070" width="247.5" height="50" as="geometry" />
        </mxCell>
        <mxCell id="TqjajjSFYu0oRNBo3CQ0-282" style="edgeStyle=orthogonalEdgeStyle;rounded=0;orthogonalLoop=1;jettySize=auto;html=1;exitX=0.5;exitY=1;exitDx=0;exitDy=0;entryX=0.5;entryY=0;entryDx=0;entryDy=0;entryPerimeter=0;" edge="1" parent="1" source="TqjajjSFYu0oRNBo3CQ0-258" target="TqjajjSFYu0oRNBo3CQ0-267">
          <mxGeometry relative="1" as="geometry" />
        </mxCell>
        <mxCell id="TqjajjSFYu0oRNBo3CQ0-283" style="edgeStyle=orthogonalEdgeStyle;rounded=0;orthogonalLoop=1;jettySize=auto;html=1;exitX=1;exitY=0.5;exitDx=0;exitDy=0;exitPerimeter=0;entryX=0.5;entryY=0;entryDx=0;entryDy=0;" edge="1" parent="1" source="TqjajjSFYu0oRNBo3CQ0-285" target="TqjajjSFYu0oRNBo3CQ0-289">
          <mxGeometry relative="1" as="geometry" />
        </mxCell>
        <mxCell id="TqjajjSFYu0oRNBo3CQ0-284" style="edgeStyle=orthogonalEdgeStyle;rounded=0;orthogonalLoop=1;jettySize=auto;html=1;exitX=0.5;exitY=1;exitDx=0;exitDy=0;exitPerimeter=0;entryX=0.5;entryY=0;entryDx=0;entryDy=0;" edge="1" parent="1" source="TqjajjSFYu0oRNBo3CQ0-285" target="TqjajjSFYu0oRNBo3CQ0-294">
          <mxGeometry relative="1" as="geometry" />
        </mxCell>
        <mxCell id="TqjajjSFYu0oRNBo3CQ0-285" value="เงินทอน -&amp;nbsp;(เงินทอน % 5) &amp;gt; 0 ?" style="strokeWidth=2;html=1;shape=mxgraph.flowchart.decision;whiteSpace=wrap;" vertex="1" parent="1">
          <mxGeometry x="3315" y="3310" width="250" height="70" as="geometry" />
        </mxCell>
        <mxCell id="TqjajjSFYu0oRNBo3CQ0-286" style="edgeStyle=orthogonalEdgeStyle;rounded=0;orthogonalLoop=1;jettySize=auto;html=1;exitX=0.5;exitY=1;exitDx=0;exitDy=0;exitPerimeter=0;entryX=0.5;entryY=0;entryDx=0;entryDy=0;" edge="1" parent="1" source="TqjajjSFYu0oRNBo3CQ0-288" target="TqjajjSFYu0oRNBo3CQ0-291">
          <mxGeometry relative="1" as="geometry" />
        </mxCell>
        <mxCell id="TqjajjSFYu0oRNBo3CQ0-287" style="edgeStyle=orthogonalEdgeStyle;rounded=0;orthogonalLoop=1;jettySize=auto;html=1;exitX=0;exitY=0.5;exitDx=0;exitDy=0;exitPerimeter=0;entryX=0.5;entryY=0;entryDx=0;entryDy=0;" edge="1" parent="1" source="TqjajjSFYu0oRNBo3CQ0-288" target="TqjajjSFYu0oRNBo3CQ0-294">
          <mxGeometry relative="1" as="geometry" />
        </mxCell>
        <mxCell id="TqjajjSFYu0oRNBo3CQ0-288" value="จำนวนเหรียญห้า &amp;gt;= จำนวนเงินทอน ?" style="strokeWidth=2;html=1;shape=mxgraph.flowchart.decision;whiteSpace=wrap;" vertex="1" parent="1">
          <mxGeometry x="3560" y="3470" width="250" height="70" as="geometry" />
        </mxCell>
        <mxCell id="TqjajjSFYu0oRNBo3CQ0-289" value="จำนวนเงินทอน = (เงินทอน -&amp;nbsp;(เงินทอน % 10)) / 10" style="rounded=1;whiteSpace=wrap;html=1;absoluteArcSize=1;arcSize=0;strokeWidth=2;" vertex="1" parent="1">
          <mxGeometry x="3530" y="3400" width="305" height="50" as="geometry" />
        </mxCell>
        <mxCell id="TqjajjSFYu0oRNBo3CQ0-290" style="edgeStyle=orthogonalEdgeStyle;rounded=0;orthogonalLoop=1;jettySize=auto;html=1;exitX=0.5;exitY=1;exitDx=0;exitDy=0;entryX=0.5;entryY=0;entryDx=0;entryDy=0;" edge="1" parent="1" source="TqjajjSFYu0oRNBo3CQ0-291" target="TqjajjSFYu0oRNBo3CQ0-293">
          <mxGeometry relative="1" as="geometry" />
        </mxCell>
        <mxCell id="TqjajjSFYu0oRNBo3CQ0-291" value="ทอนเหรียญห้าจำนวน =&amp;nbsp;จำนวนเงินทอน" style="shape=parallelogram;html=1;strokeWidth=2;perimeter=parallelogramPerimeter;whiteSpace=wrap;rounded=1;arcSize=0;size=0.1205357142857143;" vertex="1" parent="1">
          <mxGeometry x="3555" y="3560" width="255" height="60" as="geometry" />
        </mxCell>
        <mxCell id="TqjajjSFYu0oRNBo3CQ0-292" style="edgeStyle=orthogonalEdgeStyle;rounded=0;orthogonalLoop=1;jettySize=auto;html=1;exitX=0.5;exitY=1;exitDx=0;exitDy=0;entryX=0.5;entryY=0;entryDx=0;entryDy=0;" edge="1" parent="1" source="TqjajjSFYu0oRNBo3CQ0-293" target="TqjajjSFYu0oRNBo3CQ0-299">
          <mxGeometry relative="1" as="geometry" />
        </mxCell>
        <mxCell id="TqjajjSFYu0oRNBo3CQ0-293" value="จำนวนเหรียญห้า += -1 *&amp;nbsp;จำนวนเงินทอน" style="rounded=1;whiteSpace=wrap;html=1;absoluteArcSize=1;arcSize=0;strokeWidth=2;" vertex="1" parent="1">
          <mxGeometry x="3570" y="3640" width="227.5" height="50" as="geometry" />
        </mxCell>
        <mxCell id="TqjajjSFYu0oRNBo3CQ0-294" value="" style="ellipse;whiteSpace=wrap;html=1;aspect=fixed;" vertex="1" parent="1">
          <mxGeometry x="3425" y="3870" width="30" height="30" as="geometry" />
        </mxCell>
        <mxCell id="TqjajjSFYu0oRNBo3CQ0-295" style="edgeStyle=orthogonalEdgeStyle;rounded=0;orthogonalLoop=1;jettySize=auto;html=1;exitX=0.5;exitY=1;exitDx=0;exitDy=0;entryX=0.5;entryY=0;entryDx=0;entryDy=0;entryPerimeter=0;" edge="1" parent="1" source="TqjajjSFYu0oRNBo3CQ0-289" target="TqjajjSFYu0oRNBo3CQ0-288">
          <mxGeometry relative="1" as="geometry" />
        </mxCell>
        <mxCell id="TqjajjSFYu0oRNBo3CQ0-296" style="edgeStyle=orthogonalEdgeStyle;rounded=0;orthogonalLoop=1;jettySize=auto;html=1;exitX=0.5;exitY=1;exitDx=0;exitDy=0;entryX=1;entryY=0.5;entryDx=0;entryDy=0;" edge="1" parent="1" source="TqjajjSFYu0oRNBo3CQ0-297" target="TqjajjSFYu0oRNBo3CQ0-294">
          <mxGeometry relative="1" as="geometry" />
        </mxCell>
        <mxCell id="TqjajjSFYu0oRNBo3CQ0-297" value="เงินทอน -=&amp;nbsp;จำนวนเงินทอน * 5" style="rounded=1;whiteSpace=wrap;html=1;absoluteArcSize=1;arcSize=0;strokeWidth=2;" vertex="1" parent="1">
          <mxGeometry x="3583.75" y="3810" width="200" height="50" as="geometry" />
        </mxCell>
        <mxCell id="TqjajjSFYu0oRNBo3CQ0-298" style="edgeStyle=orthogonalEdgeStyle;rounded=0;orthogonalLoop=1;jettySize=auto;html=1;exitX=0.5;exitY=1;exitDx=0;exitDy=0;" edge="1" parent="1" source="TqjajjSFYu0oRNBo3CQ0-299" target="TqjajjSFYu0oRNBo3CQ0-297">
          <mxGeometry relative="1" as="geometry" />
        </mxCell>
        <mxCell id="TqjajjSFYu0oRNBo3CQ0-299" value="&amp;nbsp;ยอดเงินคงเหลือในตู้ -=&amp;nbsp;จำนวนเงินทอน * 5" style="rounded=1;whiteSpace=wrap;html=1;absoluteArcSize=1;arcSize=0;strokeWidth=2;" vertex="1" parent="1">
          <mxGeometry x="3560" y="3720" width="247.5" height="50" as="geometry" />
        </mxCell>
        <mxCell id="TqjajjSFYu0oRNBo3CQ0-300" style="edgeStyle=orthogonalEdgeStyle;rounded=0;orthogonalLoop=1;jettySize=auto;html=1;exitX=0.5;exitY=1;exitDx=0;exitDy=0;entryX=0.5;entryY=0;entryDx=0;entryDy=0;entryPerimeter=0;" edge="1" parent="1" source="TqjajjSFYu0oRNBo3CQ0-276" target="TqjajjSFYu0oRNBo3CQ0-285">
          <mxGeometry relative="1" as="geometry" />
        </mxCell>
        <mxCell id="TqjajjSFYu0oRNBo3CQ0-301" style="edgeStyle=orthogonalEdgeStyle;rounded=0;orthogonalLoop=1;jettySize=auto;html=1;exitX=0.5;exitY=1;exitDx=0;exitDy=0;exitPerimeter=0;entryX=0.5;entryY=0;entryDx=0;entryDy=0;" edge="1" parent="1" source="TqjajjSFYu0oRNBo3CQ0-303" target="TqjajjSFYu0oRNBo3CQ0-305">
          <mxGeometry relative="1" as="geometry" />
        </mxCell>
        <mxCell id="TqjajjSFYu0oRNBo3CQ0-302" style="edgeStyle=orthogonalEdgeStyle;rounded=0;orthogonalLoop=1;jettySize=auto;html=1;exitX=1;exitY=0.5;exitDx=0;exitDy=0;exitPerimeter=0;entryX=1;entryY=0.5;entryDx=0;entryDy=0;" edge="1" parent="1" source="TqjajjSFYu0oRNBo3CQ0-303" target="TqjajjSFYu0oRNBo3CQ0-351">
          <mxGeometry relative="1" as="geometry">
            <mxPoint x="3640" y="3995" as="targetPoint" />
            <Array as="points">
              <mxPoint x="3650" y="3995" />
              <mxPoint x="3650" y="4385" />
            </Array>
          </mxGeometry>
        </mxCell>
        <mxCell id="TqjajjSFYu0oRNBo3CQ0-303" value="จำนวนเหรียญบาท &amp;gt;= จำนวนเงินทอน ?" style="strokeWidth=2;html=1;shape=mxgraph.flowchart.decision;whiteSpace=wrap;" vertex="1" parent="1">
          <mxGeometry x="3315" y="3960" width="250" height="70" as="geometry" />
        </mxCell>
        <mxCell id="TqjajjSFYu0oRNBo3CQ0-304" style="edgeStyle=orthogonalEdgeStyle;rounded=0;orthogonalLoop=1;jettySize=auto;html=1;exitX=0.5;exitY=1;exitDx=0;exitDy=0;entryX=0.5;entryY=0;entryDx=0;entryDy=0;" edge="1" parent="1" source="TqjajjSFYu0oRNBo3CQ0-305" target="TqjajjSFYu0oRNBo3CQ0-307">
          <mxGeometry relative="1" as="geometry" />
        </mxCell>
        <mxCell id="TqjajjSFYu0oRNBo3CQ0-305" value="ทอนเหรียญบาทจำนวน =&amp;nbsp;จำนวนเงินทอน" style="shape=parallelogram;html=1;strokeWidth=2;perimeter=parallelogramPerimeter;whiteSpace=wrap;rounded=1;arcSize=0;size=0.1205357142857143;" vertex="1" parent="1">
          <mxGeometry x="3310" y="4050" width="255" height="60" as="geometry" />
        </mxCell>
        <mxCell id="TqjajjSFYu0oRNBo3CQ0-306" style="edgeStyle=orthogonalEdgeStyle;rounded=0;orthogonalLoop=1;jettySize=auto;html=1;exitX=0.5;exitY=1;exitDx=0;exitDy=0;entryX=0.5;entryY=0;entryDx=0;entryDy=0;" edge="1" parent="1" source="TqjajjSFYu0oRNBo3CQ0-307" target="TqjajjSFYu0oRNBo3CQ0-310">
          <mxGeometry relative="1" as="geometry" />
        </mxCell>
        <mxCell id="TqjajjSFYu0oRNBo3CQ0-307" value="จำนวนเหรียญบาท += -1 *&amp;nbsp;จำนวนเงินทอน" style="rounded=1;whiteSpace=wrap;html=1;absoluteArcSize=1;arcSize=0;strokeWidth=2;" vertex="1" parent="1">
          <mxGeometry x="3310" y="4130" width="250" height="50" as="geometry" />
        </mxCell>
        <mxCell id="TqjajjSFYu0oRNBo3CQ0-355" style="edgeStyle=orthogonalEdgeStyle;rounded=0;orthogonalLoop=1;jettySize=auto;html=1;exitX=0.5;exitY=1;exitDx=0;exitDy=0;entryX=0.5;entryY=0;entryDx=0;entryDy=0;" edge="1" parent="1" source="TqjajjSFYu0oRNBo3CQ0-308" target="TqjajjSFYu0oRNBo3CQ0-351">
          <mxGeometry relative="1" as="geometry" />
        </mxCell>
        <mxCell id="TqjajjSFYu0oRNBo3CQ0-308" value="เงินทอน -=&amp;nbsp;จำนวนเงินทอน" style="rounded=1;whiteSpace=wrap;html=1;absoluteArcSize=1;arcSize=0;strokeWidth=2;" vertex="1" parent="1">
          <mxGeometry x="3310" y="4300" width="260" height="50" as="geometry" />
        </mxCell>
        <mxCell id="TqjajjSFYu0oRNBo3CQ0-309" style="edgeStyle=orthogonalEdgeStyle;rounded=0;orthogonalLoop=1;jettySize=auto;html=1;exitX=0.5;exitY=1;exitDx=0;exitDy=0;" edge="1" parent="1" source="TqjajjSFYu0oRNBo3CQ0-310" target="TqjajjSFYu0oRNBo3CQ0-308">
          <mxGeometry relative="1" as="geometry" />
        </mxCell>
        <mxCell id="TqjajjSFYu0oRNBo3CQ0-310" value="&amp;nbsp;ยอดเงินคงเหลือในตู้ -=&amp;nbsp;จำนวนเงินทอน" style="rounded=1;whiteSpace=wrap;html=1;absoluteArcSize=1;arcSize=0;strokeWidth=2;" vertex="1" parent="1">
          <mxGeometry x="3310" y="4210" width="260" height="50" as="geometry" />
        </mxCell>
        <mxCell id="TqjajjSFYu0oRNBo3CQ0-311" style="edgeStyle=orthogonalEdgeStyle;rounded=0;orthogonalLoop=1;jettySize=auto;html=1;exitX=0.5;exitY=1;exitDx=0;exitDy=0;entryX=0.5;entryY=0;entryDx=0;entryDy=0;entryPerimeter=0;" edge="1" parent="1" source="TqjajjSFYu0oRNBo3CQ0-294" target="TqjajjSFYu0oRNBo3CQ0-303">
          <mxGeometry relative="1" as="geometry" />
        </mxCell>
        <mxCell id="TqjajjSFYu0oRNBo3CQ0-312" style="edgeStyle=orthogonalEdgeStyle;rounded=0;orthogonalLoop=1;jettySize=auto;html=1;exitX=0.5;exitY=1;exitDx=0;exitDy=0;entryX=0.5;entryY=0;entryDx=0;entryDy=0;" edge="1" parent="1" target="TqjajjSFYu0oRNBo3CQ0-314">
          <mxGeometry relative="1" as="geometry">
            <mxPoint x="3678" y="1720" as="sourcePoint" />
          </mxGeometry>
        </mxCell>
        <mxCell id="TqjajjSFYu0oRNBo3CQ0-313" style="edgeStyle=orthogonalEdgeStyle;rounded=0;orthogonalLoop=1;jettySize=auto;html=1;exitX=0.5;exitY=1;exitDx=0;exitDy=0;entryX=0.5;entryY=0;entryDx=0;entryDy=0;" edge="1" parent="1" source="TqjajjSFYu0oRNBo3CQ0-314" target="TqjajjSFYu0oRNBo3CQ0-316">
          <mxGeometry relative="1" as="geometry" />
        </mxCell>
        <mxCell id="TqjajjSFYu0oRNBo3CQ0-314" value="จำนวนแบงค์ห้าสิบ += -1 *&amp;nbsp;จำนวนเงินทอน" style="rounded=1;whiteSpace=wrap;html=1;absoluteArcSize=1;arcSize=0;strokeWidth=2;" vertex="1" parent="1">
          <mxGeometry x="3565" y="1740" width="227.5" height="50" as="geometry" />
        </mxCell>
        <mxCell id="TqjajjSFYu0oRNBo3CQ0-315" style="edgeStyle=orthogonalEdgeStyle;rounded=0;orthogonalLoop=1;jettySize=auto;html=1;exitX=0.5;exitY=1;exitDx=0;exitDy=0;" edge="1" parent="1" source="TqjajjSFYu0oRNBo3CQ0-316">
          <mxGeometry relative="1" as="geometry">
            <mxPoint x="3679" y="1910" as="targetPoint" />
          </mxGeometry>
        </mxCell>
        <mxCell id="TqjajjSFYu0oRNBo3CQ0-316" value="&amp;nbsp;ยอดเงินคงเหลือในตู้ -=&amp;nbsp;จำนวนเงินทอน * 50" style="rounded=1;whiteSpace=wrap;html=1;absoluteArcSize=1;arcSize=0;strokeWidth=2;" vertex="1" parent="1">
          <mxGeometry x="3555" y="1820" width="247.5" height="50" as="geometry" />
        </mxCell>
        <mxCell id="TqjajjSFYu0oRNBo3CQ0-317" style="edgeStyle=orthogonalEdgeStyle;rounded=0;orthogonalLoop=1;jettySize=auto;html=1;exitX=0.5;exitY=1;exitDx=0;exitDy=0;entryX=0.5;entryY=0;entryDx=0;entryDy=0;" edge="1" parent="1" source="TqjajjSFYu0oRNBo3CQ0-318" target="TqjajjSFYu0oRNBo3CQ0-320">
          <mxGeometry relative="1" as="geometry" />
        </mxCell>
        <mxCell id="TqjajjSFYu0oRNBo3CQ0-318" value="จำนวนแบงค์ร้อย += -1 *&amp;nbsp;จำนวนเงินทอน" style="rounded=1;whiteSpace=wrap;html=1;absoluteArcSize=1;arcSize=0;strokeWidth=2;" vertex="1" parent="1">
          <mxGeometry x="3568.75" y="1120" width="227.5" height="50" as="geometry" />
        </mxCell>
        <mxCell id="TqjajjSFYu0oRNBo3CQ0-319" style="edgeStyle=orthogonalEdgeStyle;rounded=0;orthogonalLoop=1;jettySize=auto;html=1;exitX=0.5;exitY=1;exitDx=0;exitDy=0;" edge="1" parent="1" source="TqjajjSFYu0oRNBo3CQ0-320">
          <mxGeometry relative="1" as="geometry">
            <mxPoint x="3682.75" y="1290" as="targetPoint" />
          </mxGeometry>
        </mxCell>
        <mxCell id="TqjajjSFYu0oRNBo3CQ0-320" value="&amp;nbsp;ยอดเงินคงเหลือในตู้ -=&amp;nbsp;จำนวนเงินทอน * 100" style="rounded=1;whiteSpace=wrap;html=1;absoluteArcSize=1;arcSize=0;strokeWidth=2;" vertex="1" parent="1">
          <mxGeometry x="3558.75" y="1200" width="247.5" height="50" as="geometry" />
        </mxCell>
        <mxCell id="TqjajjSFYu0oRNBo3CQ0-321" style="edgeStyle=orthogonalEdgeStyle;rounded=0;orthogonalLoop=1;jettySize=auto;html=1;exitX=0.5;exitY=1;exitDx=0;exitDy=0;entryX=0.5;entryY=0;entryDx=0;entryDy=0;" edge="1" parent="1" target="TqjajjSFYu0oRNBo3CQ0-323">
          <mxGeometry relative="1" as="geometry">
            <mxPoint x="3683" y="470" as="sourcePoint" />
          </mxGeometry>
        </mxCell>
        <mxCell id="TqjajjSFYu0oRNBo3CQ0-322" style="edgeStyle=orthogonalEdgeStyle;rounded=0;orthogonalLoop=1;jettySize=auto;html=1;exitX=0.5;exitY=1;exitDx=0;exitDy=0;entryX=0.5;entryY=0;entryDx=0;entryDy=0;" edge="1" parent="1" source="TqjajjSFYu0oRNBo3CQ0-323" target="TqjajjSFYu0oRNBo3CQ0-325">
          <mxGeometry relative="1" as="geometry" />
        </mxCell>
        <mxCell id="TqjajjSFYu0oRNBo3CQ0-323" value="จำนวนแบงค์ห้าร้อย += -1 *&amp;nbsp;จำนวนเงินทอน" style="rounded=1;whiteSpace=wrap;html=1;absoluteArcSize=1;arcSize=0;strokeWidth=2;" vertex="1" parent="1">
          <mxGeometry x="3570" y="490" width="227.5" height="50" as="geometry" />
        </mxCell>
        <mxCell id="TqjajjSFYu0oRNBo3CQ0-324" style="edgeStyle=orthogonalEdgeStyle;rounded=0;orthogonalLoop=1;jettySize=auto;html=1;exitX=0.5;exitY=1;exitDx=0;exitDy=0;" edge="1" parent="1" source="TqjajjSFYu0oRNBo3CQ0-325">
          <mxGeometry relative="1" as="geometry">
            <mxPoint x="3684" y="660" as="targetPoint" />
          </mxGeometry>
        </mxCell>
        <mxCell id="TqjajjSFYu0oRNBo3CQ0-325" value="&amp;nbsp;ยอดเงินคงเหลือในตู้ -=&amp;nbsp;จำนวนเงินทอน * 500" style="rounded=1;whiteSpace=wrap;html=1;absoluteArcSize=1;arcSize=0;strokeWidth=2;" vertex="1" parent="1">
          <mxGeometry x="3560" y="570" width="247.5" height="50" as="geometry" />
        </mxCell>
        <mxCell id="TqjajjSFYu0oRNBo3CQ0-326" value="False" style="edgeLabel;html=1;align=center;verticalAlign=middle;resizable=0;points=[];" vertex="1" connectable="0" parent="1">
          <mxGeometry x="3440" y="275" as="geometry" />
        </mxCell>
        <mxCell id="TqjajjSFYu0oRNBo3CQ0-327" value="False" style="edgeLabel;html=1;align=center;verticalAlign=middle;resizable=0;points=[];" vertex="1" connectable="0" parent="1">
          <mxGeometry x="3495" y="355" as="geometry" />
        </mxCell>
        <mxCell id="TqjajjSFYu0oRNBo3CQ0-328" value="False" style="edgeLabel;html=1;align=center;verticalAlign=middle;resizable=0;points=[];" vertex="1" connectable="0" parent="1">
          <mxGeometry x="3440" y="900" as="geometry" />
        </mxCell>
        <mxCell id="TqjajjSFYu0oRNBo3CQ0-329" value="False" style="edgeLabel;html=1;align=center;verticalAlign=middle;resizable=0;points=[];" vertex="1" connectable="0" parent="1">
          <mxGeometry x="3500" y="975" as="geometry" />
        </mxCell>
        <mxCell id="TqjajjSFYu0oRNBo3CQ0-330" value="False" style="edgeLabel;html=1;align=center;verticalAlign=middle;resizable=0;points=[];" vertex="1" connectable="0" parent="1">
          <mxGeometry x="3438.75" y="1550" as="geometry" />
        </mxCell>
        <mxCell id="TqjajjSFYu0oRNBo3CQ0-331" value="False" style="edgeLabel;html=1;align=center;verticalAlign=middle;resizable=0;points=[];" vertex="1" connectable="0" parent="1">
          <mxGeometry x="3500" y="1605" as="geometry" />
        </mxCell>
        <mxCell id="TqjajjSFYu0oRNBo3CQ0-332" value="False" style="edgeLabel;html=1;align=center;verticalAlign=middle;resizable=0;points=[];" vertex="1" connectable="0" parent="1">
          <mxGeometry x="3438.75" y="2180" as="geometry" />
        </mxCell>
        <mxCell id="TqjajjSFYu0oRNBo3CQ0-333" value="False" style="edgeLabel;html=1;align=center;verticalAlign=middle;resizable=0;points=[];" vertex="1" connectable="0" parent="1">
          <mxGeometry x="3490" y="2245" as="geometry" />
        </mxCell>
        <mxCell id="TqjajjSFYu0oRNBo3CQ0-334" value="False" style="edgeLabel;html=1;align=center;verticalAlign=middle;resizable=0;points=[];" vertex="1" connectable="0" parent="1">
          <mxGeometry x="3440" y="2790" as="geometry" />
        </mxCell>
        <mxCell id="TqjajjSFYu0oRNBo3CQ0-335" value="False" style="edgeLabel;html=1;align=center;verticalAlign=middle;resizable=0;points=[];" vertex="1" connectable="0" parent="1">
          <mxGeometry x="3490" y="2855" as="geometry" />
        </mxCell>
        <mxCell id="TqjajjSFYu0oRNBo3CQ0-336" value="False" style="edgeLabel;html=1;align=center;verticalAlign=middle;resizable=0;points=[];" vertex="1" connectable="0" parent="1">
          <mxGeometry x="3440" y="3470" as="geometry" />
        </mxCell>
        <mxCell id="TqjajjSFYu0oRNBo3CQ0-337" value="False" style="edgeLabel;html=1;align=center;verticalAlign=middle;resizable=0;points=[];" vertex="1" connectable="0" parent="1">
          <mxGeometry x="3500" y="3505" as="geometry" />
        </mxCell>
        <mxCell id="TqjajjSFYu0oRNBo3CQ0-339" value="False" style="edgeLabel;html=1;align=center;verticalAlign=middle;resizable=0;points=[];" vertex="1" connectable="0" parent="1">
          <mxGeometry x="3600" y="3940" as="geometry">
            <mxPoint x="13" y="57" as="offset" />
          </mxGeometry>
        </mxCell>
        <mxCell id="TqjajjSFYu0oRNBo3CQ0-340" value="True" style="edgeLabel;html=1;align=center;verticalAlign=middle;resizable=0;points=[];" vertex="1" connectable="0" parent="1">
          <mxGeometry x="3630" y="195" as="geometry" />
        </mxCell>
        <mxCell id="TqjajjSFYu0oRNBo3CQ0-341" value="True" style="edgeLabel;html=1;align=center;verticalAlign=middle;resizable=0;points=[];" vertex="1" connectable="0" parent="1">
          <mxGeometry x="3630" y="815" as="geometry" />
        </mxCell>
        <mxCell id="TqjajjSFYu0oRNBo3CQ0-342" value="True" style="edgeLabel;html=1;align=center;verticalAlign=middle;resizable=0;points=[];" vertex="1" connectable="0" parent="1">
          <mxGeometry x="3630" y="1445" as="geometry" />
        </mxCell>
        <mxCell id="TqjajjSFYu0oRNBo3CQ0-343" value="True" style="edgeLabel;html=1;align=center;verticalAlign=middle;resizable=0;points=[];" vertex="1" connectable="0" parent="1">
          <mxGeometry x="3640" y="2085" as="geometry" />
        </mxCell>
        <mxCell id="TqjajjSFYu0oRNBo3CQ0-344" value="True" style="edgeLabel;html=1;align=center;verticalAlign=middle;resizable=0;points=[];" vertex="1" connectable="0" parent="1">
          <mxGeometry x="3630" y="2695" as="geometry" />
        </mxCell>
        <mxCell id="TqjajjSFYu0oRNBo3CQ0-345" value="True" style="edgeLabel;html=1;align=center;verticalAlign=middle;resizable=0;points=[];" vertex="1" connectable="0" parent="1">
          <mxGeometry x="3630" y="3345" as="geometry" />
        </mxCell>
        <mxCell id="TqjajjSFYu0oRNBo3CQ0-346" value="True" style="edgeLabel;html=1;align=center;verticalAlign=middle;resizable=0;points=[];" vertex="1" connectable="0" parent="1">
          <mxGeometry x="3460" y="4040" as="geometry" />
        </mxCell>
        <mxCell id="TqjajjSFYu0oRNBo3CQ0-347" value="ทอนเงิน" style="strokeWidth=2;html=1;shape=mxgraph.flowchart.start_1;whiteSpace=wrap;" vertex="1" parent="1">
          <mxGeometry x="3390" y="50" width="100" height="60" as="geometry" />
        </mxCell>
        <mxCell id="TqjajjSFYu0oRNBo3CQ0-348" style="edgeStyle=orthogonalEdgeStyle;rounded=0;orthogonalLoop=1;jettySize=auto;html=1;exitX=0.5;exitY=1;exitDx=0;exitDy=0;exitPerimeter=0;entryX=0.5;entryY=0;entryDx=0;entryDy=0;entryPerimeter=0;" edge="1" parent="1" source="TqjajjSFYu0oRNBo3CQ0-347" target="TqjajjSFYu0oRNBo3CQ0-210">
          <mxGeometry relative="1" as="geometry" />
        </mxCell>
        <mxCell id="TqjajjSFYu0oRNBo3CQ0-349" value="End" style="strokeWidth=2;html=1;shape=mxgraph.flowchart.start_1;whiteSpace=wrap;" vertex="1" parent="1">
          <mxGeometry x="3390.63" y="4430" width="100" height="60" as="geometry" />
        </mxCell>
        <mxCell id="TqjajjSFYu0oRNBo3CQ0-351" value="" style="ellipse;whiteSpace=wrap;html=1;aspect=fixed;" vertex="1" parent="1">
          <mxGeometry x="3425" y="4370" width="30" height="30" as="geometry" />
        </mxCell>
        <mxCell id="TqjajjSFYu0oRNBo3CQ0-356" style="edgeStyle=orthogonalEdgeStyle;rounded=0;orthogonalLoop=1;jettySize=auto;html=1;exitX=0.5;exitY=1;exitDx=0;exitDy=0;entryX=0.5;entryY=0;entryDx=0;entryDy=0;entryPerimeter=0;" edge="1" parent="1" source="TqjajjSFYu0oRNBo3CQ0-351" target="TqjajjSFYu0oRNBo3CQ0-349">
          <mxGeometry relative="1" as="geometry" />
        </mxCell>
        <mxCell id="TqjajjSFYu0oRNBo3CQ0-360" style="edgeStyle=orthogonalEdgeStyle;rounded=0;orthogonalLoop=1;jettySize=auto;html=1;exitX=1;exitY=0.5;exitDx=0;exitDy=0;exitPerimeter=0;entryX=0.5;entryY=0;entryDx=0;entryDy=0;" edge="1" parent="1" source="TqjajjSFYu0oRNBo3CQ0-357" target="TqjajjSFYu0oRNBo3CQ0-359">
          <mxGeometry relative="1" as="geometry" />
        </mxCell>
        <mxCell id="TqjajjSFYu0oRNBo3CQ0-363" style="edgeStyle=orthogonalEdgeStyle;rounded=0;orthogonalLoop=1;jettySize=auto;html=1;exitX=0.5;exitY=1;exitDx=0;exitDy=0;exitPerimeter=0;entryX=0.5;entryY=0;entryDx=0;entryDy=0;" edge="1" parent="1" source="TqjajjSFYu0oRNBo3CQ0-357" target="TqjajjSFYu0oRNBo3CQ0-361">
          <mxGeometry relative="1" as="geometry" />
        </mxCell>
        <mxCell id="TqjajjSFYu0oRNBo3CQ0-472" value="True" style="edgeLabel;html=1;align=center;verticalAlign=middle;resizable=0;points=[];" vertex="1" connectable="0" parent="TqjajjSFYu0oRNBo3CQ0-363">
          <mxGeometry x="-0.3454" y="2" relative="1" as="geometry">
            <mxPoint x="132" y="-65" as="offset" />
          </mxGeometry>
        </mxCell>
        <mxCell id="TqjajjSFYu0oRNBo3CQ0-473" value="False" style="edgeLabel;html=1;align=center;verticalAlign=middle;resizable=0;points=[];" vertex="1" connectable="0" parent="TqjajjSFYu0oRNBo3CQ0-363">
          <mxGeometry x="-0.0433" y="1" relative="1" as="geometry">
            <mxPoint as="offset" />
          </mxGeometry>
        </mxCell>
        <mxCell id="TqjajjSFYu0oRNBo3CQ0-357" value="เงินทอน &amp;gt; 0 ?" style="strokeWidth=2;html=1;shape=mxgraph.flowchart.decision;whiteSpace=wrap;" vertex="1" parent="1">
          <mxGeometry x="360" y="2480" width="130" height="70" as="geometry" />
        </mxCell>
        <mxCell id="TqjajjSFYu0oRNBo3CQ0-378" style="edgeStyle=orthogonalEdgeStyle;rounded=0;orthogonalLoop=1;jettySize=auto;html=1;exitX=0.5;exitY=1;exitDx=0;exitDy=0;entryX=1;entryY=0.5;entryDx=0;entryDy=0;" edge="1" parent="1" source="TqjajjSFYu0oRNBo3CQ0-359" target="TqjajjSFYu0oRNBo3CQ0-375">
          <mxGeometry relative="1" as="geometry" />
        </mxCell>
        <mxCell id="TqjajjSFYu0oRNBo3CQ0-359" value="แสดง &quot;ขออภัยตอนนี้ไม่มีเงินทอน&quot;" style="shape=parallelogram;perimeter=parallelogramPerimeter;whiteSpace=wrap;html=1;fixedSize=1;" vertex="1" parent="1">
          <mxGeometry x="510" y="2545" width="260" height="60" as="geometry" />
        </mxCell>
        <mxCell id="TqjajjSFYu0oRNBo3CQ0-367" style="edgeStyle=orthogonalEdgeStyle;rounded=0;orthogonalLoop=1;jettySize=auto;html=1;exitX=0.5;exitY=1;exitDx=0;exitDy=0;entryX=0.5;entryY=0;entryDx=0;entryDy=0;" edge="1" parent="1" source="TqjajjSFYu0oRNBo3CQ0-361" target="TqjajjSFYu0oRNBo3CQ0-362">
          <mxGeometry relative="1" as="geometry" />
        </mxCell>
        <mxCell id="TqjajjSFYu0oRNBo3CQ0-361" value="แสดง &quot;กรุณารอรับสินค้าที่ช่องรับสินค้า&quot;" style="shape=parallelogram;perimeter=parallelogramPerimeter;whiteSpace=wrap;html=1;fixedSize=1;" vertex="1" parent="1">
          <mxGeometry x="290.25" y="2640" width="270" height="60" as="geometry" />
        </mxCell>
        <mxCell id="TqjajjSFYu0oRNBo3CQ0-381" style="edgeStyle=orthogonalEdgeStyle;rounded=0;orthogonalLoop=1;jettySize=auto;html=1;exitX=0.5;exitY=1;exitDx=0;exitDy=0;entryX=0.5;entryY=0;entryDx=0;entryDy=0;" edge="1" parent="1" source="TqjajjSFYu0oRNBo3CQ0-362" target="TqjajjSFYu0oRNBo3CQ0-380">
          <mxGeometry relative="1" as="geometry" />
        </mxCell>
        <mxCell id="TqjajjSFYu0oRNBo3CQ0-362" value="จ่าย สินค้าให้ลูกค้า" style="shape=parallelogram;perimeter=parallelogramPerimeter;whiteSpace=wrap;html=1;fixedSize=1;" vertex="1" parent="1">
          <mxGeometry x="289" y="2730" width="270" height="60" as="geometry" />
        </mxCell>
        <mxCell id="TqjajjSFYu0oRNBo3CQ0-364" style="edgeStyle=orthogonalEdgeStyle;rounded=0;orthogonalLoop=1;jettySize=auto;html=1;exitX=0.5;exitY=1;exitDx=0;exitDy=0;" edge="1" parent="1" source="TqjajjSFYu0oRNBo3CQ0-365" target="TqjajjSFYu0oRNBo3CQ0-366">
          <mxGeometry relative="1" as="geometry" />
        </mxCell>
        <mxCell id="TqjajjSFYu0oRNBo3CQ0-365" value="&lt;div&gt;แสดง &quot;ต้องการสั่งสินค้าเพิ่มหรือไม่?&quot;&lt;/div&gt;" style="shape=parallelogram;perimeter=parallelogramPerimeter;whiteSpace=wrap;html=1;fixedSize=1;" vertex="1" parent="1">
          <mxGeometry x="285" y="2880" width="270" height="60" as="geometry" />
        </mxCell>
        <mxCell id="TqjajjSFYu0oRNBo3CQ0-366" value="รับ ความต้องการ" style="shape=parallelogram;perimeter=parallelogramPerimeter;whiteSpace=wrap;html=1;fixedSize=1;" vertex="1" parent="1">
          <mxGeometry x="285" y="2970" width="270" height="60" as="geometry" />
        </mxCell>
        <mxCell id="TqjajjSFYu0oRNBo3CQ0-372" style="edgeStyle=orthogonalEdgeStyle;rounded=0;orthogonalLoop=1;jettySize=auto;html=1;exitX=0;exitY=0.5;exitDx=0;exitDy=0;exitPerimeter=0;entryX=0;entryY=0.5;entryDx=0;entryDy=0;" edge="1" parent="1" source="TqjajjSFYu0oRNBo3CQ0-369" target="TqjajjSFYu0oRNBo3CQ0-20">
          <mxGeometry relative="1" as="geometry">
            <Array as="points">
              <mxPoint x="220" y="3095" />
              <mxPoint x="220" y="715" />
            </Array>
          </mxGeometry>
        </mxCell>
        <mxCell id="TqjajjSFYu0oRNBo3CQ0-474" value="True" style="edgeLabel;html=1;align=center;verticalAlign=middle;resizable=0;points=[];" vertex="1" connectable="0" parent="TqjajjSFYu0oRNBo3CQ0-372">
          <mxGeometry x="-0.9704" y="-1" relative="1" as="geometry">
            <mxPoint as="offset" />
          </mxGeometry>
        </mxCell>
        <mxCell id="TqjajjSFYu0oRNBo3CQ0-373" style="edgeStyle=orthogonalEdgeStyle;rounded=0;orthogonalLoop=1;jettySize=auto;html=1;exitX=0.5;exitY=1;exitDx=0;exitDy=0;exitPerimeter=0;entryX=0.5;entryY=0;entryDx=0;entryDy=0;" edge="1" parent="1" source="TqjajjSFYu0oRNBo3CQ0-369" target="TqjajjSFYu0oRNBo3CQ0-371">
          <mxGeometry relative="1" as="geometry" />
        </mxCell>
        <mxCell id="TqjajjSFYu0oRNBo3CQ0-475" value="False" style="edgeLabel;html=1;align=center;verticalAlign=middle;resizable=0;points=[];" vertex="1" connectable="0" parent="TqjajjSFYu0oRNBo3CQ0-373">
          <mxGeometry x="-0.0606" y="1" relative="1" as="geometry">
            <mxPoint as="offset" />
          </mxGeometry>
        </mxCell>
        <mxCell id="TqjajjSFYu0oRNBo3CQ0-369" value="ความต้องการ = true" style="strokeWidth=2;html=1;shape=mxgraph.flowchart.decision;whiteSpace=wrap;" vertex="1" parent="1">
          <mxGeometry x="294" y="3060" width="250" height="70" as="geometry" />
        </mxCell>
        <mxCell id="TqjajjSFYu0oRNBo3CQ0-370" style="edgeStyle=orthogonalEdgeStyle;rounded=0;orthogonalLoop=1;jettySize=auto;html=1;exitX=0.5;exitY=1;exitDx=0;exitDy=0;entryX=0.5;entryY=0;entryDx=0;entryDy=0;entryPerimeter=0;" edge="1" parent="1" source="TqjajjSFYu0oRNBo3CQ0-366" target="TqjajjSFYu0oRNBo3CQ0-369">
          <mxGeometry relative="1" as="geometry" />
        </mxCell>
        <mxCell id="TqjajjSFYu0oRNBo3CQ0-376" style="edgeStyle=orthogonalEdgeStyle;rounded=0;orthogonalLoop=1;jettySize=auto;html=1;exitX=0.5;exitY=1;exitDx=0;exitDy=0;entryX=0.5;entryY=0;entryDx=0;entryDy=0;" edge="1" parent="1" source="TqjajjSFYu0oRNBo3CQ0-371" target="TqjajjSFYu0oRNBo3CQ0-375">
          <mxGeometry relative="1" as="geometry" />
        </mxCell>
        <mxCell id="TqjajjSFYu0oRNBo3CQ0-371" value="&lt;div&gt;แสดง &quot;ขอบคุณที่ใช้บริการ&quot;&lt;/div&gt;" style="shape=parallelogram;perimeter=parallelogramPerimeter;whiteSpace=wrap;html=1;fixedSize=1;" vertex="1" parent="1">
          <mxGeometry x="284" y="3160" width="270" height="60" as="geometry" />
        </mxCell>
        <mxCell id="TqjajjSFYu0oRNBo3CQ0-374" value="End" style="ellipse;whiteSpace=wrap;html=1;" vertex="1" parent="1">
          <mxGeometry x="359" y="3310" width="120" height="60" as="geometry" />
        </mxCell>
        <mxCell id="TqjajjSFYu0oRNBo3CQ0-377" style="edgeStyle=orthogonalEdgeStyle;rounded=0;orthogonalLoop=1;jettySize=auto;html=1;exitX=0.5;exitY=1;exitDx=0;exitDy=0;entryX=0.5;entryY=0;entryDx=0;entryDy=0;" edge="1" parent="1" source="TqjajjSFYu0oRNBo3CQ0-375" target="TqjajjSFYu0oRNBo3CQ0-374">
          <mxGeometry relative="1" as="geometry" />
        </mxCell>
        <mxCell id="TqjajjSFYu0oRNBo3CQ0-375" value="" style="ellipse;whiteSpace=wrap;html=1;aspect=fixed;" vertex="1" parent="1">
          <mxGeometry x="404" y="3250" width="30" height="30" as="geometry" />
        </mxCell>
        <mxCell id="TqjajjSFYu0oRNBo3CQ0-382" style="edgeStyle=orthogonalEdgeStyle;rounded=0;orthogonalLoop=1;jettySize=auto;html=1;exitX=0.5;exitY=1;exitDx=0;exitDy=0;entryX=0.5;entryY=0;entryDx=0;entryDy=0;" edge="1" parent="1" source="TqjajjSFYu0oRNBo3CQ0-380" target="TqjajjSFYu0oRNBo3CQ0-365">
          <mxGeometry relative="1" as="geometry" />
        </mxCell>
        <mxCell id="TqjajjSFYu0oRNBo3CQ0-380" value="" style="ellipse;whiteSpace=wrap;html=1;aspect=fixed;" vertex="1" parent="1">
          <mxGeometry x="404" y="2820" width="30" height="30" as="geometry" />
        </mxCell>
        <mxCell id="TqjajjSFYu0oRNBo3CQ0-388" value="Function Main" style="rounded=0;whiteSpace=wrap;html=1;" vertex="1" parent="1">
          <mxGeometry x="40" width="800" height="40" as="geometry" />
        </mxCell>
        <mxCell id="TqjajjSFYu0oRNBo3CQ0-389" value="Function&amp;nbsp;แสดงสินค้า" style="rounded=0;whiteSpace=wrap;html=1;" vertex="1" parent="1">
          <mxGeometry x="1040" y="10" width="600" height="40" as="geometry" />
        </mxCell>
        <mxCell id="TqjajjSFYu0oRNBo3CQ0-395" value="อัพเดตเงินในระบบ" style="strokeWidth=2;html=1;shape=mxgraph.flowchart.start_1;whiteSpace=wrap;" vertex="1" parent="1">
          <mxGeometry x="2597.5" y="50" width="135" height="60" as="geometry" />
        </mxCell>
        <mxCell id="TqjajjSFYu0oRNBo3CQ0-396" style="edgeStyle=orthogonalEdgeStyle;rounded=0;orthogonalLoop=1;jettySize=auto;html=1;exitX=1;exitY=0.5;exitDx=0;exitDy=0;exitPerimeter=0;entryX=0.5;entryY=0;entryDx=0;entryDy=0;" edge="1" parent="1" source="TqjajjSFYu0oRNBo3CQ0-402" target="TqjajjSFYu0oRNBo3CQ0-403">
          <mxGeometry relative="1" as="geometry" />
        </mxCell>
        <mxCell id="TqjajjSFYu0oRNBo3CQ0-397" value="True" style="edgeLabel;html=1;align=center;verticalAlign=middle;resizable=0;points=[];" vertex="1" connectable="0" parent="TqjajjSFYu0oRNBo3CQ0-396">
          <mxGeometry x="-0.477" y="1" relative="1" as="geometry">
            <mxPoint as="offset" />
          </mxGeometry>
        </mxCell>
        <mxCell id="TqjajjSFYu0oRNBo3CQ0-398" value="True" style="edgeLabel;html=1;align=center;verticalAlign=middle;resizable=0;points=[];" vertex="1" connectable="0" parent="TqjajjSFYu0oRNBo3CQ0-396">
          <mxGeometry x="-0.477" y="1" relative="1" as="geometry">
            <mxPoint x="2" y="146" as="offset" />
          </mxGeometry>
        </mxCell>
        <mxCell id="TqjajjSFYu0oRNBo3CQ0-399" value="True" style="edgeLabel;html=1;align=center;verticalAlign=middle;resizable=0;points=[];" vertex="1" connectable="0" parent="TqjajjSFYu0oRNBo3CQ0-396">
          <mxGeometry x="-0.477" y="1" relative="1" as="geometry">
            <mxPoint x="2" y="306" as="offset" />
          </mxGeometry>
        </mxCell>
        <mxCell id="TqjajjSFYu0oRNBo3CQ0-400" value="True" style="edgeLabel;html=1;align=center;verticalAlign=middle;resizable=0;points=[];" vertex="1" connectable="0" parent="TqjajjSFYu0oRNBo3CQ0-396">
          <mxGeometry x="-0.477" y="1" relative="1" as="geometry">
            <mxPoint x="12" y="456" as="offset" />
          </mxGeometry>
        </mxCell>
        <mxCell id="TqjajjSFYu0oRNBo3CQ0-401" style="edgeStyle=orthogonalEdgeStyle;rounded=0;orthogonalLoop=1;jettySize=auto;html=1;exitX=0.5;exitY=1;exitDx=0;exitDy=0;exitPerimeter=0;" edge="1" parent="1" source="TqjajjSFYu0oRNBo3CQ0-402" target="TqjajjSFYu0oRNBo3CQ0-405">
          <mxGeometry relative="1" as="geometry" />
        </mxCell>
        <mxCell id="TqjajjSFYu0oRNBo3CQ0-479" value="False" style="edgeLabel;html=1;align=center;verticalAlign=middle;resizable=0;points=[];" vertex="1" connectable="0" parent="TqjajjSFYu0oRNBo3CQ0-401">
          <mxGeometry x="-0.2874" y="-1" relative="1" as="geometry">
            <mxPoint as="offset" />
          </mxGeometry>
        </mxCell>
        <mxCell id="TqjajjSFYu0oRNBo3CQ0-402" value="เงินที่อัพเดต = 1000 ?" style="strokeWidth=2;html=1;shape=mxgraph.flowchart.decision;whiteSpace=wrap;" vertex="1" parent="1">
          <mxGeometry x="2590" y="155" width="150" height="100" as="geometry" />
        </mxCell>
        <mxCell id="TqjajjSFYu0oRNBo3CQ0-403" value="จำนวนแบงค์พัน += วิธีการอัพเดต" style="rounded=1;whiteSpace=wrap;html=1;absoluteArcSize=1;arcSize=0;strokeWidth=2;" vertex="1" parent="1">
          <mxGeometry x="2740" y="240" width="200" height="50" as="geometry" />
        </mxCell>
        <mxCell id="TqjajjSFYu0oRNBo3CQ0-404" style="edgeStyle=orthogonalEdgeStyle;rounded=0;orthogonalLoop=1;jettySize=auto;html=1;exitX=1;exitY=0.5;exitDx=0;exitDy=0;exitPerimeter=0;entryX=0.5;entryY=0;entryDx=0;entryDy=0;" edge="1" parent="1" source="TqjajjSFYu0oRNBo3CQ0-405" target="TqjajjSFYu0oRNBo3CQ0-406">
          <mxGeometry relative="1" as="geometry" />
        </mxCell>
        <mxCell id="TqjajjSFYu0oRNBo3CQ0-405" value="เงินที่อัพเดต = 500 ?" style="strokeWidth=2;html=1;shape=mxgraph.flowchart.decision;whiteSpace=wrap;" vertex="1" parent="1">
          <mxGeometry x="2590" y="300" width="150" height="100" as="geometry" />
        </mxCell>
        <mxCell id="TqjajjSFYu0oRNBo3CQ0-406" value="จำนวนแบงค์ห้าร้อย += วิธีการอัพเดต" style="rounded=1;whiteSpace=wrap;html=1;absoluteArcSize=1;arcSize=0;strokeWidth=2;" vertex="1" parent="1">
          <mxGeometry x="2756.25" y="380" width="200" height="50" as="geometry" />
        </mxCell>
        <mxCell id="TqjajjSFYu0oRNBo3CQ0-407" style="edgeStyle=orthogonalEdgeStyle;rounded=0;orthogonalLoop=1;jettySize=auto;html=1;exitX=0.5;exitY=1;exitDx=0;exitDy=0;exitPerimeter=0;entryX=0.5;entryY=0;entryDx=0;entryDy=0;entryPerimeter=0;" edge="1" parent="1" source="TqjajjSFYu0oRNBo3CQ0-395" target="TqjajjSFYu0oRNBo3CQ0-402">
          <mxGeometry relative="1" as="geometry" />
        </mxCell>
        <mxCell id="TqjajjSFYu0oRNBo3CQ0-408" style="edgeStyle=orthogonalEdgeStyle;rounded=0;orthogonalLoop=1;jettySize=auto;html=1;exitX=1;exitY=0.5;exitDx=0;exitDy=0;exitPerimeter=0;entryX=0.5;entryY=0;entryDx=0;entryDy=0;" edge="1" parent="1" source="TqjajjSFYu0oRNBo3CQ0-410" target="TqjajjSFYu0oRNBo3CQ0-412">
          <mxGeometry relative="1" as="geometry" />
        </mxCell>
        <mxCell id="TqjajjSFYu0oRNBo3CQ0-409" style="edgeStyle=orthogonalEdgeStyle;rounded=0;orthogonalLoop=1;jettySize=auto;html=1;exitX=0.5;exitY=1;exitDx=0;exitDy=0;exitPerimeter=0;" edge="1" parent="1" source="TqjajjSFYu0oRNBo3CQ0-410" target="TqjajjSFYu0oRNBo3CQ0-414">
          <mxGeometry relative="1" as="geometry" />
        </mxCell>
        <mxCell id="TqjajjSFYu0oRNBo3CQ0-410" value="เงินที่อัพเดต = 100 ?" style="strokeWidth=2;html=1;shape=mxgraph.flowchart.decision;whiteSpace=wrap;" vertex="1" parent="1">
          <mxGeometry x="2590" y="460" width="150" height="100" as="geometry" />
        </mxCell>
        <mxCell id="TqjajjSFYu0oRNBo3CQ0-411" style="edgeStyle=orthogonalEdgeStyle;rounded=0;orthogonalLoop=1;jettySize=auto;html=1;exitX=1;exitY=0.5;exitDx=0;exitDy=0;" edge="1" parent="1" source="TqjajjSFYu0oRNBo3CQ0-412" target="TqjajjSFYu0oRNBo3CQ0-439">
          <mxGeometry relative="1" as="geometry" />
        </mxCell>
        <mxCell id="TqjajjSFYu0oRNBo3CQ0-412" value="จำนวนแบงค์ร้อย += วิธีการอัพเดต" style="rounded=1;whiteSpace=wrap;html=1;absoluteArcSize=1;arcSize=0;strokeWidth=2;" vertex="1" parent="1">
          <mxGeometry x="2740" y="545" width="200" height="50" as="geometry" />
        </mxCell>
        <mxCell id="TqjajjSFYu0oRNBo3CQ0-413" style="edgeStyle=orthogonalEdgeStyle;rounded=0;orthogonalLoop=1;jettySize=auto;html=1;exitX=1;exitY=0.5;exitDx=0;exitDy=0;exitPerimeter=0;entryX=0.5;entryY=0;entryDx=0;entryDy=0;" edge="1" parent="1" source="TqjajjSFYu0oRNBo3CQ0-414" target="TqjajjSFYu0oRNBo3CQ0-416">
          <mxGeometry relative="1" as="geometry" />
        </mxCell>
        <mxCell id="TqjajjSFYu0oRNBo3CQ0-414" value="เงินที่อัพเดต = 50 ?" style="strokeWidth=2;html=1;shape=mxgraph.flowchart.decision;whiteSpace=wrap;" vertex="1" parent="1">
          <mxGeometry x="2590" y="615" width="150" height="100" as="geometry" />
        </mxCell>
        <mxCell id="TqjajjSFYu0oRNBo3CQ0-415" style="edgeStyle=orthogonalEdgeStyle;rounded=0;orthogonalLoop=1;jettySize=auto;html=1;exitX=1;exitY=0.5;exitDx=0;exitDy=0;" edge="1" parent="1" source="TqjajjSFYu0oRNBo3CQ0-416">
          <mxGeometry relative="1" as="geometry">
            <mxPoint x="3007.5" y="1440" as="targetPoint" />
          </mxGeometry>
        </mxCell>
        <mxCell id="TqjajjSFYu0oRNBo3CQ0-416" value="จำนวนแบงค์ห้าสิบ += วิธีการอัพเดต" style="rounded=1;whiteSpace=wrap;html=1;absoluteArcSize=1;arcSize=0;strokeWidth=2;" vertex="1" parent="1">
          <mxGeometry x="2756.25" y="695" width="200" height="50" as="geometry" />
        </mxCell>
        <mxCell id="TqjajjSFYu0oRNBo3CQ0-417" style="edgeStyle=orthogonalEdgeStyle;rounded=0;orthogonalLoop=1;jettySize=auto;html=1;exitX=0.5;exitY=1;exitDx=0;exitDy=0;exitPerimeter=0;entryX=0.5;entryY=0;entryDx=0;entryDy=0;entryPerimeter=0;" edge="1" parent="1" source="TqjajjSFYu0oRNBo3CQ0-405" target="TqjajjSFYu0oRNBo3CQ0-410">
          <mxGeometry relative="1" as="geometry" />
        </mxCell>
        <mxCell id="TqjajjSFYu0oRNBo3CQ0-418" style="edgeStyle=orthogonalEdgeStyle;rounded=0;orthogonalLoop=1;jettySize=auto;html=1;exitX=1;exitY=0.5;exitDx=0;exitDy=0;exitPerimeter=0;entryX=0.5;entryY=0;entryDx=0;entryDy=0;" edge="1" parent="1" source="TqjajjSFYu0oRNBo3CQ0-419" target="TqjajjSFYu0oRNBo3CQ0-420">
          <mxGeometry relative="1" as="geometry" />
        </mxCell>
        <mxCell id="TqjajjSFYu0oRNBo3CQ0-419" value="เงินที่อัพเดต = 20 ?" style="strokeWidth=2;html=1;shape=mxgraph.flowchart.decision;whiteSpace=wrap;" vertex="1" parent="1">
          <mxGeometry x="2590" y="770" width="150" height="100" as="geometry" />
        </mxCell>
        <mxCell id="TqjajjSFYu0oRNBo3CQ0-420" value="จำนวนแบงค์ยี่สิบ += วิธีการอัพเดต" style="rounded=1;whiteSpace=wrap;html=1;absoluteArcSize=1;arcSize=0;strokeWidth=2;" vertex="1" parent="1">
          <mxGeometry x="2756.25" y="850" width="200" height="50" as="geometry" />
        </mxCell>
        <mxCell id="TqjajjSFYu0oRNBo3CQ0-421" style="edgeStyle=orthogonalEdgeStyle;rounded=0;orthogonalLoop=1;jettySize=auto;html=1;exitX=0.5;exitY=1;exitDx=0;exitDy=0;exitPerimeter=0;entryX=0.5;entryY=0;entryDx=0;entryDy=0;entryPerimeter=0;" edge="1" parent="1" source="TqjajjSFYu0oRNBo3CQ0-414" target="TqjajjSFYu0oRNBo3CQ0-419">
          <mxGeometry relative="1" as="geometry" />
        </mxCell>
        <mxCell id="TqjajjSFYu0oRNBo3CQ0-422" style="edgeStyle=orthogonalEdgeStyle;rounded=0;orthogonalLoop=1;jettySize=auto;html=1;exitX=1;exitY=0.5;exitDx=0;exitDy=0;exitPerimeter=0;entryX=0.5;entryY=0;entryDx=0;entryDy=0;" edge="1" parent="1" source="TqjajjSFYu0oRNBo3CQ0-423" target="TqjajjSFYu0oRNBo3CQ0-425">
          <mxGeometry relative="1" as="geometry" />
        </mxCell>
        <mxCell id="TqjajjSFYu0oRNBo3CQ0-423" value="เงินที่อัพเดต = 10 ?" style="strokeWidth=2;html=1;shape=mxgraph.flowchart.decision;whiteSpace=wrap;" vertex="1" parent="1">
          <mxGeometry x="2590" y="925" width="150" height="100" as="geometry" />
        </mxCell>
        <mxCell id="TqjajjSFYu0oRNBo3CQ0-424" style="edgeStyle=orthogonalEdgeStyle;rounded=0;orthogonalLoop=1;jettySize=auto;html=1;exitX=1;exitY=0.5;exitDx=0;exitDy=0;" edge="1" parent="1" source="TqjajjSFYu0oRNBo3CQ0-425">
          <mxGeometry relative="1" as="geometry">
            <mxPoint x="3007.5" y="1440" as="targetPoint" />
          </mxGeometry>
        </mxCell>
        <mxCell id="TqjajjSFYu0oRNBo3CQ0-425" value="จำนวนเหรียญสิบ += วิธีการอัพเดต" style="rounded=1;whiteSpace=wrap;html=1;absoluteArcSize=1;arcSize=0;strokeWidth=2;" vertex="1" parent="1">
          <mxGeometry x="2756.25" y="1005" width="200" height="50" as="geometry" />
        </mxCell>
        <mxCell id="TqjajjSFYu0oRNBo3CQ0-426" style="edgeStyle=orthogonalEdgeStyle;rounded=0;orthogonalLoop=1;jettySize=auto;html=1;exitX=0.5;exitY=1;exitDx=0;exitDy=0;exitPerimeter=0;entryX=0.5;entryY=0;entryDx=0;entryDy=0;entryPerimeter=0;" edge="1" parent="1" source="TqjajjSFYu0oRNBo3CQ0-419" target="TqjajjSFYu0oRNBo3CQ0-423">
          <mxGeometry relative="1" as="geometry" />
        </mxCell>
        <mxCell id="TqjajjSFYu0oRNBo3CQ0-427" style="edgeStyle=orthogonalEdgeStyle;rounded=0;orthogonalLoop=1;jettySize=auto;html=1;exitX=1;exitY=0.5;exitDx=0;exitDy=0;exitPerimeter=0;entryX=0.5;entryY=0;entryDx=0;entryDy=0;" edge="1" parent="1" source="TqjajjSFYu0oRNBo3CQ0-429" target="TqjajjSFYu0oRNBo3CQ0-431">
          <mxGeometry relative="1" as="geometry" />
        </mxCell>
        <mxCell id="TqjajjSFYu0oRNBo3CQ0-428" style="edgeStyle=orthogonalEdgeStyle;rounded=0;orthogonalLoop=1;jettySize=auto;html=1;exitX=0.5;exitY=1;exitDx=0;exitDy=0;exitPerimeter=0;" edge="1" parent="1" source="TqjajjSFYu0oRNBo3CQ0-429" target="TqjajjSFYu0oRNBo3CQ0-434">
          <mxGeometry relative="1" as="geometry" />
        </mxCell>
        <mxCell id="TqjajjSFYu0oRNBo3CQ0-429" value="เงินที่อัพเดต = 5 ?" style="strokeWidth=2;html=1;shape=mxgraph.flowchart.decision;whiteSpace=wrap;" vertex="1" parent="1">
          <mxGeometry x="2590" y="1080" width="150" height="100" as="geometry" />
        </mxCell>
        <mxCell id="TqjajjSFYu0oRNBo3CQ0-430" style="edgeStyle=orthogonalEdgeStyle;rounded=0;orthogonalLoop=1;jettySize=auto;html=1;exitX=1;exitY=0.5;exitDx=0;exitDy=0;" edge="1" parent="1" source="TqjajjSFYu0oRNBo3CQ0-431">
          <mxGeometry relative="1" as="geometry">
            <mxPoint x="3007.5" y="1440" as="targetPoint" />
          </mxGeometry>
        </mxCell>
        <mxCell id="TqjajjSFYu0oRNBo3CQ0-431" value="จำนวนเหรียญห้า += วิธีการอัพเดต" style="rounded=1;whiteSpace=wrap;html=1;absoluteArcSize=1;arcSize=0;strokeWidth=2;" vertex="1" parent="1">
          <mxGeometry x="2756.25" y="1160" width="200" height="50" as="geometry" />
        </mxCell>
        <mxCell id="TqjajjSFYu0oRNBo3CQ0-432" style="edgeStyle=orthogonalEdgeStyle;rounded=0;orthogonalLoop=1;jettySize=auto;html=1;exitX=0.5;exitY=1;exitDx=0;exitDy=0;exitPerimeter=0;entryX=0.5;entryY=0;entryDx=0;entryDy=0;entryPerimeter=0;" edge="1" parent="1" source="TqjajjSFYu0oRNBo3CQ0-423" target="TqjajjSFYu0oRNBo3CQ0-429">
          <mxGeometry relative="1" as="geometry" />
        </mxCell>
        <mxCell id="TqjajjSFYu0oRNBo3CQ0-433" style="edgeStyle=orthogonalEdgeStyle;rounded=0;orthogonalLoop=1;jettySize=auto;html=1;exitX=1;exitY=0.5;exitDx=0;exitDy=0;exitPerimeter=0;entryX=0.5;entryY=0;entryDx=0;entryDy=0;" edge="1" parent="1" source="TqjajjSFYu0oRNBo3CQ0-434" target="TqjajjSFYu0oRNBo3CQ0-436">
          <mxGeometry relative="1" as="geometry" />
        </mxCell>
        <mxCell id="TqjajjSFYu0oRNBo3CQ0-434" value="เงินที่อัพเดต = 1 ?" style="strokeWidth=2;html=1;shape=mxgraph.flowchart.decision;whiteSpace=wrap;" vertex="1" parent="1">
          <mxGeometry x="2590" y="1250" width="150" height="100" as="geometry" />
        </mxCell>
        <mxCell id="TqjajjSFYu0oRNBo3CQ0-435" style="edgeStyle=orthogonalEdgeStyle;rounded=0;orthogonalLoop=1;jettySize=auto;html=1;exitX=1;exitY=0.5;exitDx=0;exitDy=0;" edge="1" parent="1" source="TqjajjSFYu0oRNBo3CQ0-436">
          <mxGeometry relative="1" as="geometry">
            <mxPoint x="3007.5" y="1440" as="targetPoint" />
          </mxGeometry>
        </mxCell>
        <mxCell id="TqjajjSFYu0oRNBo3CQ0-436" value="จำนวนเหรียญบาท += วิธีการอัพเดต" style="rounded=1;whiteSpace=wrap;html=1;absoluteArcSize=1;arcSize=0;strokeWidth=2;" vertex="1" parent="1">
          <mxGeometry x="2756.25" y="1330" width="200" height="50" as="geometry" />
        </mxCell>
        <mxCell id="TqjajjSFYu0oRNBo3CQ0-437" value="End" style="strokeWidth=2;html=1;shape=mxgraph.flowchart.start_1;whiteSpace=wrap;" vertex="1" parent="1">
          <mxGeometry x="2597.5" y="1530" width="135" height="60" as="geometry" />
        </mxCell>
        <mxCell id="TqjajjSFYu0oRNBo3CQ0-438" style="edgeStyle=orthogonalEdgeStyle;rounded=0;orthogonalLoop=1;jettySize=auto;html=1;exitX=0;exitY=0.5;exitDx=0;exitDy=0;exitPerimeter=0;entryX=1;entryY=0.5;entryDx=0;entryDy=0;" edge="1" parent="1" source="TqjajjSFYu0oRNBo3CQ0-439" target="TqjajjSFYu0oRNBo3CQ0-443">
          <mxGeometry relative="1" as="geometry" />
        </mxCell>
        <mxCell id="TqjajjSFYu0oRNBo3CQ0-439" value="" style="strokeWidth=2;html=1;shape=mxgraph.flowchart.start_2;whiteSpace=wrap;" vertex="1" parent="1">
          <mxGeometry x="2997.5" y="1440" width="20" height="20" as="geometry" />
        </mxCell>
        <mxCell id="TqjajjSFYu0oRNBo3CQ0-440" style="edgeStyle=orthogonalEdgeStyle;rounded=0;orthogonalLoop=1;jettySize=auto;html=1;exitX=1;exitY=0.5;exitDx=0;exitDy=0;entryX=0.5;entryY=0;entryDx=0;entryDy=0;entryPerimeter=0;" edge="1" parent="1" source="TqjajjSFYu0oRNBo3CQ0-420" target="TqjajjSFYu0oRNBo3CQ0-439">
          <mxGeometry relative="1" as="geometry" />
        </mxCell>
        <mxCell id="TqjajjSFYu0oRNBo3CQ0-441" style="edgeStyle=orthogonalEdgeStyle;rounded=0;orthogonalLoop=1;jettySize=auto;html=1;exitX=0.5;exitY=1;exitDx=0;exitDy=0;exitPerimeter=0;" edge="1" parent="1" source="TqjajjSFYu0oRNBo3CQ0-442" target="TqjajjSFYu0oRNBo3CQ0-437">
          <mxGeometry relative="1" as="geometry" />
        </mxCell>
        <mxCell id="TqjajjSFYu0oRNBo3CQ0-442" value="" style="strokeWidth=2;html=1;shape=mxgraph.flowchart.start_2;whiteSpace=wrap;" vertex="1" parent="1">
          <mxGeometry x="2655" y="1440" width="20" height="20" as="geometry" />
        </mxCell>
        <mxCell id="TqjajjSFYu0oRNBo3CQ0-443" value="&amp;nbsp;ยอดเงินคงเหลือในตู้ +=&amp;nbsp;เงินที่อัพเดต*&amp;nbsp;วิธีการอัพเดต" style="rounded=1;whiteSpace=wrap;html=1;absoluteArcSize=1;arcSize=0;strokeWidth=2;" vertex="1" parent="1">
          <mxGeometry x="2700" y="1425" width="280" height="50" as="geometry" />
        </mxCell>
        <mxCell id="TqjajjSFYu0oRNBo3CQ0-444" style="edgeStyle=orthogonalEdgeStyle;rounded=0;orthogonalLoop=1;jettySize=auto;html=1;exitX=0;exitY=0.5;exitDx=0;exitDy=0;entryX=1;entryY=0.5;entryDx=0;entryDy=0;entryPerimeter=0;" edge="1" parent="1" source="TqjajjSFYu0oRNBo3CQ0-443" target="TqjajjSFYu0oRNBo3CQ0-442">
          <mxGeometry relative="1" as="geometry" />
        </mxCell>
        <mxCell id="TqjajjSFYu0oRNBo3CQ0-445" style="edgeStyle=orthogonalEdgeStyle;rounded=0;orthogonalLoop=1;jettySize=auto;html=1;exitX=0.5;exitY=1;exitDx=0;exitDy=0;exitPerimeter=0;entryX=0.5;entryY=0;entryDx=0;entryDy=0;entryPerimeter=0;" edge="1" parent="1" source="TqjajjSFYu0oRNBo3CQ0-434" target="TqjajjSFYu0oRNBo3CQ0-442">
          <mxGeometry relative="1" as="geometry" />
        </mxCell>
        <mxCell id="TqjajjSFYu0oRNBo3CQ0-446" style="edgeStyle=orthogonalEdgeStyle;rounded=0;orthogonalLoop=1;jettySize=auto;html=1;exitX=1;exitY=0.5;exitDx=0;exitDy=0;entryX=0.5;entryY=0;entryDx=0;entryDy=0;entryPerimeter=0;" edge="1" parent="1" source="TqjajjSFYu0oRNBo3CQ0-406" target="TqjajjSFYu0oRNBo3CQ0-439">
          <mxGeometry relative="1" as="geometry" />
        </mxCell>
        <mxCell id="TqjajjSFYu0oRNBo3CQ0-447" style="edgeStyle=orthogonalEdgeStyle;rounded=0;orthogonalLoop=1;jettySize=auto;html=1;exitX=1;exitY=0.5;exitDx=0;exitDy=0;entryX=0.5;entryY=0;entryDx=0;entryDy=0;entryPerimeter=0;" edge="1" parent="1" source="TqjajjSFYu0oRNBo3CQ0-403" target="TqjajjSFYu0oRNBo3CQ0-439">
          <mxGeometry relative="1" as="geometry" />
        </mxCell>
        <mxCell id="TqjajjSFYu0oRNBo3CQ0-448" value="True" style="edgeLabel;html=1;align=center;verticalAlign=middle;resizable=0;points=[];" vertex="1" connectable="0" parent="1">
          <mxGeometry x="2787.5" y="820" as="geometry" />
        </mxCell>
        <mxCell id="TqjajjSFYu0oRNBo3CQ0-449" value="True" style="edgeLabel;html=1;align=center;verticalAlign=middle;resizable=0;points=[];" vertex="1" connectable="0" parent="1">
          <mxGeometry x="2787.5" y="975" as="geometry" />
        </mxCell>
        <mxCell id="TqjajjSFYu0oRNBo3CQ0-450" value="True" style="edgeLabel;html=1;align=center;verticalAlign=middle;resizable=0;points=[];" vertex="1" connectable="0" parent="1">
          <mxGeometry x="2787.5" y="1130" as="geometry" />
        </mxCell>
        <mxCell id="TqjajjSFYu0oRNBo3CQ0-451" value="True" style="edgeLabel;html=1;align=center;verticalAlign=middle;resizable=0;points=[];" vertex="1" connectable="0" parent="1">
          <mxGeometry x="2827.5" y="1280" as="geometry" />
        </mxCell>
        <mxCell id="TqjajjSFYu0oRNBo3CQ0-453" value="Function&amp;nbsp;อัพเดตเงินในระบบ" style="rounded=0;whiteSpace=wrap;html=1;" vertex="1" parent="1">
          <mxGeometry x="2550" width="480" height="40" as="geometry" />
        </mxCell>
        <mxCell id="TqjajjSFYu0oRNBo3CQ0-460" style="edgeStyle=orthogonalEdgeStyle;rounded=0;orthogonalLoop=1;jettySize=auto;html=1;exitX=0.5;exitY=1;exitDx=0;exitDy=0;entryX=1;entryY=0.5;entryDx=0;entryDy=0;" edge="1" parent="1" source="TqjajjSFYu0oRNBo3CQ0-461" target="TqjajjSFYu0oRNBo3CQ0-380">
          <mxGeometry relative="1" as="geometry" />
        </mxCell>
        <mxCell id="TqjajjSFYu0oRNBo3CQ0-461" value="" style="ellipse;whiteSpace=wrap;html=1;aspect=fixed;" vertex="1" parent="1">
          <mxGeometry x="780" y="2310" width="30" height="30" as="geometry" />
        </mxCell>
        <mxCell id="TqjajjSFYu0oRNBo3CQ0-476" value="False" style="edgeLabel;html=1;align=center;verticalAlign=middle;resizable=0;points=[];" vertex="1" connectable="0" parent="1">
          <mxGeometry x="2115" y="1735" as="geometry" />
        </mxCell>
        <mxCell id="TqjajjSFYu0oRNBo3CQ0-480" value="False" style="edgeLabel;html=1;align=center;verticalAlign=middle;resizable=0;points=[];" vertex="1" connectable="0" parent="1">
          <mxGeometry x="2665" y="430" as="geometry" />
        </mxCell>
        <mxCell id="TqjajjSFYu0oRNBo3CQ0-481" value="False" style="edgeLabel;html=1;align=center;verticalAlign=middle;resizable=0;points=[];" vertex="1" connectable="0" parent="1">
          <mxGeometry x="2665" y="580" as="geometry" />
        </mxCell>
        <mxCell id="TqjajjSFYu0oRNBo3CQ0-482" value="False" style="edgeLabel;html=1;align=center;verticalAlign=middle;resizable=0;points=[];" vertex="1" connectable="0" parent="1">
          <mxGeometry x="2665" y="745" as="geometry" />
        </mxCell>
        <mxCell id="TqjajjSFYu0oRNBo3CQ0-483" value="False" style="edgeLabel;html=1;align=center;verticalAlign=middle;resizable=0;points=[];" vertex="1" connectable="0" parent="1">
          <mxGeometry x="2665" y="897.5" as="geometry" />
        </mxCell>
        <mxCell id="TqjajjSFYu0oRNBo3CQ0-484" value="False" style="edgeLabel;html=1;align=center;verticalAlign=middle;resizable=0;points=[];" vertex="1" connectable="0" parent="1">
          <mxGeometry x="2665" y="1050" as="geometry" />
        </mxCell>
        <mxCell id="TqjajjSFYu0oRNBo3CQ0-485" value="False" style="edgeLabel;html=1;align=center;verticalAlign=middle;resizable=0;points=[];" vertex="1" connectable="0" parent="1">
          <mxGeometry x="2665" y="1210" as="geometry" />
        </mxCell>
        <mxCell id="TqjajjSFYu0oRNBo3CQ0-486" value="False" style="edgeLabel;html=1;align=center;verticalAlign=middle;resizable=0;points=[];" vertex="1" connectable="0" parent="1">
          <mxGeometry x="2665" y="1390" as="geometry" />
        </mxCell>
        <mxCell id="TqjajjSFYu0oRNBo3CQ0-488" value="True" style="edgeLabel;html=1;align=center;verticalAlign=middle;resizable=0;points=[];" vertex="1" connectable="0" parent="1">
          <mxGeometry x="3700" y="400" as="geometry" />
        </mxCell>
        <mxCell id="TqjajjSFYu0oRNBo3CQ0-489" value="True" style="edgeLabel;html=1;align=center;verticalAlign=middle;resizable=0;points=[];" vertex="1" connectable="0" parent="1">
          <mxGeometry x="3700" y="1650" as="geometry" />
        </mxCell>
        <mxCell id="TqjajjSFYu0oRNBo3CQ0-490" value="True" style="edgeLabel;html=1;align=center;verticalAlign=middle;resizable=0;points=[];" vertex="1" connectable="0" parent="1">
          <mxGeometry x="3700" y="2290" as="geometry" />
        </mxCell>
        <mxCell id="TqjajjSFYu0oRNBo3CQ0-491" value="True" style="edgeLabel;html=1;align=center;verticalAlign=middle;resizable=0;points=[];" vertex="1" connectable="0" parent="1">
          <mxGeometry x="3700" y="2900" as="geometry" />
        </mxCell>
        <mxCell id="TqjajjSFYu0oRNBo3CQ0-493" value="True" style="edgeLabel;html=1;align=center;verticalAlign=middle;resizable=0;points=[];" vertex="1" connectable="0" parent="1">
          <mxGeometry x="3700" y="3550" as="geometry" />
        </mxCell>
        <mxCell id="TqjajjSFYu0oRNBo3CQ0-496" value="True" style="edgeLabel;html=1;align=center;verticalAlign=middle;resizable=0;points=[];" vertex="1" connectable="0" parent="1">
          <mxGeometry x="640" y="2330" as="geometry">
            <mxPoint x="-8" y="-6" as="offset" />
          </mxGeometry>
        </mxCell>
      </root>
    </mxGraphModel>
  </diagram>
</mxfile>
